<svg width="259" height="98" viewBox="0 0 259 98" fill="none" xmlns="http://www.w3.org/2000/svg">
<path d="M0.662598 66.1674V83.4842H100.046V66.1674H0.662598ZM90.906 78.9668C90.906 78.0482 91.6514 77.461 92.5775 77.461H95.7924C96.7109 77.461 97.4639 78.0482 97.4639 78.9668C97.4639 79.8853 96.7185 80.4726 95.7924 80.4726H92.5775C91.6589 80.4726 90.906 79.8853 90.906 78.9668ZM2.55992 69.9319C2.55992 69.0133 3.3053 68.4261 4.23138 68.4261H7.44629C8.36484 68.4261 9.11774 69.0133 9.11774 69.9319C9.11774 70.8504 8.37237 71.4377 7.44629 71.4377H4.22385C3.3053 71.4377 2.55239 70.8504 2.55239 69.9319H2.55992Z" fill="#C1C1C1"/>
<path d="M19.7111 71.5128C12.6489 71.5128 6.92676 77.2349 6.92676 84.2972C6.92676 91.3594 12.6489 97.0815 19.7111 97.0815C26.7734 97.0815 32.4879 91.3594 32.4879 84.2972C32.4879 77.2349 26.7659 71.5128 19.7111 71.5128ZM19.7111 92.5942C15.1259 92.5942 11.4066 88.8748 11.4066 84.2896C11.4066 79.7044 15.1259 75.9851 19.7111 75.9851C24.2963 75.9851 28.0157 79.7044 28.0157 84.2896C28.0157 88.8748 24.2963 92.5942 19.7111 92.5942Z" fill="#E74C3C"/>
<path d="M19.7111 75.9928C15.1259 75.9928 11.4065 79.7122 11.4065 84.2974C11.4065 88.8826 15.1259 92.6019 19.7111 92.6019C24.2963 92.6019 28.0156 88.8826 28.0156 84.2974C28.0156 79.7122 24.2963 75.9928 19.7111 75.9928ZM19.7111 86.7217C18.3709 86.7217 17.2867 85.6376 17.2867 84.2974C17.2867 82.9572 18.3709 81.873 19.7111 81.873C21.0512 81.873 22.1354 82.9572 22.1354 84.2974C22.1354 85.6376 21.0512 86.7217 19.7111 86.7217Z" fill="#C1C1C1"/>
<path d="M19.7112 81.8654C18.3711 81.8654 17.2869 82.9496 17.2869 84.2898C17.2869 85.6299 18.3711 86.7141 19.7112 86.7141C21.0514 86.7141 22.1356 85.6299 22.1356 84.2898C22.1356 82.9496 21.0514 81.8654 19.7112 81.8654Z" fill="#E74C3C"/>
<path d="M49.0744 71.5128C42.0121 71.5128 36.29 77.2349 36.29 84.2972C36.29 91.3594 42.0121 97.0815 49.0744 97.0815C56.1367 97.0815 61.8512 91.3594 61.8512 84.2972C61.8512 77.2349 56.1291 71.5128 49.0744 71.5128ZM49.0744 92.5942C44.4892 92.5942 40.7698 88.8748 40.7698 84.2896C40.7698 79.7044 44.4892 75.9851 49.0744 75.9851C53.6596 75.9851 57.379 79.7044 57.379 84.2896C57.379 88.8748 53.6596 92.5942 49.0744 92.5942Z" fill="#E74C3C"/>
<path d="M49.0743 75.9928C44.4891 75.9928 40.7698 79.7122 40.7698 84.2974C40.7698 88.8826 44.4891 92.6019 49.0743 92.6019C53.6595 92.6019 57.3789 88.8826 57.3789 84.2974C57.3789 79.7122 53.6595 75.9928 49.0743 75.9928ZM49.0743 86.7217C47.7342 86.7217 46.65 85.6376 46.65 84.2974C46.65 82.9572 47.7342 81.873 49.0743 81.873C50.4145 81.873 51.4987 82.9572 51.4987 84.2974C51.4987 85.6376 50.4145 86.7217 49.0743 86.7217Z" fill="#C1C1C1"/>
<path d="M49.0745 81.8654C47.7343 81.8654 46.6501 82.9496 46.6501 84.2898C46.6501 85.6299 47.7343 86.7141 49.0745 86.7141C50.4147 86.7141 51.4989 85.6299 51.4989 84.2898C51.4989 82.9496 50.4147 81.8654 49.0745 81.8654Z" fill="#E74C3C"/>
<path d="M103.811 66.1673V83.4842H235.344H238.807H258.292L258.232 52.7054V52.7731C258.164 43.1961 254.43 33.8375 250.771 28.4542C249.047 25.9169 247.187 22.4987 242.428 22.4987H209.474L209.451 22.5213C209.376 22.5213 209.308 22.4987 209.233 22.4987H208.954C206.763 22.4987 204.7 24.5918 204.7 26.7828V28.0401V33.7773V66.1598H103.811V66.1673ZM248.858 78.9668C248.858 78.0482 249.604 77.4609 250.53 77.4609H253.745C254.663 77.4609 255.416 78.0482 255.416 78.9668C255.416 79.8853 254.671 80.4726 253.745 80.4726H250.53C249.611 80.4726 248.858 79.8853 248.858 78.9668ZM208.465 26.2633H222.77V25.5104H225.029V26.2633H243.618C254.633 33.7923 254.964 55.845 254.964 55.845C242.09 54.1284 232.264 52.1256 225.021 50.3186V50.3563H222.763V49.7314C212.749 47.0811 208.457 44.973 208.457 44.973V26.2633H208.465Z" fill="#C1C1C1"/>
<path d="M225.029 50.3562H222.77V49.7312C223.493 49.9195 224.246 50.1152 225.029 50.311V50.3486V50.3562Z" fill="#C1C1C1"/>
<path d="M225.029 25.5104H222.77V26.2633H225.029V25.5104Z" fill="#C1C1C1"/>
<path d="M225.029 26.2633V50.3187C224.246 50.123 223.493 49.9272 222.77 49.739V26.2709H225.029V26.2633Z" fill="#C1C1C1"/>
<path d="M107.62 22.4987H196.637C198.489 22.4987 200.175 24.3584 200.175 26.2106V38.2571V54.3166V62.3953H103.811V54.3166V38.2571V26.2106C103.811 24.3659 105.776 22.4987 107.62 22.4987Z" fill="#C1C1C1"/>
<path d="M124.365 71.5128C117.303 71.5128 111.581 77.2349 111.581 84.2972C111.581 91.3594 117.303 97.0815 124.365 97.0815C131.427 97.0815 137.142 91.3594 137.142 84.2972C137.142 77.2349 131.42 71.5128 124.365 71.5128ZM124.365 92.5942C119.78 92.5942 116.061 88.8748 116.061 84.2896C116.061 79.7044 119.78 75.9851 124.365 75.9851C128.95 75.9851 132.67 79.7044 132.67 84.2896C132.67 88.8748 128.95 92.5942 124.365 92.5942Z" fill="#C1C1C1"/>
<path d="M124.365 75.9928C119.78 75.9928 116.061 79.7122 116.061 84.2974C116.061 88.8826 119.78 92.6019 124.365 92.6019C128.95 92.6019 132.67 88.8826 132.67 84.2974C132.67 79.7122 128.95 75.9928 124.365 75.9928ZM124.365 86.7217C123.025 86.7217 121.941 85.6376 121.941 84.2974C121.941 82.9572 123.025 81.873 124.365 81.873C125.705 81.873 126.789 82.9572 126.789 84.2974C126.789 85.6376 125.705 86.7217 124.365 86.7217Z" fill="#C1C1C1"/>
<path d="M124.365 81.8654C123.025 81.8654 121.941 82.9496 121.941 84.2898C121.941 85.6299 123.025 86.7141 124.365 86.7141C125.705 86.7141 126.789 85.6299 126.789 84.2898C126.789 82.9496 125.705 81.8654 124.365 81.8654Z" fill="#C1C1C1"/>
<path d="M153.729 71.5128C146.666 71.5128 140.944 77.2349 140.944 84.2972C140.944 91.3594 146.666 97.0815 153.729 97.0815C160.791 97.0815 166.506 91.3594 166.506 84.2972C166.506 77.2349 160.783 71.5128 153.729 71.5128ZM153.729 92.5942C149.143 92.5942 145.424 88.8748 145.424 84.2896C145.424 79.7044 149.143 75.9851 153.729 75.9851C158.314 75.9851 162.033 79.7044 162.033 84.2896C162.033 88.8748 158.314 92.5942 153.729 92.5942Z" fill="#C1C1C1"/>
<path d="M153.729 75.9928C149.143 75.9928 145.424 79.7122 145.424 84.2974C145.424 88.8826 149.143 92.6019 153.729 92.6019C158.314 92.6019 162.033 88.8826 162.033 84.2974C162.033 79.7122 158.314 75.9928 153.729 75.9928ZM153.729 86.7217C152.388 86.7217 151.304 85.6376 151.304 84.2974C151.304 82.9572 152.388 81.873 153.729 81.873C155.069 81.873 156.153 82.9572 156.153 84.2974C156.153 85.6376 155.069 86.7217 153.729 86.7217Z" fill="#C1C1C1"/>
<path d="M153.729 81.8654C152.388 81.8654 151.304 82.9496 151.304 84.2898C151.304 85.6299 152.388 86.7141 153.729 86.7141C155.069 86.7141 156.153 85.6299 156.153 84.2898C156.153 82.9496 155.069 81.8654 153.729 81.8654Z" fill="#C1C1C1"/>
<path d="M219.232 71.5128C212.169 71.5128 206.447 77.2349 206.447 84.2972C206.447 91.3594 212.169 97.0815 219.232 97.0815C226.294 97.0815 232.008 91.3594 232.008 84.2972C232.008 77.2349 226.286 71.5128 219.232 71.5128ZM219.232 92.5942C214.646 92.5942 210.927 88.8748 210.927 84.2896C210.927 79.7044 214.646 75.9851 219.232 75.9851C223.817 75.9851 227.536 79.7044 227.536 84.2896C227.536 88.8748 223.817 92.5942 219.232 92.5942Z" fill="#C1C1C1"/>
<path d="M219.232 75.9928C214.646 75.9928 210.927 79.7122 210.927 84.2974C210.927 88.8826 214.646 92.6019 219.232 92.6019C223.817 92.6019 227.536 88.8826 227.536 84.2974C227.536 79.7122 223.817 75.9928 219.232 75.9928ZM219.232 86.7217C217.891 86.7217 216.807 85.6376 216.807 84.2974C216.807 82.9572 217.891 81.873 219.232 81.873C220.572 81.873 221.656 82.9572 221.656 84.2974C221.656 85.6376 220.572 86.7217 219.232 86.7217Z" fill="#C1C1C1"/>
<path d="M219.231 81.8654C217.891 81.8654 216.807 82.9496 216.807 84.2898C216.807 85.6299 217.891 86.7141 219.231 86.7141C220.572 86.7141 221.656 85.6299 221.656 84.2898C221.656 82.9496 220.572 81.8654 219.231 81.8654Z" fill="#C1C1C1"/>
<path d="M3.21495 22.4987H96.9142C98.7664 22.4987 100.046 24.3584 100.046 26.2106V38.2571V54.3166V62.3953H0.662598V54.3166V38.2571V26.2106C0.662598 24.3659 1.3628 22.4987 3.21495 22.4987Z" fill="#C1C1C1"/>
<path d="M245.628 20.2399C245.628 20.2399 241.578 0.543842 204.874 0.634191C204.874 0.634191 203.842 15.0448 205.438 17.7779C205.438 17.7779 206.665 20.2399 208.171 20.2399C209.677 20.2399 245.628 20.2399 245.628 20.2399Z" fill="#C1C1C1"/>
</svg>
