<svg width="258" height="98" viewBox="0 0 258 98" fill="none" xmlns="http://www.w3.org/2000/svg">
<path d="M0.174316 66.1674V83.4842H99.558V66.1674H0.174316ZM90.4177 78.9668C90.4177 78.0482 91.1631 77.461 92.0892 77.461H95.3041C96.2227 77.461 96.9756 78.0482 96.9756 78.9668C96.9756 79.8853 96.2302 80.4726 95.3041 80.4726H92.0892C91.1707 80.4726 90.4177 79.8853 90.4177 78.9668ZM2.07164 69.9319C2.07164 69.0133 2.81702 68.4261 3.7431 68.4261H6.95801C7.87655 68.4261 8.62946 69.0133 8.62946 69.9319C8.62946 70.8504 7.88408 71.4377 6.95801 71.4377H3.73557C2.81702 71.4377 2.06411 70.8504 2.06411 69.9319H2.07164Z" fill="#C1C1C1"/>
<path d="M19.2228 71.5128C12.1606 71.5128 6.43848 77.2349 6.43848 84.2972C6.43848 91.3594 12.1606 97.0815 19.2228 97.0815C26.2851 97.0815 31.9997 91.3594 31.9997 84.2972C31.9997 77.2349 26.2776 71.5128 19.2228 71.5128ZM19.2228 92.5942C14.6376 92.5942 10.9183 88.8748 10.9183 84.2896C10.9183 79.7044 14.6376 75.9851 19.2228 75.9851C23.808 75.9851 27.5274 79.7044 27.5274 84.2896C27.5274 88.8748 23.808 92.5942 19.2228 92.5942Z" fill="#E74C3C"/>
<path d="M19.2228 75.9928C14.6376 75.9928 10.9182 79.7122 10.9182 84.2974C10.9182 88.8826 14.6376 92.6019 19.2228 92.6019C23.808 92.6019 27.5273 88.8826 27.5273 84.2974C27.5273 79.7122 23.808 75.9928 19.2228 75.9928ZM19.2228 86.7217C17.8826 86.7217 16.7984 85.6376 16.7984 84.2974C16.7984 82.9572 17.8826 81.873 19.2228 81.873C20.563 81.873 21.6471 82.9572 21.6471 84.2974C21.6471 85.6376 20.563 86.7217 19.2228 86.7217Z" fill="#C1C1C1"/>
<path d="M19.2229 81.8654C17.8828 81.8654 16.7986 82.9496 16.7986 84.2898C16.7986 85.6299 17.8828 86.7141 19.2229 86.7141C20.5631 86.7141 21.6473 85.6299 21.6473 84.2898C21.6473 82.9496 20.5631 81.8654 19.2229 81.8654Z" fill="#E74C3C"/>
<path d="M48.5861 71.5128C41.5239 71.5128 35.8018 77.2349 35.8018 84.2972C35.8018 91.3594 41.5239 97.0815 48.5861 97.0815C55.6484 97.0815 61.3629 91.3594 61.3629 84.2972C61.3629 77.2349 55.6409 71.5128 48.5861 71.5128ZM48.5861 92.5942C44.0009 92.5942 40.2816 88.8748 40.2816 84.2896C40.2816 79.7044 44.0009 75.9851 48.5861 75.9851C53.1713 75.9851 56.8907 79.7044 56.8907 84.2896C56.8907 88.8748 53.1713 92.5942 48.5861 92.5942Z" fill="#E74C3C"/>
<path d="M48.5861 75.9928C44.0009 75.9928 40.2815 79.7122 40.2815 84.2974C40.2815 88.8826 44.0009 92.6019 48.5861 92.6019C53.1713 92.6019 56.8906 88.8826 56.8906 84.2974C56.8906 79.7122 53.1713 75.9928 48.5861 75.9928ZM48.5861 86.7217C47.2459 86.7217 46.1617 85.6376 46.1617 84.2974C46.1617 82.9572 47.2459 81.873 48.5861 81.873C49.9262 81.873 51.0104 82.9572 51.0104 84.2974C51.0104 85.6376 49.9262 86.7217 48.5861 86.7217Z" fill="#C1C1C1"/>
<path d="M48.586 81.8654C47.2458 81.8654 46.1616 82.9496 46.1616 84.2898C46.1616 85.6299 47.2458 86.7141 48.586 86.7141C49.9262 86.7141 51.0103 85.6299 51.0103 84.2898C51.0103 82.9496 49.9262 81.8654 48.586 81.8654Z" fill="#E74C3C"/>
<path d="M103.323 66.1673V83.4842H234.855H238.319H257.804L257.744 52.7054V52.7731C257.676 43.1961 253.942 33.8375 250.282 28.4542C248.558 25.9169 246.699 22.4987 241.94 22.4987H208.985L208.963 22.5213C208.888 22.5213 208.82 22.4987 208.745 22.4987H208.466C206.275 22.4987 204.212 24.5918 204.212 26.7828V28.0401V33.7773V66.1598H103.323V66.1673ZM248.37 78.9668C248.37 78.0482 249.115 77.4609 250.041 77.4609H253.256C254.175 77.4609 254.928 78.0482 254.928 78.9668C254.928 79.8853 254.182 80.4726 253.256 80.4726H250.041C249.123 80.4726 248.37 79.8853 248.37 78.9668ZM207.977 26.2633H222.282V25.5104H224.541V26.2633H243.13C254.145 33.7923 254.476 55.845 254.476 55.845C241.601 54.1284 231.776 52.1256 224.533 50.3186V50.3563H222.274V49.7314C212.261 47.0811 207.969 44.973 207.969 44.973V26.2633H207.977Z" fill="#C1C1C1"/>
<path d="M224.54 50.3562H222.282V49.7312C223.005 49.9195 223.757 50.1152 224.54 50.311V50.3486V50.3562Z" fill="#C1C1C1"/>
<path d="M224.54 25.5104H222.282V26.2633H224.54V25.5104Z" fill="#C1C1C1"/>
<path d="M224.54 26.2633V50.3187C223.757 50.123 223.005 49.9272 222.282 49.739V26.2709H224.54V26.2633Z" fill="#C1C1C1"/>
<path d="M107.132 22.4987H196.148C198.001 22.4987 199.687 24.3584 199.687 26.2106V38.2571V54.3166V62.3953H103.323V54.3166V38.2571V26.2106C103.323 24.3659 105.288 22.4987 107.132 22.4987Z" fill="#C1C1C1"/>
<path d="M123.877 71.5128C116.815 71.5128 111.093 77.2349 111.093 84.2972C111.093 91.3594 116.815 97.0815 123.877 97.0815C130.939 97.0815 136.654 91.3594 136.654 84.2972C136.654 77.2349 130.932 71.5128 123.877 71.5128ZM123.877 92.5942C119.292 92.5942 115.572 88.8748 115.572 84.2896C115.572 79.7044 119.292 75.9851 123.877 75.9851C128.462 75.9851 132.181 79.7044 132.181 84.2896C132.181 88.8748 128.462 92.5942 123.877 92.5942Z" fill="#E74C3C"/>
<path d="M123.877 75.9928C119.292 75.9928 115.572 79.7122 115.572 84.2974C115.572 88.8826 119.292 92.6019 123.877 92.6019C128.462 92.6019 132.181 88.8826 132.181 84.2974C132.181 79.7122 128.462 75.9928 123.877 75.9928ZM123.877 86.7217C122.537 86.7217 121.452 85.6376 121.452 84.2974C121.452 82.9572 122.537 81.873 123.877 81.873C125.217 81.873 126.301 82.9572 126.301 84.2974C126.301 85.6376 125.217 86.7217 123.877 86.7217Z" fill="#C1C1C1"/>
<path d="M123.877 81.8654C122.537 81.8654 121.453 82.9496 121.453 84.2898C121.453 85.6299 122.537 86.7141 123.877 86.7141C125.217 86.7141 126.301 85.6299 126.301 84.2898C126.301 82.9496 125.217 81.8654 123.877 81.8654Z" fill="#E74C3C"/>
<path d="M153.24 71.5128C146.178 71.5128 140.456 77.2349 140.456 84.2972C140.456 91.3594 146.178 97.0815 153.24 97.0815C160.302 97.0815 166.017 91.3594 166.017 84.2972C166.017 77.2349 160.295 71.5128 153.24 71.5128ZM153.24 92.5942C148.655 92.5942 144.936 88.8748 144.936 84.2896C144.936 79.7044 148.655 75.9851 153.24 75.9851C157.825 75.9851 161.545 79.7044 161.545 84.2896C161.545 88.8748 157.825 92.5942 153.24 92.5942Z" fill="#E74C3C"/>
<path d="M153.24 75.9928C148.655 75.9928 144.936 79.7122 144.936 84.2974C144.936 88.8826 148.655 92.6019 153.24 92.6019C157.826 92.6019 161.545 88.8826 161.545 84.2974C161.545 79.7122 157.826 75.9928 153.24 75.9928ZM153.24 86.7217C151.9 86.7217 150.816 85.6376 150.816 84.2974C150.816 82.9572 151.9 81.873 153.24 81.873C154.581 81.873 155.665 82.9572 155.665 84.2974C155.665 85.6376 154.581 86.7217 153.24 86.7217Z" fill="#C1C1C1"/>
<path d="M153.24 81.8654C151.9 81.8654 150.816 82.9496 150.816 84.2898C150.816 85.6299 151.9 86.7141 153.24 86.7141C154.58 86.7141 155.665 85.6299 155.665 84.2898C155.665 82.9496 154.58 81.8654 153.24 81.8654Z" fill="#E74C3C"/>
<path d="M218.743 71.5128C211.681 71.5128 205.959 77.2349 205.959 84.2972C205.959 91.3594 211.681 97.0815 218.743 97.0815C225.805 97.0815 231.52 91.3594 231.52 84.2972C231.52 77.2349 225.798 71.5128 218.743 71.5128ZM218.743 92.5942C214.158 92.5942 210.439 88.8748 210.439 84.2896C210.439 79.7044 214.158 75.9851 218.743 75.9851C223.328 75.9851 227.048 79.7044 227.048 84.2896C227.048 88.8748 223.328 92.5942 218.743 92.5942Z" fill="#E74C3C"/>
<path d="M218.743 75.9928C214.158 75.9928 210.438 79.7122 210.438 84.2974C210.438 88.8826 214.158 92.6019 218.743 92.6019C223.328 92.6019 227.048 88.8826 227.048 84.2974C227.048 79.7122 223.328 75.9928 218.743 75.9928ZM218.743 86.7217C217.403 86.7217 216.319 85.6376 216.319 84.2974C216.319 82.9572 217.403 81.873 218.743 81.873C220.083 81.873 221.167 82.9572 221.167 84.2974C221.167 85.6376 220.083 86.7217 218.743 86.7217Z" fill="#C1C1C1"/>
<path d="M218.743 81.8654C217.403 81.8654 216.319 82.9496 216.319 84.2898C216.319 85.6299 217.403 86.7141 218.743 86.7141C220.083 86.7141 221.167 85.6299 221.167 84.2898C221.167 82.9496 220.083 81.8654 218.743 81.8654Z" fill="#E74C3C"/>
<path d="M2.72667 22.4987H96.4259C98.2781 22.4987 99.558 24.3584 99.558 26.2106V38.2571V54.3166V62.3953H0.174316V54.3166V38.2571V26.2106C0.174316 24.3659 0.87452 22.4987 2.72667 22.4987Z" fill="#C1C1C1"/>
<path d="M245.14 20.2399C245.14 20.2399 241.089 0.543842 204.385 0.634191C204.385 0.634191 203.354 15.0448 204.95 17.7779C204.95 17.7779 206.177 20.2399 207.683 20.2399C209.189 20.2399 245.14 20.2399 245.14 20.2399Z" fill="#C1C1C1"/>
</svg>
