<svg width="259" height="98" viewBox="0 0 259 98" fill="none" xmlns="http://www.w3.org/2000/svg">
<path d="M0.5 66.1674V83.4842H99.8837V66.1674H0.5ZM90.7434 78.9668C90.7434 78.0482 91.4888 77.461 92.4149 77.461H95.6298C96.5483 77.461 97.3013 78.0482 97.3013 78.9668C97.3013 79.8853 96.5559 80.4726 95.6298 80.4726H92.4149C91.4963 80.4726 90.7434 79.8853 90.7434 78.9668ZM2.39733 69.9319C2.39733 69.0133 3.1427 68.4261 4.06878 68.4261H7.28369C8.20224 68.4261 8.95514 69.0133 8.95514 69.9319C8.95514 70.8504 8.20977 71.4377 7.28369 71.4377H4.06125C3.1427 71.4377 2.3898 70.8504 2.3898 69.9319H2.39733Z" fill="#C1C1C1"/>
<path d="M19.5485 71.5128C12.4863 71.5128 6.76416 77.2349 6.76416 84.2972C6.76416 91.3594 12.4863 97.0815 19.5485 97.0815C26.6108 97.0815 32.3254 91.3594 32.3254 84.2972C32.3254 77.2349 26.6033 71.5128 19.5485 71.5128ZM19.5485 92.5942C14.9633 92.5942 11.244 88.8748 11.244 84.2896C11.244 79.7044 14.9633 75.9851 19.5485 75.9851C24.1337 75.9851 27.8531 79.7044 27.8531 84.2896C27.8531 88.8748 24.1337 92.5942 19.5485 92.5942Z" fill="#C1C1C1"/>
<path d="M19.5485 75.9928C14.9633 75.9928 11.2439 79.7122 11.2439 84.2974C11.2439 88.8826 14.9633 92.6019 19.5485 92.6019C24.1337 92.6019 27.853 88.8826 27.853 84.2974C27.853 79.7122 24.1337 75.9928 19.5485 75.9928ZM19.5485 86.7217C18.2083 86.7217 17.1241 85.6376 17.1241 84.2974C17.1241 82.9572 18.2083 81.873 19.5485 81.873C20.8886 81.873 21.9728 82.9572 21.9728 84.2974C21.9728 85.6376 20.8886 86.7217 19.5485 86.7217Z" fill="#C1C1C1"/>
<path d="M19.5486 81.8654C18.2085 81.8654 17.1243 82.9496 17.1243 84.2898C17.1243 85.6299 18.2085 86.7141 19.5486 86.7141C20.8888 86.7141 21.973 85.6299 21.973 84.2898C21.973 82.9496 20.8888 81.8654 19.5486 81.8654Z" fill="#C1C1C1"/>
<path d="M48.9118 71.5128C41.8495 71.5128 36.1274 77.2349 36.1274 84.2972C36.1274 91.3594 41.8495 97.0815 48.9118 97.0815C55.9741 97.0815 61.6886 91.3594 61.6886 84.2972C61.6886 77.2349 55.9665 71.5128 48.9118 71.5128ZM48.9118 92.5942C44.3266 92.5942 40.6072 88.8748 40.6072 84.2896C40.6072 79.7044 44.3266 75.9851 48.9118 75.9851C53.497 75.9851 57.2164 79.7044 57.2164 84.2896C57.2164 88.8748 53.497 92.5942 48.9118 92.5942Z" fill="#C1C1C1"/>
<path d="M48.9117 75.9928C44.3265 75.9928 40.6072 79.7122 40.6072 84.2974C40.6072 88.8826 44.3265 92.6019 48.9117 92.6019C53.4969 92.6019 57.2163 88.8826 57.2163 84.2974C57.2163 79.7122 53.4969 75.9928 48.9117 75.9928ZM48.9117 86.7217C47.5716 86.7217 46.4874 85.6376 46.4874 84.2974C46.4874 82.9572 47.5716 81.873 48.9117 81.873C50.2519 81.873 51.3361 82.9572 51.3361 84.2974C51.3361 85.6376 50.2519 86.7217 48.9117 86.7217Z" fill="#C1C1C1"/>
<path d="M48.9119 81.8654C47.5717 81.8654 46.4875 82.9496 46.4875 84.2898C46.4875 85.6299 47.5717 86.7141 48.9119 86.7141C50.2521 86.7141 51.3363 85.6299 51.3363 84.2898C51.3363 82.9496 50.2521 81.8654 48.9119 81.8654Z" fill="#C1C1C1"/>
<path d="M103.648 66.1673V83.4842H235.181H238.644H258.13L258.069 52.7054V52.7731C258.002 43.1961 254.267 33.8375 250.608 28.4542C248.884 25.9169 247.024 22.4987 242.266 22.4987H209.311L209.289 22.5213C209.213 22.5213 209.146 22.4987 209.07 22.4987H208.792C206.601 22.4987 204.538 24.5918 204.538 26.7828V28.0401V33.7773V66.1598H103.648V66.1673ZM248.696 78.9668C248.696 78.0482 249.441 77.4609 250.367 77.4609H253.582C254.501 77.4609 255.254 78.0482 255.254 78.9668C255.254 79.8853 254.508 80.4726 253.582 80.4726H250.367C249.449 80.4726 248.696 79.8853 248.696 78.9668ZM208.302 26.2633H222.607V25.5104H224.866V26.2633H243.455C254.471 33.7923 254.802 55.845 254.802 55.845C241.927 54.1284 232.102 52.1256 224.859 50.3186V50.3563H222.6V49.7314C212.586 47.0811 208.295 44.973 208.295 44.973V26.2633H208.302Z" fill="#C1C1C1"/>
<path d="M224.866 50.3562H222.607V49.7312C223.33 49.9195 224.083 50.1152 224.866 50.311V50.3486V50.3562Z" fill="#C1C1C1"/>
<path d="M224.866 25.5104H222.607V26.2633H224.866V25.5104Z" fill="#C1C1C1"/>
<path d="M224.866 26.2633V50.3187C224.083 50.123 223.33 49.9272 222.607 49.739V26.2709H224.866V26.2633Z" fill="#C1C1C1"/>
<path d="M107.458 22.4987H196.474C198.326 22.4987 200.013 24.3584 200.013 26.2106V38.2571V54.3166V62.3953H103.648V54.3166V38.2571V26.2106C103.648 24.3659 105.613 22.4987 107.458 22.4987Z" fill="#C1C1C1"/>
<path d="M124.203 71.5128C117.14 71.5128 111.418 77.2349 111.418 84.2972C111.418 91.3594 117.14 97.0815 124.203 97.0815C131.265 97.0815 136.979 91.3594 136.979 84.2972C136.979 77.2349 131.257 71.5128 124.203 71.5128ZM124.203 92.5942C119.617 92.5942 115.898 88.8748 115.898 84.2896C115.898 79.7044 119.617 75.9851 124.203 75.9851C128.788 75.9851 132.507 79.7044 132.507 84.2896C132.507 88.8748 128.788 92.5942 124.203 92.5942Z" fill="#E74C3C"/>
<path d="M124.203 75.9928C119.617 75.9928 115.898 79.7122 115.898 84.2974C115.898 88.8826 119.617 92.6019 124.203 92.6019C128.788 92.6019 132.507 88.8826 132.507 84.2974C132.507 79.7122 128.788 75.9928 124.203 75.9928ZM124.203 86.7217C122.862 86.7217 121.778 85.6376 121.778 84.2974C121.778 82.9572 122.862 81.873 124.203 81.873C125.543 81.873 126.627 82.9572 126.627 84.2974C126.627 85.6376 125.543 86.7217 124.203 86.7217Z" fill="#C1C1C1"/>
<path d="M124.202 81.8654C122.862 81.8654 121.778 82.9496 121.778 84.2898C121.778 85.6299 122.862 86.7141 124.202 86.7141C125.543 86.7141 126.627 85.6299 126.627 84.2898C126.627 82.9496 125.543 81.8654 124.202 81.8654Z" fill="#E74C3C"/>
<path d="M153.566 71.5128C146.504 71.5128 140.782 77.2349 140.782 84.2972C140.782 91.3594 146.504 97.0815 153.566 97.0815C160.628 97.0815 166.343 91.3594 166.343 84.2972C166.343 77.2349 160.621 71.5128 153.566 71.5128ZM153.566 92.5942C148.981 92.5942 145.262 88.8748 145.262 84.2896C145.262 79.7044 148.981 75.9851 153.566 75.9851C158.151 75.9851 161.871 79.7044 161.871 84.2896C161.871 88.8748 158.151 92.5942 153.566 92.5942Z" fill="#E74C3C"/>
<path d="M153.566 75.9928C148.981 75.9928 145.261 79.7122 145.261 84.2974C145.261 88.8826 148.981 92.6019 153.566 92.6019C158.151 92.6019 161.871 88.8826 161.871 84.2974C161.871 79.7122 158.151 75.9928 153.566 75.9928ZM153.566 86.7217C152.226 86.7217 151.142 85.6376 151.142 84.2974C151.142 82.9572 152.226 81.873 153.566 81.873C154.906 81.873 155.99 82.9572 155.99 84.2974C155.99 85.6376 154.906 86.7217 153.566 86.7217Z" fill="#C1C1C1"/>
<path d="M153.566 81.8654C152.226 81.8654 151.142 82.9496 151.142 84.2898C151.142 85.6299 152.226 86.7141 153.566 86.7141C154.906 86.7141 155.99 85.6299 155.99 84.2898C155.99 82.9496 154.906 81.8654 153.566 81.8654Z" fill="#E74C3C"/>
<path d="M219.069 71.5128C212.007 71.5128 206.284 77.2349 206.284 84.2972C206.284 91.3594 212.007 97.0815 219.069 97.0815C226.131 97.0815 231.846 91.3594 231.846 84.2972C231.846 77.2349 226.124 71.5128 219.069 71.5128ZM219.069 92.5942C214.484 92.5942 210.764 88.8748 210.764 84.2896C210.764 79.7044 214.484 75.9851 219.069 75.9851C223.654 75.9851 227.373 79.7044 227.373 84.2896C227.373 88.8748 223.654 92.5942 219.069 92.5942Z" fill="#C1C1C1"/>
<path d="M219.069 75.9928C214.484 75.9928 210.764 79.7122 210.764 84.2974C210.764 88.8826 214.484 92.6019 219.069 92.6019C223.654 92.6019 227.373 88.8826 227.373 84.2974C227.373 79.7122 223.654 75.9928 219.069 75.9928ZM219.069 86.7217C217.729 86.7217 216.644 85.6376 216.644 84.2974C216.644 82.9572 217.729 81.873 219.069 81.873C220.409 81.873 221.493 82.9572 221.493 84.2974C221.493 85.6376 220.409 86.7217 219.069 86.7217Z" fill="#C1C1C1"/>
<path d="M219.069 81.8654C217.729 81.8654 216.645 82.9496 216.645 84.2898C216.645 85.6299 217.729 86.7141 219.069 86.7141C220.409 86.7141 221.493 85.6299 221.493 84.2898C221.493 82.9496 220.409 81.8654 219.069 81.8654Z" fill="#C1C1C1"/>
<path d="M3.05235 22.4987H96.7516C98.6038 22.4987 99.8837 24.3584 99.8837 26.2106V38.2571V54.3166V62.3953H0.5V54.3166V38.2571V26.2106C0.5 24.3659 1.2002 22.4987 3.05235 22.4987Z" fill="#C1C1C1"/>
<path d="M245.466 20.2399C245.466 20.2399 241.415 0.543842 204.711 0.634191C204.711 0.634191 203.679 15.0448 205.276 17.7779C205.276 17.7779 206.503 20.2399 208.009 20.2399C209.514 20.2399 245.466 20.2399 245.466 20.2399Z" fill="#C1C1C1"/>
</svg>
