<svg width="258" height="98" viewBox="0 0 258 98" fill="none" xmlns="http://www.w3.org/2000/svg">
<path d="M0.337158 66.1674V83.4842H99.7209V66.1674H0.337158ZM90.5806 78.9668C90.5806 78.0482 91.326 77.461 92.252 77.461H95.467C96.3855 77.461 97.1384 78.0482 97.1384 78.9668C97.1384 79.8853 96.393 80.4726 95.467 80.4726H92.252C91.3335 80.4726 90.5806 79.8853 90.5806 78.9668ZM2.23448 69.9319C2.23448 69.0133 2.97986 68.4261 3.90594 68.4261H7.12085C8.0394 68.4261 8.7923 69.0133 8.7923 69.9319C8.7923 70.8504 8.04693 71.4377 7.12085 71.4377H3.89841C2.97986 71.4377 2.22695 70.8504 2.22695 69.9319H2.23448Z" fill="#C1C1C1"/>
<path d="M19.3857 71.5128C12.3234 71.5128 6.60132 77.2349 6.60132 84.2972C6.60132 91.3594 12.3234 97.0815 19.3857 97.0815C26.4479 97.0815 32.1625 91.3594 32.1625 84.2972C32.1625 77.2349 26.4404 71.5128 19.3857 71.5128ZM19.3857 92.5942C14.8005 92.5942 11.0811 88.8748 11.0811 84.2896C11.0811 79.7044 14.8005 75.9851 19.3857 75.9851C23.9709 75.9851 27.6902 79.7044 27.6902 84.2896C27.6902 88.8748 23.9709 92.5942 19.3857 92.5942Z" fill="#C1C1C1"/>
<path d="M19.3856 75.9928C14.8004 75.9928 11.0811 79.7122 11.0811 84.2974C11.0811 88.8826 14.8004 92.6019 19.3856 92.6019C23.9708 92.6019 27.6902 88.8826 27.6902 84.2974C27.6902 79.7122 23.9708 75.9928 19.3856 75.9928ZM19.3856 86.7217C18.0454 86.7217 16.9613 85.6376 16.9613 84.2974C16.9613 82.9572 18.0454 81.873 19.3856 81.873C20.7258 81.873 21.81 82.9572 21.81 84.2974C21.81 85.6376 20.7258 86.7217 19.3856 86.7217Z" fill="#C1C1C1"/>
<path d="M19.3855 81.8654C18.0454 81.8654 16.9612 82.9496 16.9612 84.2898C16.9612 85.6299 18.0454 86.7141 19.3855 86.7141C20.7257 86.7141 21.8099 85.6299 21.8099 84.2898C21.8099 82.9496 20.7257 81.8654 19.3855 81.8654Z" fill="#C1C1C1"/>
<path d="M48.7492 71.5128C41.6869 71.5128 35.9648 77.2349 35.9648 84.2972C35.9648 91.3594 41.6869 97.0815 48.7492 97.0815C55.8115 97.0815 61.526 91.3594 61.526 84.2972C61.526 77.2349 55.8039 71.5128 48.7492 71.5128ZM48.7492 92.5942C44.164 92.5942 40.4446 88.8748 40.4446 84.2896C40.4446 79.7044 44.164 75.9851 48.7492 75.9851C53.3344 75.9851 57.0538 79.7044 57.0538 84.2896C57.0538 88.8748 53.3344 92.5942 48.7492 92.5942Z" fill="#C1C1C1"/>
<path d="M48.7491 75.9928C44.1639 75.9928 40.4446 79.7122 40.4446 84.2974C40.4446 88.8826 44.1639 92.6019 48.7491 92.6019C53.3343 92.6019 57.0537 88.8826 57.0537 84.2974C57.0537 79.7122 53.3343 75.9928 48.7491 75.9928ZM48.7491 86.7217C47.409 86.7217 46.3248 85.6376 46.3248 84.2974C46.3248 82.9572 47.409 81.873 48.7491 81.873C50.0893 81.873 51.1735 82.9572 51.1735 84.2974C51.1735 85.6376 50.0893 86.7217 48.7491 86.7217Z" fill="#C1C1C1"/>
<path d="M48.7493 81.8654C47.4091 81.8654 46.325 82.9496 46.325 84.2898C46.325 85.6299 47.4091 86.7141 48.7493 86.7141C50.0895 86.7141 51.1737 85.6299 51.1737 84.2898C51.1737 82.9496 50.0895 81.8654 48.7493 81.8654Z" fill="#C1C1C1"/>
<path d="M103.485 66.1673V83.4842H235.018H238.482H257.967L257.907 52.7054V52.7731C257.839 43.1961 254.104 33.8375 250.445 28.4542C248.721 25.9169 246.861 22.4987 242.103 22.4987H209.148L209.126 22.5213C209.05 22.5213 208.983 22.4987 208.907 22.4987H208.629C206.438 22.4987 204.375 24.5918 204.375 26.7828V28.0401V33.7773V66.1598H103.485V66.1673ZM248.533 78.9668C248.533 78.0482 249.278 77.4609 250.204 77.4609H253.419C254.338 77.4609 255.091 78.0482 255.091 78.9668C255.091 79.8853 254.345 80.4726 253.419 80.4726H250.204C249.286 80.4726 248.533 79.8853 248.533 78.9668ZM208.139 26.2633H222.445V25.5104H224.703V26.2633H243.293C254.308 33.7923 254.639 55.845 254.639 55.845C241.764 54.1284 231.939 52.1256 224.696 50.3186V50.3563H222.437V49.7314C212.423 47.0811 208.132 44.973 208.132 44.973V26.2633H208.139Z" fill="#C1C1C1"/>
<path d="M224.703 50.3562H222.445V49.7312C223.167 49.9195 223.92 50.1152 224.703 50.311V50.3486V50.3562Z" fill="#C1C1C1"/>
<path d="M224.703 25.5104H222.445V26.2633H224.703V25.5104Z" fill="#C1C1C1"/>
<path d="M224.703 26.2633V50.3187C223.92 50.123 223.167 49.9272 222.445 49.739V26.2709H224.703V26.2633Z" fill="#C1C1C1"/>
<path d="M107.295 22.4987H196.311C198.163 22.4987 199.85 24.3584 199.85 26.2106V38.2571V54.3166V62.3953H103.485V54.3166V38.2571V26.2106C103.485 24.3659 105.45 22.4987 107.295 22.4987Z" fill="#C1C1C1"/>
<path d="M124.04 71.5128C116.977 71.5128 111.255 77.2349 111.255 84.2972C111.255 91.3594 116.977 97.0815 124.04 97.0815C131.102 97.0815 136.817 91.3594 136.817 84.2972C136.817 77.2349 131.094 71.5128 124.04 71.5128ZM124.04 92.5942C119.455 92.5942 115.735 88.8748 115.735 84.2896C115.735 79.7044 119.455 75.9851 124.04 75.9851C128.625 75.9851 132.344 79.7044 132.344 84.2896C132.344 88.8748 128.625 92.5942 124.04 92.5942Z" fill="#C1C1C1"/>
<path d="M124.04 75.9928C119.454 75.9928 115.735 79.7122 115.735 84.2974C115.735 88.8826 119.454 92.6019 124.04 92.6019C128.625 92.6019 132.344 88.8826 132.344 84.2974C132.344 79.7122 128.625 75.9928 124.04 75.9928ZM124.04 86.7217C122.699 86.7217 121.615 85.6376 121.615 84.2974C121.615 82.9572 122.699 81.873 124.04 81.873C125.38 81.873 126.464 82.9572 126.464 84.2974C126.464 85.6376 125.38 86.7217 124.04 86.7217Z" fill="#C1C1C1"/>
<path d="M124.04 81.8654C122.7 81.8654 121.615 82.9496 121.615 84.2898C121.615 85.6299 122.7 86.7141 124.04 86.7141C125.38 86.7141 126.464 85.6299 126.464 84.2898C126.464 82.9496 125.38 81.8654 124.04 81.8654Z" fill="#C1C1C1"/>
<path d="M153.403 71.5128C146.341 71.5128 140.619 77.2349 140.619 84.2972C140.619 91.3594 146.341 97.0815 153.403 97.0815C160.466 97.0815 166.18 91.3594 166.18 84.2972C166.18 77.2349 160.458 71.5128 153.403 71.5128ZM153.403 92.5942C148.818 92.5942 145.099 88.8748 145.099 84.2896C145.099 79.7044 148.818 75.9851 153.403 75.9851C157.988 75.9851 161.708 79.7044 161.708 84.2896C161.708 88.8748 157.988 92.5942 153.403 92.5942Z" fill="#C1C1C1"/>
<path d="M153.403 75.9928C148.818 75.9928 145.099 79.7122 145.099 84.2974C145.099 88.8826 148.818 92.6019 153.403 92.6019C157.988 92.6019 161.708 88.8826 161.708 84.2974C161.708 79.7122 157.988 75.9928 153.403 75.9928ZM153.403 86.7217C152.063 86.7217 150.979 85.6376 150.979 84.2974C150.979 82.9572 152.063 81.873 153.403 81.873C154.743 81.873 155.828 82.9572 155.828 84.2974C155.828 85.6376 154.743 86.7217 153.403 86.7217Z" fill="#C1C1C1"/>
<path d="M153.403 81.8654C152.063 81.8654 150.979 82.9496 150.979 84.2898C150.979 85.6299 152.063 86.7141 153.403 86.7141C154.743 86.7141 155.827 85.6299 155.827 84.2898C155.827 82.9496 154.743 81.8654 153.403 81.8654Z" fill="#C1C1C1"/>
<path d="M218.906 71.5128C211.844 71.5128 206.122 77.2349 206.122 84.2972C206.122 91.3594 211.844 97.0815 218.906 97.0815C225.968 97.0815 231.683 91.3594 231.683 84.2972C231.683 77.2349 225.961 71.5128 218.906 71.5128ZM218.906 92.5942C214.321 92.5942 210.601 88.8748 210.601 84.2896C210.601 79.7044 214.321 75.9851 218.906 75.9851C223.491 75.9851 227.21 79.7044 227.21 84.2896C227.21 88.8748 223.491 92.5942 218.906 92.5942Z" fill="#E74C3C"/>
<path d="M218.906 75.9928C214.321 75.9928 210.601 79.7122 210.601 84.2974C210.601 88.8826 214.321 92.6019 218.906 92.6019C223.491 92.6019 227.21 88.8826 227.21 84.2974C227.21 79.7122 223.491 75.9928 218.906 75.9928ZM218.906 86.7217C217.566 86.7217 216.482 85.6376 216.482 84.2974C216.482 82.9572 217.566 81.873 218.906 81.873C220.246 81.873 221.33 82.9572 221.33 84.2974C221.33 85.6376 220.246 86.7217 218.906 86.7217Z" fill="#C1C1C1"/>
<path d="M218.906 81.8654C217.566 81.8654 216.481 82.9496 216.481 84.2898C216.481 85.6299 217.566 86.7141 218.906 86.7141C220.246 86.7141 221.33 85.6299 221.33 84.2898C221.33 82.9496 220.246 81.8654 218.906 81.8654Z" fill="#E74C3C"/>
<path d="M2.88951 22.4987H96.5888C98.4409 22.4987 99.7209 24.3584 99.7209 26.2106V38.2571V54.3166V62.3953H0.337158V54.3166V38.2571V26.2106C0.337158 24.3659 1.03736 22.4987 2.88951 22.4987Z" fill="#C1C1C1"/>
<path d="M245.303 20.2399C245.303 20.2399 241.252 0.543842 204.548 0.634191C204.548 0.634191 203.517 15.0448 205.113 17.7779C205.113 17.7779 206.34 20.2399 207.846 20.2399C209.352 20.2399 245.303 20.2399 245.303 20.2399Z" fill="#C1C1C1"/>
</svg>
