<svg width="109" height="16" viewBox="0 0 109 16" fill="none" xmlns="http://www.w3.org/2000/svg">
<path d="M1 7.20557C0.447715 7.20557 4.82823e-08 7.65328 0 8.20557C-4.82823e-08 8.75785 0.447715 9.20557 1 9.20557L1 7.20557ZM108.707 8.91268C109.098 8.52216 109.098 7.88899 108.707 7.49847L102.343 1.13451C101.953 0.743983 101.319 0.743983 100.929 1.13451C100.538 1.52503 100.538 2.1582 100.929 2.54872L106.586 8.20558L100.929 13.8624C100.538 14.253 100.538 14.8861 100.929 15.2766C101.319 15.6672 101.953 15.6672 102.343 15.2766L108.707 8.91268ZM1 9.20557L108 9.20558L108 7.20558L1 7.20557L1 9.20557Z" fill="#343838"/>
</svg>
