<svg width="344" height="290" viewBox="0 0 344 290" fill="none" xmlns="http://www.w3.org/2000/svg">
<path d="M116.041 289.583C94.6436 289.583 77.2837 272.165 77.2837 250.826C77.2837 229.486 94.7013 212.011 116.041 212.011C137.38 212.011 154.856 229.428 154.856 250.826C154.856 272.223 137.438 289.583 116.041 289.583Z" fill="#E6E6E6"/>
<path d="M290.159 289.583C268.761 289.583 251.344 272.165 251.344 250.826C251.344 229.486 268.761 212.011 290.159 212.011C311.556 212.011 328.916 229.428 328.916 250.826C328.916 272.223 311.498 289.583 290.159 289.583Z" fill="#E6E6E6"/>
<path d="M290.159 256.765H124.691C120.077 256.765 115.636 254.516 112.926 250.767C110.157 246.961 109.407 242.116 110.792 237.675L132.996 183.058C134.265 180.001 137.726 178.501 140.782 179.77C143.839 181.039 145.281 184.5 144.07 187.556L121.98 241.712C121.865 242.059 121.98 242.981 122.5 243.673C123.019 244.365 123.768 244.769 124.633 244.769H290.101C293.388 244.769 296.099 247.422 296.099 250.767C296.099 254.112 293.446 256.765 290.101 256.765H290.159Z" fill="#E6E6E6"/>
<path d="M341.201 39.3337C338.433 35.5849 334.05 33.3933 329.436 33.3933H80.1676L68.4597 6.63244C67.4792 4.44082 65.3453 3.05664 62.9806 3.05664H7.61336C4.32592 3.05664 1.61523 5.70966 1.61523 8.99709C1.61523 12.2845 4.26825 14.9952 7.61336 14.9952H59.0588L132.132 182.481C134.439 187.845 139.687 191.305 145.57 191.305H288.775C295.177 191.305 300.772 187.211 302.732 181.097L343.335 52.3681C344.719 47.9272 343.912 43.0826 341.201 39.3337ZM276.606 156.701H154.279C150.992 156.701 148.281 154.048 148.281 150.703C148.281 147.358 150.934 144.705 154.279 144.705H276.548C279.836 144.705 282.547 147.358 282.547 150.703C282.547 154.048 279.893 156.701 276.548 156.701H276.606ZM287.045 118.924H143.898C140.61 118.924 137.899 116.271 137.899 112.926C137.899 109.581 140.552 106.928 143.898 106.928H287.045C290.333 106.928 293.043 109.581 293.043 112.926C293.043 116.271 290.39 118.924 287.045 118.924ZM295.581 81.1476H135.304C132.017 81.1476 129.306 78.4946 129.306 75.1494C129.306 71.8043 131.959 69.1513 135.304 69.1513H295.581C298.868 69.1513 301.579 71.8043 301.579 75.1494C301.579 78.4946 298.926 81.1476 295.581 81.1476Z" fill="#E6E6E6"/>
<path d="M18.8595 9.45858C18.8595 14.6493 14.6493 18.8595 9.4009 18.8595C4.15255 18.8595 0 14.6493 0 9.45858C0 4.26789 4.21022 0 9.4009 0C14.5916 0 18.8595 4.21022 18.8595 9.45858Z" fill="#E6E6E6"/>
</svg>
