<svg width="122" height="44" viewBox="0 0 122 44" fill="none" xmlns="http://www.w3.org/2000/svg">
<path d="M42.2241 1.6516C42.7272 1.6516 43.1533 1.66704 43.5024 1.69792C43.8618 1.71851 44.1904 1.75454 44.4881 1.80601C44.7859 1.85747 45.0939 1.92953 45.4122 2.02218L45.2274 3.75153C44.8886 3.73095 44.5754 3.71551 44.2879 3.70521C44.0107 3.69492 43.7078 3.68977 43.3792 3.68977C43.0609 3.67948 42.6759 3.67433 42.2241 3.67433C41.7005 3.67433 41.2898 3.77727 40.992 3.98314C40.7045 4.18902 40.4992 4.5493 40.376 5.06399C40.2527 5.56839 40.1911 6.26837 40.1911 7.16393C40.1911 8.05949 40.2527 8.76461 40.376 9.2793C40.4992 9.7837 40.7045 10.1388 40.992 10.3447C41.2898 10.5506 41.7005 10.6535 42.2241 10.6535C42.9326 10.6535 43.5281 10.6432 44.0107 10.6226C44.4933 10.6021 44.9707 10.566 45.443 10.5146L45.6432 12.2439C45.1504 12.3983 44.6473 12.5064 44.1339 12.5682C43.6205 12.6402 42.9839 12.6763 42.2241 12.6763C41.1255 12.6763 40.2425 12.5013 39.5751 12.1513C38.918 11.791 38.4405 11.2094 38.1427 10.4065C37.8553 9.60356 37.7115 8.52271 37.7115 7.16393C37.7115 5.80515 37.8553 4.7243 38.1427 3.92138C38.4405 3.11847 38.918 2.54201 39.5751 2.19202C40.2425 1.83174 41.1255 1.6516 42.2241 1.6516Z" fill="#E6E6E6"/>
<path d="M48.768 4.86326L49.0453 6.37645L49.2609 6.57718V12.491H46.9815V4.86326H48.768ZM52.4798 4.66253L52.2642 6.77791H51.6327C51.2733 6.77791 50.8986 6.82938 50.5084 6.93232C50.1182 7.03525 49.6254 7.18966 49.0299 7.39554L48.8758 6.11396C49.4098 5.64044 49.9488 5.28016 50.493 5.03311C51.0372 4.78606 51.566 4.66253 52.0793 4.66253H52.4798Z" fill="#E6E6E6"/>
<path d="M57.0377 4.66253C58.3212 4.66253 59.2401 4.88385 59.7946 5.32648C60.3593 5.75882 60.6417 6.40733 60.6417 7.27201C60.6519 7.97199 60.4774 8.49697 60.118 8.84696C59.7587 9.18666 59.1375 9.35651 58.2545 9.35651H54.0037V8.07493H57.623C57.9721 8.07493 58.1929 8.00287 58.2853 7.85876C58.3879 7.70435 58.4393 7.49333 58.4393 7.22569C58.429 6.86541 58.3212 6.61836 58.1158 6.48454C57.9208 6.34042 57.5871 6.26837 57.1148 6.26837C56.6938 6.26837 56.3652 6.32498 56.1291 6.43821C55.8929 6.55145 55.7286 6.76761 55.6362 7.08672C55.5438 7.40583 55.4976 7.86905 55.4976 8.47639C55.4976 9.1146 55.5541 9.6087 55.667 9.95869C55.78 10.2984 55.9699 10.5351 56.2369 10.669C56.5141 10.8028 56.894 10.8697 57.3766 10.8697C57.7257 10.8697 58.1569 10.8594 58.6703 10.8388C59.1939 10.8079 59.7176 10.7616 60.2412 10.6998L60.4569 12.1049C60.1591 12.2491 59.8203 12.3623 59.4404 12.4446C59.0605 12.527 58.6703 12.5836 58.2699 12.6145C57.8694 12.6557 57.4844 12.6763 57.1148 12.6763C56.1496 12.6763 55.3693 12.5373 54.7737 12.2594C54.1885 11.9711 53.7624 11.5336 53.4954 10.9469C53.2387 10.3601 53.1104 9.6087 53.1104 8.69255C53.1104 7.69406 53.2439 6.90143 53.5108 6.31469C53.7778 5.72794 54.1988 5.3059 54.7737 5.04855C55.3487 4.79121 56.1034 4.66253 57.0377 4.66253Z" fill="#E6E6E6"/>
<path d="M66.147 4.66253C66.7835 4.66253 67.3226 4.75003 67.7641 4.92503C68.2056 5.08973 68.5393 5.37795 68.7652 5.7897C69.0013 6.19116 69.1194 6.74703 69.1194 7.4573V12.491H67.3021L66.9786 10.8388L66.8246 10.6072V7.44186C66.8246 7.08158 66.7373 6.81908 66.5628 6.65438C66.3985 6.48968 66.0802 6.40733 65.6079 6.40733C65.2177 6.40733 64.73 6.42277 64.1448 6.45365C63.5595 6.47424 62.9589 6.50512 62.3428 6.5463L62.1272 5.03311C62.4968 4.96105 62.9229 4.89929 63.4055 4.84782C63.8881 4.79635 64.3707 4.75518 64.8532 4.7243C65.3358 4.68312 65.7671 4.66253 66.147 4.66253ZM68.1799 7.79699L68.1645 9.07857L64.7762 9.09401C64.499 9.09401 64.2988 9.16092 64.1756 9.29474C64.0626 9.42856 64.0062 9.6087 64.0062 9.83517V10.2057C64.0062 10.4631 64.078 10.6638 64.2218 10.8079C64.3655 10.9417 64.5965 11.0087 64.9148 11.0087C65.1818 11.0087 65.4693 10.952 65.7773 10.8388C66.0956 10.7256 66.4088 10.566 66.7168 10.3601C67.0248 10.1543 67.2969 9.91237 67.5331 9.63444V10.6226C67.4407 10.777 67.3021 10.9726 67.1172 11.2094C66.9427 11.4359 66.7168 11.6623 66.4396 11.8888C66.1624 12.1049 65.8389 12.2902 65.4693 12.4446C65.0997 12.5991 64.6787 12.6763 64.2064 12.6763C63.7443 12.6763 63.3285 12.5939 62.9589 12.4292C62.5892 12.2645 62.2966 12.0226 62.081 11.7035C61.8654 11.3844 61.7576 10.9881 61.7576 10.5146V9.72708C61.7576 9.11975 61.9629 8.64623 62.3736 8.30654C62.7843 7.96684 63.349 7.79699 64.0678 7.79699H68.1799Z" fill="#E6E6E6"/>
<path d="M73.8833 2.74789V10.0513C73.8833 10.3293 73.9449 10.53 74.0681 10.6535C74.2016 10.7668 74.4172 10.8234 74.715 10.8234H75.7006L75.9471 12.3674C75.7622 12.4292 75.5364 12.4807 75.2694 12.5218C75.0024 12.5733 74.7355 12.6093 74.4685 12.6299C74.2016 12.6608 73.9757 12.6763 73.7909 12.6763C73.1029 12.6763 72.5639 12.491 72.1737 12.1204C71.7938 11.7498 71.6039 11.23 71.6039 10.5609L71.5885 2.74789H73.8833ZM76.0087 4.86326V6.36101H70.2639V4.94047L71.7425 4.86326H76.0087Z" fill="#E6E6E6"/>
<path d="M79.5534 4.86326V12.491H77.2894V4.86326H79.5534ZM78.9219 1.49719C79.3737 1.49719 79.5996 1.7288 79.5996 2.19202V3.01038C79.5996 3.4736 79.3737 3.70521 78.9219 3.70521H77.9362C77.4845 3.70521 77.2586 3.4736 77.2586 3.01038V2.19202C77.2586 1.7288 77.4845 1.49719 77.9362 1.49719H78.9219Z" fill="#E6E6E6"/>
<path d="M89.1541 4.86326L86.6437 11.9505C86.5821 12.1152 86.4846 12.2491 86.3511 12.352C86.2279 12.4446 86.079 12.491 85.9044 12.491H83.9177C83.7431 12.491 83.5891 12.4446 83.4556 12.352C83.3324 12.2491 83.24 12.1152 83.1784 11.9505L80.668 4.86326H83.086L84.4875 9.63444C84.5491 9.8609 84.6056 10.0925 84.6569 10.3293C84.7083 10.566 84.7596 10.7925 84.8109 11.0087H85.0111C85.0728 10.7822 85.1292 10.5557 85.1806 10.3293C85.2422 10.0925 85.3038 9.8609 85.3654 9.63444L86.7361 4.86326H89.1541Z" fill="#E6E6E6"/>
<path d="M93.6763 4.66253C94.9597 4.66253 95.8786 4.88385 96.4331 5.32648C96.9978 5.75882 97.2802 6.40733 97.2802 7.27201C97.2904 7.97199 97.1159 8.49697 96.7565 8.84696C96.3972 9.18666 95.776 9.35651 94.893 9.35651H90.6422V8.07493H94.2615C94.6106 8.07493 94.8313 8.00287 94.9238 7.85876C95.0264 7.70435 95.0778 7.49333 95.0778 7.22569C95.0675 6.86541 94.9597 6.61836 94.7543 6.48454C94.5593 6.34042 94.2256 6.26837 93.7533 6.26837C93.3323 6.26837 93.0037 6.32498 92.7676 6.43821C92.5314 6.55145 92.3671 6.76761 92.2747 7.08672C92.1823 7.40583 92.1361 7.86905 92.1361 8.47639C92.1361 9.1146 92.1926 9.6087 92.3055 9.95869C92.4185 10.2984 92.6084 10.5351 92.8754 10.669C93.1526 10.8028 93.5325 10.8697 94.0151 10.8697C94.3642 10.8697 94.7954 10.8594 95.3088 10.8388C95.8324 10.8079 96.3561 10.7616 96.8797 10.6998L97.0954 12.1049C96.7976 12.2491 96.4588 12.3623 96.0789 12.4446C95.699 12.527 95.3088 12.5836 94.9084 12.6145C94.5079 12.6557 94.1229 12.6763 93.7533 12.6763C92.7881 12.6763 92.0078 12.5373 91.4122 12.2594C90.827 11.9711 90.4009 11.5336 90.1339 10.9469C89.8772 10.3601 89.7489 9.6087 89.7489 8.69255C89.7489 7.69406 89.8824 6.90143 90.1493 6.31469C90.4163 5.72794 90.8373 5.3059 91.4122 5.04855C91.9872 4.79121 92.7419 4.66253 93.6763 4.66253Z" fill="#E6E6E6"/>
<path d="M41.5773 16.6042C42.1009 16.6042 42.6708 16.6351 43.2868 16.6968C43.9029 16.7483 44.5035 16.8615 45.0888 17.0365L44.9348 18.596C44.483 18.5857 43.9542 18.5754 43.3484 18.5651C42.7426 18.5548 42.1471 18.5497 41.5619 18.5497C41.2744 18.5497 41.0279 18.56 40.8226 18.5806C40.6275 18.5909 40.4684 18.6321 40.3451 18.7041C40.2219 18.7659 40.1347 18.8637 40.0833 18.9975C40.032 19.1313 40.0063 19.3166 40.0063 19.5533C40.0063 19.9136 40.0885 20.1761 40.2527 20.3408C40.4273 20.5055 40.7199 20.6548 41.1306 20.7886L43.179 21.4526C44.0312 21.7408 44.6216 22.1319 44.9502 22.626C45.2787 23.1201 45.443 23.7687 45.443 24.5716C45.443 25.1789 45.3711 25.6833 45.2274 26.0848C45.0836 26.4862 44.8578 26.8002 44.5497 27.0266C44.2417 27.2531 43.8361 27.4127 43.333 27.5053C42.8299 27.6082 42.2139 27.6597 41.4849 27.6597C41.1358 27.6597 40.6378 27.634 39.9909 27.5825C39.3441 27.5413 38.6048 27.4281 37.7731 27.2428L37.9271 25.5752C38.5329 25.5855 39.0566 25.601 39.4981 25.6215C39.9498 25.6318 40.3349 25.6421 40.6532 25.6524C40.9715 25.6524 41.2487 25.6524 41.4849 25.6524C41.8956 25.6524 42.2139 25.6267 42.4397 25.5752C42.6759 25.5238 42.8402 25.4208 42.9326 25.2664C43.025 25.112 43.0712 24.8907 43.0712 24.6025C43.0712 24.3554 43.0353 24.1598 42.9634 24.0157C42.9018 23.8613 42.794 23.7429 42.64 23.6606C42.4962 23.5679 42.296 23.4856 42.0393 23.4135L39.8831 22.6724C39.072 22.3738 38.497 21.9827 38.1581 21.4989C37.8193 21.0151 37.6499 20.3769 37.6499 19.5842C37.6499 18.9666 37.7218 18.4674 37.8655 18.0865C38.0195 17.6953 38.2506 17.3917 38.5586 17.1755C38.8769 16.9593 39.2825 16.8101 39.7753 16.7277C40.2784 16.6454 40.8791 16.6042 41.5773 16.6042Z" fill="#E6E6E6"/>
<path d="M49.277 19.8313V27.459H47.013V19.8313H49.277ZM48.6455 16.4652C49.0973 16.4652 49.3232 16.6968 49.3232 17.16V17.9784C49.3232 18.4416 49.0973 18.6732 48.6455 18.6732H47.6599C47.2081 18.6732 46.9822 18.4416 46.9822 17.9784V17.16C46.9822 16.6968 47.2081 16.4652 47.6599 16.4652H48.6455Z" fill="#E6E6E6"/>
<path d="M54.5961 19.6306C55.4792 19.6306 56.1774 19.7129 56.6907 19.8776C57.2144 20.0423 57.5891 20.2996 57.815 20.6496C58.0512 20.9996 58.1693 21.468 58.1693 22.0547C58.1693 22.6209 58.0563 23.0841 57.8304 23.4444C57.6045 23.7944 57.2246 24.0517 56.6907 24.2164C56.1671 24.3811 55.4638 24.4635 54.5807 24.4635C53.6977 24.4635 52.9893 24.3811 52.4553 24.2164C51.9317 24.0517 51.5518 23.7944 51.3156 23.4444C51.0898 23.0944 50.9768 22.6312 50.9768 22.0547C50.9768 21.4783 51.0898 21.0151 51.3156 20.6651C51.5518 20.3048 51.9368 20.0423 52.4707 19.8776C53.0047 19.7129 53.7131 19.6306 54.5961 19.6306ZM54.5807 21.0357C54.016 21.0357 53.6259 21.1129 53.4102 21.2673C53.1946 21.4114 53.0868 21.6739 53.0868 22.0547C53.0868 22.4356 53.1946 22.7033 53.4102 22.8577C53.6259 23.0121 54.016 23.0893 54.5807 23.0893C55.1455 23.0893 55.5305 23.0121 55.7358 22.8577C55.9412 22.7033 56.0439 22.4356 56.0439 22.0547C56.0439 21.6739 55.9412 21.4114 55.7358 21.2673C55.5305 21.1129 55.1455 21.0357 54.5807 21.0357ZM59.0471 19.8313L58.9239 20.804L56.8909 21.0665L56.3365 19.8313H59.0471ZM52.2859 24.0003L53.4256 24.201C53.2819 24.2833 53.1792 24.412 53.1176 24.587C53.0663 24.762 53.0817 24.9267 53.1638 25.0811C53.246 25.2355 53.4256 25.3282 53.7029 25.359L56.5059 25.6833C57.3068 25.7657 57.8715 25.9921 58.2001 26.3627C58.5286 26.723 58.6929 27.2531 58.6929 27.9531C58.6929 28.6119 58.5594 29.1163 58.2925 29.4663C58.0255 29.8266 57.5994 30.0736 57.0142 30.2074C56.4289 30.3412 55.6486 30.4082 54.6731 30.4082C53.8723 30.4082 53.21 30.367 52.6864 30.2846C52.173 30.2126 51.7623 30.089 51.4543 29.9141C51.1565 29.7391 50.946 29.5074 50.8228 29.2192C50.7099 28.9413 50.6534 28.5913 50.6534 28.1693C50.6534 27.8501 50.7099 27.5774 50.8228 27.3509C50.9357 27.1141 51.1257 26.9031 51.3926 26.7178C51.6699 26.5325 52.0549 26.3627 52.5478 26.2083L53.6721 25.8068L54.4883 26.1311L53.8723 26.5325C53.6156 26.7178 53.4051 26.8774 53.2408 27.0112C53.0868 27.1347 52.9739 27.2583 52.902 27.3818C52.8404 27.5053 52.8096 27.67 52.8096 27.8759C52.8096 28.1126 52.8609 28.2928 52.9636 28.4163C53.0663 28.5501 53.2511 28.6376 53.518 28.6788C53.7953 28.7303 54.17 28.756 54.6423 28.756C55.1352 28.756 55.5202 28.7303 55.7975 28.6788C56.0747 28.6376 56.2646 28.5553 56.3673 28.4317C56.4802 28.3082 56.5367 28.1332 56.5367 27.9068C56.5367 27.7112 56.4956 27.5671 56.4135 27.4744C56.3416 27.3818 56.2133 27.3149 56.0285 27.2737C55.8539 27.2222 55.6075 27.1759 55.2892 27.1347L52.902 26.8722C52.5016 26.8311 52.1884 26.723 51.9625 26.548C51.7366 26.373 51.5775 26.162 51.4851 25.9149C51.4029 25.6576 51.3824 25.4002 51.4235 25.1429C51.4645 24.8855 51.5569 24.6539 51.7007 24.448C51.8547 24.2422 52.0498 24.0929 52.2859 24.0003Z" fill="#E6E6E6"/>
<path d="M65.455 19.6306C66.8924 19.6306 67.6112 20.3357 67.6112 21.7459V27.459H65.3164V22.4562C65.3164 22.1165 65.2548 21.8849 65.1315 21.7614C65.0186 21.6275 64.8132 21.5606 64.5155 21.5606C64.1869 21.5606 63.8481 21.6224 63.499 21.7459C63.1499 21.8695 62.7187 22.0702 62.2053 22.3481L62.0051 21.1592C62.5698 20.6651 63.1448 20.2894 63.73 20.032C64.3153 19.7644 64.8903 19.6306 65.455 19.6306ZM62.4363 16.6505L62.4517 19.2909C62.4517 19.6923 62.426 20.0732 62.3747 20.4335C62.3336 20.7938 62.2823 21.0974 62.2207 21.3445L62.4363 21.5452V27.459H60.1569V16.6505H62.4363Z" fill="#E6E6E6"/>
<path d="M72.3792 17.7159V25.0194C72.3792 25.2973 72.4408 25.498 72.564 25.6215C72.6975 25.7348 72.9131 25.7914 73.2109 25.7914H74.1966L74.443 27.3355C74.2582 27.3972 74.0323 27.4487 73.7654 27.4899C73.4984 27.5413 73.2314 27.5774 72.9645 27.5979C72.6975 27.6288 72.4716 27.6443 72.2868 27.6443C71.5989 27.6443 71.0598 27.459 70.6697 27.0884C70.2898 26.7178 70.0998 26.198 70.0998 25.5289L70.0844 17.7159H72.3792ZM74.5046 19.8313V21.329H68.7599V19.9085L70.2384 19.8313H74.5046Z" fill="#E6E6E6"/>
<path d="M83.5757 16.5887C84.0377 16.5887 84.4587 16.6042 84.8386 16.6351C85.2185 16.6659 85.5779 16.7071 85.9167 16.7586C86.2658 16.8101 86.6046 16.8873 86.9332 16.9902L86.7484 18.7041C86.389 18.6835 86.0399 18.6681 85.7011 18.6578C85.3623 18.6475 85.0234 18.6423 84.6846 18.6423C84.3458 18.6321 83.9915 18.6269 83.6219 18.6269C83.1804 18.6269 82.8107 18.6732 82.513 18.7659C82.2255 18.8585 81.9945 19.0335 81.8199 19.2909C81.6454 19.5379 81.517 19.8982 81.4349 20.3717C81.363 20.8349 81.3271 21.432 81.3271 22.1628C81.3271 23.0481 81.3836 23.7429 81.4965 24.2473C81.6094 24.7517 81.7994 25.112 82.0664 25.3282C82.3333 25.534 82.6927 25.637 83.1445 25.637C83.4525 25.637 83.7348 25.6061 83.9915 25.5443C84.2482 25.4826 84.4844 25.4002 84.7 25.2973C84.9156 25.1841 85.1158 25.076 85.3006 24.973L85.5471 26.0848C85.3931 26.3009 85.162 26.5325 84.854 26.7796C84.5562 27.0266 84.1917 27.2377 83.7605 27.4127C83.3293 27.5877 82.8364 27.6752 82.282 27.6752C81.4811 27.6752 80.824 27.4847 80.3106 27.1038C79.8075 26.723 79.4378 26.1259 79.2017 25.3127C78.9655 24.4892 78.8475 23.4238 78.8475 22.1165C78.8475 20.7268 78.9963 19.6306 79.2941 18.8276C79.6021 18.0247 80.1001 17.4534 80.788 17.1137C81.4862 16.7637 82.4154 16.5887 83.5757 16.5887ZM87.3028 21.3136V27.459H85.5625L85.239 25.8377L85.0234 25.4054V21.3136H87.3028Z" fill="#E6E6E6"/>
<path d="M90.8211 19.8313L91.0983 21.3445L91.3139 21.5452V27.459H89.0345V19.8313H90.8211ZM94.5328 19.6306L94.3172 21.7459H93.6858C93.3264 21.7459 92.9516 21.7974 92.5614 21.9003C92.1713 22.0033 91.6784 22.1577 91.0829 22.3636L90.9289 21.082C91.4628 20.6085 92.0019 20.2482 92.546 20.0011C93.0902 19.7541 93.619 19.6306 94.1324 19.6306H94.5328Z" fill="#E6E6E6"/>
<path d="M99.1062 19.6306C100.061 19.6306 100.826 19.7644 101.401 20.032C101.976 20.2894 102.387 20.7114 102.633 21.2981C102.89 21.8849 103.018 22.6724 103.018 23.6606C103.018 24.6282 102.89 25.4054 102.633 25.9921C102.387 26.5789 101.976 27.0009 101.401 27.2583C100.826 27.5156 100.061 27.6443 99.1062 27.6443C98.1616 27.6443 97.3967 27.5156 96.8114 27.2583C96.2364 27.0009 95.8206 26.5789 95.5639 25.9921C95.3072 25.4054 95.1788 24.6282 95.1788 23.6606C95.1788 22.6724 95.3072 21.8849 95.5639 21.2981C95.8206 20.7114 96.2364 20.2894 96.8114 20.032C97.3967 19.7644 98.1616 19.6306 99.1062 19.6306ZM99.1062 21.2981C98.716 21.2981 98.408 21.3651 98.1821 21.4989C97.9562 21.6327 97.7971 21.8694 97.7047 22.2091C97.6123 22.5488 97.5661 23.0326 97.5661 23.6606C97.5661 24.2782 97.6123 24.7569 97.7047 25.0966C97.7971 25.4363 97.9562 25.673 98.1821 25.8068C98.408 25.9304 98.716 25.9921 99.1062 25.9921C99.4964 25.9921 99.8044 25.9304 100.03 25.8068C100.256 25.673 100.415 25.4363 100.508 25.0966C100.6 24.7569 100.646 24.2782 100.646 23.6606C100.646 23.0326 100.6 22.5488 100.508 22.2091C100.415 21.8694 100.256 21.6327 100.03 21.4989C99.8044 21.3651 99.4964 21.2981 99.1062 21.2981Z" fill="#E6E6E6"/>
<path d="M106.804 19.8313V24.8495C106.804 25.1686 106.871 25.3951 107.005 25.5289C107.148 25.6627 107.374 25.7296 107.682 25.7296C108.001 25.7296 108.314 25.673 108.622 25.5598C108.94 25.4363 109.33 25.2458 109.792 24.9885L109.977 26.2392C109.423 26.723 108.879 27.0833 108.345 27.32C107.811 27.5568 107.261 27.6752 106.697 27.6752C105.249 27.6752 104.525 26.9649 104.525 25.5443V19.8313H106.804ZM111.841 19.8313V27.459H110.039L109.777 25.9612L109.561 25.7451V19.8313H111.841Z" fill="#E6E6E6"/>
<path d="M118.706 19.646C119.661 19.646 120.344 19.996 120.755 20.696C121.165 21.3959 121.371 22.3996 121.371 23.7069C121.371 24.726 121.263 25.5237 121.047 26.1002C120.842 26.6767 120.524 27.0833 120.092 27.32C119.671 27.5465 119.143 27.6597 118.506 27.6597C117.962 27.6597 117.443 27.5825 116.951 27.4281C116.458 27.2737 116.021 27.0164 115.641 26.6561L115.795 25.637C116.134 25.7399 116.442 25.8326 116.72 25.9149C117.007 25.987 117.33 26.023 117.69 26.023C118.018 26.023 118.28 25.9664 118.475 25.8532C118.67 25.7399 118.809 25.5186 118.891 25.1892C118.984 24.8495 119.03 24.3605 119.03 23.7223C119.03 23.0944 118.989 22.6158 118.907 22.2864C118.824 21.9467 118.691 21.715 118.506 21.5915C118.321 21.4577 118.08 21.3908 117.782 21.3908C117.454 21.3908 117.151 21.4577 116.874 21.5915C116.596 21.715 116.283 21.8952 115.934 22.1319L115.641 21.082C115.847 20.804 116.109 20.557 116.427 20.3408C116.755 20.1247 117.115 19.9548 117.505 19.8313C117.895 19.7078 118.296 19.646 118.706 19.646ZM115.549 19.8313L115.765 21.2209L115.98 21.4526V26.409L115.903 26.5943C115.934 26.9031 115.955 27.2222 115.965 27.5516C115.985 27.8913 115.991 28.2259 115.98 28.5553V30.3927H113.701V19.8313H115.549Z" fill="#E6E6E6"/>
<path d="M9.80076 20.3641C9.95001 22.8777 9.95001 25.975 9.80076 29.6256C6.81513 28.249 4.51573 26.3489 2.91827 23.9101C1.14182 21.157 0.394999 17.9253 0.649178 14.1847C0.84332 11.2819 1.82861 8.67892 3.62021 6.35988C5.20252 4.3102 7.20341 2.69407 9.66664 1.49744C9.68123 1.51262 9.69639 1.54242 9.72612 1.55704C9.77101 1.57222 9.78561 1.58684 9.80076 1.58684C9.96516 4.63916 9.96516 7.69147 9.80076 10.7584C8.51695 10.998 7.57655 11.0727 6.97897 10.9232C6.81457 10.6538 6.73995 10.1151 6.81457 9.32222C6.87461 8.49953 6.84431 7.99063 6.73994 7.75108C6.24729 7.91584 5.70976 8.51415 5.11275 9.57639C3.73917 11.9854 3.29142 14.8431 3.8138 18.1643C4.14205 20.4535 5.09759 22.2636 6.65016 23.6256C6.82915 23.386 6.90379 22.9075 6.84431 22.1742C6.79943 21.2318 6.78483 20.6329 6.81457 20.3635C7.81502 20.1988 8.80031 20.1988 9.80019 20.3635L9.80076 20.3641Z" fill="#E6E6E6"/>
<path d="M20.6989 13.9904C20.8336 19.3167 20.8336 24.6583 20.6989 29.9998C19.4448 30.5233 17.9371 30.7629 16.1601 30.7781C14.3534 30.7781 12.8609 30.5385 11.6814 29.9998C11.4721 27.89 11.4575 24.6133 11.6068 20.1698C12.1589 19.9156 13.1296 19.8852 14.5178 20.0798C14.5773 20.2148 14.5773 21.6211 14.5178 24.2989C14.4729 26.334 14.5026 27.4558 14.6076 27.6504C14.7866 27.9496 15.2197 28.1143 15.9363 28.0991C16.5333 28.0991 17.0562 28.0092 17.5337 27.8146C17.7873 24.5379 17.8322 20.9469 17.6684 17.0871C17.086 16.9077 16.1158 16.8779 14.7271 16.9077C13.234 16.9375 12.219 16.9077 11.6814 16.8329C11.5322 8.58864 11.5024 3.18748 11.6068 0.644074C12.8014 0.195337 14.3242 -0.0144148 16.1455 0.00076808C17.8923 0.0159509 19.3999 0.240323 20.6989 0.644074C20.8336 3.99555 20.8336 7.33183 20.6989 10.6389C19.7585 10.8183 18.8029 10.8183 17.8474 10.6389C17.7727 9.72622 17.743 8.4846 17.743 6.91346C17.7582 4.78899 17.7727 3.51701 17.7727 3.08345C17.4888 2.8439 16.9962 2.69432 16.3094 2.6797C15.6226 2.66508 15.0851 2.72468 14.6822 2.90406C14.5924 4.08608 14.5627 5.86641 14.5778 8.20063C14.593 11.2681 14.6076 13.0485 14.6076 13.572C14.9358 13.7216 16.2948 13.8115 18.6683 13.9009L20.6989 13.9909V13.9904Z" fill="#E6E6E6"/>
<path d="M25.8795 27.6062C24.4913 28.6836 23.3714 29.3415 22.4607 29.5361V1.94607C22.4607 1.82629 22.5353 1.73688 22.6251 1.69189C26.7155 3.47222 29.4178 6.52453 30.7319 10.8635C29.4481 10.9978 28.5077 11.0428 27.9101 10.9534C27.6862 10.7589 27.3726 10.1903 26.9248 9.27769C26.5814 8.54442 26.1786 8.06588 25.7156 7.85613C25.4317 11.6417 25.3874 16.8933 25.5367 23.626C26.1039 23.3719 26.7458 22.4738 27.4927 20.9331C28.1346 19.6015 28.4931 18.4346 28.5228 17.4618C28.5077 17.2824 28.3136 17.1924 27.9556 17.1924C27.4927 17.1924 27.239 17.1773 27.179 17.1328C27.0146 16.1904 27.0146 15.2327 27.179 14.2903C28.6272 14.1407 30.09 14.1407 31.5236 14.2903C31.8967 19.841 30.0159 24.2699 25.8806 27.6062H25.8795Z" fill="#E6E6E6"/>
<path d="M3.9023 41.7645C3.26735 41.7645 2.70736 41.6278 2.22233 41.3544C1.7373 41.081 1.35368 40.7106 1.07148 40.2432C0.798098 39.7758 0.661407 39.2511 0.661407 38.6691C0.661407 38.0606 0.806916 37.5182 1.09794 37.042C1.38895 36.557 1.78139 36.1734 2.27524 35.8912C2.76909 35.6002 3.32467 35.4547 3.94198 35.4547C4.34765 35.4547 4.72245 35.5164 5.06638 35.6398C5.41913 35.7633 5.7366 35.9397 6.0188 36.169L5.5029 36.7113C5.29125 36.4997 5.04433 36.3365 4.76213 36.2219C4.48875 36.1072 4.19332 36.0499 3.87584 36.0499C3.43491 36.0499 3.03365 36.1602 2.67208 36.3806C2.31051 36.5923 2.02391 36.8877 1.81225 37.2669C1.60942 37.6461 1.50801 38.0915 1.50801 38.6029C1.50801 39.0968 1.60942 39.5377 1.81225 39.9258C2.02391 40.305 2.31492 40.6048 2.68531 40.8253C3.06452 41.0369 3.50105 41.1427 3.9949 41.1427C4.33883 41.1427 4.64749 41.0942 4.92087 40.9972C5.20307 40.8914 5.44999 40.7459 5.66164 40.5607L6.05849 41.0766C5.76747 41.2971 5.44117 41.469 5.0796 41.5925C4.71804 41.7072 4.3256 41.7645 3.9023 41.7645Z" fill="#E6E6E6"/>
<path d="M9.30217 41.6851V35.534H10.0959V41.6851H9.30217ZM6.81528 36.169V35.534H12.596V36.169H6.81528Z" fill="#E6E6E6"/>
<path d="M15.1669 41.7909C14.9993 41.7909 14.8318 41.7689 14.6642 41.7248C14.4967 41.6895 14.3291 41.6366 14.1615 41.566L14.36 41.1163C14.4834 41.1516 14.5893 41.178 14.6774 41.1957C14.7656 41.2133 14.8494 41.2221 14.9288 41.2221C15.308 41.2221 15.5946 41.0942 15.7886 40.8385C15.9826 40.5739 16.181 40.2124 16.3839 39.7538L18.2887 35.534H19.1486L16.9527 40.0316C16.8028 40.3491 16.6528 40.6445 16.5029 40.9179C16.353 41.1824 16.1722 41.3941 15.9606 41.5528C15.7577 41.7116 15.4932 41.7909 15.1669 41.7909ZM16.1458 40.6269L13.4208 35.534H14.2806L16.5558 40.111L16.1458 40.6269Z" fill="#E6E6E6"/>
<path d="M20.3693 41.6851C20.6603 41.156 20.8808 40.5651 21.0307 39.9125C21.1894 39.2599 21.3085 38.5677 21.3878 37.8357C21.4672 37.0949 21.5333 36.3277 21.5863 35.534H22.2609C22.208 36.3277 22.1418 37.0949 22.0625 37.8357C21.9919 38.5677 21.8817 39.2599 21.7318 39.9125C21.5907 40.5651 21.3834 41.156 21.11 41.6851H20.3693ZM19.7079 43.9339L19.6153 41.1031H20.4089L20.3164 43.9339H19.7079ZM19.893 41.6851L19.7872 41.1031H26.6791L26.3484 41.6851H19.893ZM25.9912 43.9339L25.9119 41.1031H26.6791L26.5865 43.9339H25.9912ZM24.7875 41.6851V35.534H25.5547V41.6851H24.7875ZM21.9699 36.1293V35.534H25.1446V36.1293H21.9699Z" fill="#E6E6E6"/>
<path d="M28.5871 41.6851V41.3015L32.9524 35.534H33.4286V35.9441L29.0501 41.6851H28.5871ZM28.2035 41.6851V35.534H28.9443L28.9046 41.6851H28.2035ZM33.0318 41.6851L33.0715 35.534H33.7726V41.6851H33.0318Z" fill="#E6E6E6"/>
<path d="M39.7831 41.6851V36.1161H38.5132C38.0194 36.1161 37.6357 36.2263 37.3624 36.4468C37.089 36.6584 36.9523 36.945 36.9523 37.3066C36.9523 37.7034 37.111 38.0077 37.4285 38.2193C37.746 38.431 38.1604 38.5368 38.6719 38.5368C38.91 38.5368 39.1482 38.528 39.3863 38.5103C39.6332 38.4839 39.8757 38.4442 40.1138 38.3913V38.9601C39.8581 39.0042 39.5979 39.0395 39.3333 39.0659C39.0776 39.0836 38.8219 39.0924 38.5661 39.0924C38.0899 39.0924 37.6666 39.0262 37.2962 38.894C36.9346 38.7617 36.6524 38.5721 36.4496 38.3252C36.2468 38.0694 36.1454 37.7608 36.1454 37.3992C36.1454 37.0023 36.2424 36.6672 36.4364 36.3938C36.6304 36.1116 36.9126 35.9 37.283 35.7589C37.6534 35.609 38.1031 35.534 38.6323 35.534H40.5371V41.6851H39.7831ZM35.7221 41.6851L37.7327 38.7088L38.2619 38.9601L36.648 41.6851H35.7221Z" fill="#E6E6E6"/>
<path d="M46.263 41.6851V35.534H48.6838C49.2835 35.534 49.7597 35.6663 50.1124 35.9309C50.4652 36.1954 50.6415 36.557 50.6415 37.0156C50.6415 37.3419 50.5534 37.6329 50.377 37.8886C50.2094 38.1356 49.9757 38.334 49.6759 38.4839C49.3761 38.6338 49.0189 38.7088 48.6044 38.7088L48.7367 38.2326C49.2305 38.2326 49.6538 38.3031 50.0066 38.4442C50.3682 38.5765 50.646 38.7705 50.84 39.0262C51.034 39.282 51.131 39.5862 51.131 39.939C51.131 40.2917 51.0384 40.6004 50.8532 40.865C50.6768 41.1295 50.4167 41.3324 50.0727 41.4735C49.7376 41.6146 49.3231 41.6851 48.8293 41.6851H46.263ZM46.9774 41.0766H48.8557C49.3672 41.0766 49.7464 40.9796 49.9934 40.7856C50.2491 40.5828 50.377 40.3006 50.377 39.939C50.377 39.5686 50.2271 39.282 49.9272 39.0792C49.6362 38.8763 49.182 38.7749 48.5647 38.7749H46.7789V38.1796H48.6838C49.0806 38.1796 49.3849 38.0915 49.5965 37.9151C49.817 37.7299 49.9272 37.4697 49.9272 37.1346C49.9272 36.8436 49.817 36.6055 49.5965 36.4203C49.3849 36.2351 49.0498 36.1425 48.5912 36.1425H46.9774V41.0766Z" fill="#E6E6E6"/>
<path d="M52.9804 41.6851V35.534H53.7477V41.6851H52.9804ZM53.245 41.6851V41.0634H57.5045V41.6851H53.245ZM53.245 38.9072V38.2987H56.7108V38.9072H53.245ZM53.245 36.1557V35.534H57.2399V36.1557H53.245Z" fill="#E6E6E6"/>
<path d="M59.3362 41.6851V35.534H63.7676V36.1425H60.0505V41.0766H61.7966C62.3522 41.0766 62.7667 40.9796 63.04 40.7856C63.3134 40.5916 63.4501 40.2873 63.4501 39.8728C63.4501 39.4848 63.309 39.1938 63.0268 38.9998C62.7534 38.8058 62.2816 38.7088 61.6114 38.7088C61.4174 38.7088 61.1616 38.7176 60.8442 38.7352C60.5355 38.7529 60.2048 38.7926 59.852 38.8543V38.3516C60.2489 38.2546 60.6325 38.1929 61.0029 38.1664C61.3821 38.1311 61.7084 38.1135 61.9818 38.1135C62.7226 38.1135 63.2781 38.2546 63.6485 38.5368C64.0189 38.8102 64.2041 39.2203 64.2041 39.767C64.2041 40.155 64.1071 40.4946 63.9131 40.7856C63.7191 41.0766 63.4369 41.3015 63.0665 41.4602C62.7049 41.6101 62.2552 41.6851 61.7172 41.6851H59.3362Z" fill="#E6E6E6"/>
<path d="M65.5657 38.431V37.8357H68.9653V38.431H65.5657Z" fill="#E6E6E6"/>
<path d="M70.7757 41.6851C71.0667 41.156 71.2872 40.5651 71.4371 39.9125C71.5958 39.2599 71.7149 38.5677 71.7943 37.8357C71.8736 37.0949 71.9398 36.3277 71.9927 35.534H72.6673C72.6144 36.3277 72.5483 37.0949 72.4689 37.8357C72.3984 38.5677 72.2881 39.2599 72.1382 39.9125C71.9971 40.5651 71.7899 41.156 71.5165 41.6851H70.7757ZM70.1143 43.9339L70.0217 41.1031H70.8154L70.7228 43.9339H70.1143ZM70.2995 41.6851L70.1937 41.1031H77.0855L76.7548 41.6851H70.2995ZM76.3977 43.9339L76.3183 41.1031H77.0855L76.9929 43.9339H76.3977ZM75.1939 41.6851V35.534H75.9611V41.6851H75.1939ZM72.3763 36.1293V35.534H75.5511V36.1293H72.3763Z" fill="#E6E6E6"/>
<path d="M78.9936 41.6851V41.3015L83.3589 35.534H83.8351V35.9441L79.4566 41.6851H78.9936ZM78.61 41.6851V35.534H79.3507L79.3111 41.6851H78.61ZM83.4382 41.6851L83.4779 35.534H84.179V41.6851H83.4382Z" fill="#E6E6E6"/>
<path d="M88.4434 41.7512C87.8349 41.7512 87.319 41.6278 86.8957 41.3809C86.4812 41.1251 86.1991 40.7944 86.0491 40.3887L86.7238 40.0977C86.812 40.3535 86.9442 40.5607 87.1206 40.7194C87.297 40.8782 87.5042 40.9972 87.7423 41.0766C87.9804 41.1472 88.2318 41.1824 88.4963 41.1824C88.9814 41.1824 89.365 41.0678 89.6472 40.8385C89.9382 40.6092 90.0837 40.3094 90.0837 39.939C90.0837 39.5862 89.9558 39.304 89.7001 39.0924C89.4444 38.8807 88.9946 38.7749 88.3508 38.7749H87.7423V38.2193H88.3508C88.8182 38.2193 89.171 38.1179 89.4091 37.9151C89.656 37.7034 89.7795 37.4212 89.7795 37.0685C89.7795 36.7598 89.656 36.5129 89.4091 36.3277C89.1622 36.1337 88.8359 36.0367 88.4302 36.0367C87.9628 36.0367 87.588 36.1381 87.3058 36.3409C87.0324 36.5438 86.8516 36.826 86.7634 37.1875L86.102 37.042C86.2167 36.6893 86.3842 36.3983 86.6047 36.169C86.8252 35.9309 87.0897 35.7545 87.3984 35.6398C87.7071 35.5252 88.051 35.4679 88.4302 35.4679C88.8447 35.4679 89.2062 35.5296 89.5149 35.6531C89.8324 35.7765 90.0793 35.9529 90.2557 36.1822C90.432 36.4027 90.5202 36.6716 90.5202 36.9891C90.5202 37.333 90.4232 37.6285 90.2292 37.8754C90.044 38.1135 89.7927 38.2987 89.4752 38.431C89.1577 38.5544 88.8006 38.6162 88.4037 38.6162V38.3252C88.924 38.3252 89.3606 38.3869 89.7133 38.5103C90.0749 38.6338 90.3439 38.8146 90.5202 39.0527C90.7054 39.2908 90.798 39.5906 90.798 39.9522C90.798 40.3226 90.6922 40.6445 90.4806 40.9179C90.2777 41.1913 89.9999 41.3985 89.6472 41.5396C89.2944 41.6807 88.8932 41.7512 88.4434 41.7512Z" fill="#E6E6E6"/>
<path d="M91.7927 41.6851L94.4516 35.534H95.3511L98.0232 41.6851H97.2163L94.7691 35.8647H95.0072L92.6129 41.6851H91.7927ZM93.1155 39.4495L93.3272 38.8543H96.3432L96.621 39.4495H93.1155Z" fill="#E6E6E6"/>
<path d="M100.063 41.6851V41.3015L104.428 35.534H104.904V35.9441L100.526 41.6851H100.063ZM99.6794 41.6851V35.534H100.42L100.38 41.6851H99.6794ZM104.508 41.6851L104.547 35.534H105.248V41.6851H104.508ZM102.351 34.7403C101.99 34.7403 101.642 34.6477 101.306 34.4625C100.98 34.2773 100.724 34.004 100.539 33.6424L101.082 33.1662C101.276 33.5189 101.5 33.7659 101.756 33.907C102.021 34.0481 102.285 34.1186 102.55 34.1186C102.841 34.1186 103.11 34.0392 103.357 33.8805C103.613 33.7218 103.82 33.4792 103.979 33.153L104.349 33.3778C104.181 33.8364 103.908 34.1803 103.529 34.4096C103.158 34.6301 102.766 34.7403 102.351 34.7403Z" fill="#E6E6E6"/>
<path d="M112.502 41.6851V35.534H113.283V41.6851H112.502ZM107.74 41.6851V35.534H108.521V41.6851H107.74ZM108.005 38.7881V38.1532H113.018V38.7881H108.005Z" fill="#E6E6E6"/>
<path d="M114.942 41.6851L117.601 35.534H118.5L121.172 41.6851H120.366L117.918 35.8647H118.156L115.762 41.6851H114.942ZM116.265 39.4495L116.476 38.8543H119.492L119.77 39.4495H116.265Z" fill="#E6E6E6"/>
<path d="M0 43.3386H64.7465V44H0V43.3386ZM69.7836 43.3386H121.582V44H69.7836V43.3386Z" fill="#E6E6E6"/>
<path d="M64.7455 43.3386H69.7855V44H64.7455V43.3386Z" fill="#E6E6E6"/>
</svg>
