<svg width="1680" height="131" viewBox="0 0 1680 131" fill="none" xmlns="http://www.w3.org/2000/svg">
<path d="M238.846 95.8451C238.375 94.6753 235.391 94.7985 234.323 93.9211C234.496 94.6446 233.475 94.7677 233.569 95.4603C235.736 96.0452 235.925 95.4449 238.83 95.8451H238.846Z" fill="#343838"/>
<path d="M228.308 86.6407C228.873 85.4555 225.716 86.1636 226.8 84.7167C222.057 84.6552 226.659 87.7489 228.308 86.6407Z" fill="#343838"/>
<path d="M545.352 83.9625C545.352 84.3473 544.739 84.4089 544.598 84.7321C545.634 84.7167 546.262 84.9168 546.859 85.1169V83.9625H545.367H545.352Z" fill="#343838"/>
<path d="M1274.35 83.1929V82.4233H1272.84V83.1929H1274.35Z" fill="#343838"/>
<path d="M564.921 81.6538C566.35 81.5614 566.585 82.0848 567.936 82.0386C569.145 80.9766 564.685 80.9766 564.921 81.6538Z" fill="#343838"/>
<path d="M521.26 79.7453C523.317 79.1296 520.16 78.4523 519.752 79.3605C520.506 79.3605 520.647 79.6683 521.26 79.7453Z" fill="#343838"/>
<path d="M1274.35 77.4364C1274.22 76.2358 1278.84 77.4672 1281.13 76.6668C1281.24 73.4807 1275.2 74.6351 1272.1 75.5124C1271.76 76.713 1273.04 77.0824 1274.36 77.421L1274.35 77.4364Z" fill="#343838"/>
<path d="M1611.73 77.067C1611.79 75.8203 1612.12 74.7121 1613.24 74.0041C1610.69 72.3879 1611.2 71.2489 1612.48 69.0325C1610.17 69.3095 1610.27 68.3706 1607.96 68.6477C1606.33 72.4187 1607.33 75.0661 1611.73 77.0824V77.067Z" fill="#343838"/>
<path d="M290.061 76.2974C291.773 76.4052 292.888 76.2051 293.076 75.5278C292.197 75.4663 292.26 74.9275 292.323 74.3734C290.202 74.3119 290.155 75.3123 290.061 76.282V76.2974Z" fill="#343838"/>
<path d="M191.4 74.7583C191.337 75.9434 193.677 75.8973 195.923 75.9127C196.363 74.5428 193.693 74.7429 191.4 74.7583Z" fill="#343838"/>
<path d="M281.769 74.3734C281.125 72.4033 279.554 70.9103 277.999 69.3865L276.868 69.1864C276.523 68.7862 276.162 68.4629 275.738 68.2321H277.245C276.02 65.9541 276.052 65.7694 277.245 63.6299C274.293 63.2913 272.549 63.1682 270.476 64.0147C271.623 65.9849 272.832 67.9396 275.738 69.0017C272.251 69.9867 265.561 69.3249 263.692 68.2321C263.142 71.3258 265.325 73.0189 266.707 75.1276C272.094 76.0973 276.664 74.6505 281.769 74.358V74.3734Z" fill="#343838"/>
<path d="M507.706 73.219C507.266 72.5418 509.92 71.6183 507.706 71.3104C507.266 71.5413 505.947 73.1267 507.706 73.219Z" fill="#343838"/>
<path d="M1274.35 72.8497C1274.35 71.8338 1274.77 70.5871 1272.84 70.5563C1273.83 71.7414 1272.24 72.0493 1274.35 72.8497Z" fill="#343838"/>
<path d="M1228.39 71.3104C1227.53 70.0945 1229.59 70.3715 1229.9 69.7712C1228.94 69.2479 1226.21 69.1863 1226.13 70.156C1228.8 69.5557 1226.59 71.4643 1228.39 71.3104Z" fill="#343838"/>
<path d="M542.336 70.5409C543.043 69.8791 544.692 69.6944 546.86 69.7713C547.299 67.6934 548.838 66.1696 550.629 64.7844C545.226 64.1533 543.766 65.6155 538.583 65.9388C538.52 68.1398 540.138 69.4943 542.336 70.5409Z" fill="#343838"/>
<path d="M189.138 69.7712H187.631V70.5408H189.138V69.7712Z" fill="#343838"/>
<path d="M138.693 69.4019C141.551 69.2018 142.289 67.9089 143.216 66.7237C139.729 66.5698 139.965 64.5381 135.677 64.7997C134.735 67.601 138.928 66.4313 138.693 69.4019Z" fill="#343838"/>
<path d="M519.752 69.0171V67.8627H518.244C518.244 68.2475 517.632 68.309 517.49 68.6323C518.464 68.6477 518.527 69.1248 519.752 69.0171Z" fill="#343838"/>
<path d="M488.106 66.3235C487.006 66.9392 486.551 69.3711 489.613 69.0171C489.739 67.8011 489.645 66.6929 488.106 66.3235Z" fill="#343838"/>
<path d="M192.154 69.0171C193.599 67.6934 198.028 67.9089 198.185 65.9541C194.211 66.108 189.814 66.0311 187.646 67.1085C191.353 67.4933 189.044 68.6477 192.17 69.0325L192.154 69.0171Z" fill="#343838"/>
<path d="M1296.18 68.6323C1293.4 67.478 1298.47 67.3394 1296.18 68.6323V68.6323Z" fill="#343838"/>
<path d="M1216.35 67.0931C1219.49 68.3707 1222.72 65.0306 1219.36 64.0302L1218.23 64.2302L1217.1 64.0302C1215.94 64.5843 1216.44 66.0003 1216.35 67.0931Z" fill="#343838"/>
<path d="M527.275 67.0931C527.275 66.5852 528.594 66.7391 528.783 66.3235C527.919 65.4 525.249 66.7545 527.275 67.0931Z" fill="#343838"/>
<path d="M490.367 60.9672C488.749 61.198 487.996 63.8147 489.613 64.4149L490.744 64.2148L491.121 64.7843C493.524 62.9373 494.341 60.2899 500.152 60.1822C499.052 59.8436 497.23 59.8743 497.89 58.643C493.43 59.3972 488.938 57.3193 488.09 58.643C489.299 59.1817 490.022 59.9667 490.351 60.9364L490.367 60.9672Z" fill="#343838"/>
<path d="M204.954 64.7997C203.525 64.969 201.718 64.9382 201.954 65.9541C203.399 65.7848 205.189 65.8155 204.954 64.7997Z" fill="#343838"/>
<path d="M1263.04 65.5693C1262.47 64.3842 1265.63 65.1076 1264.55 63.6454C1263.13 63.553 1262.88 64.0763 1261.53 64.0301C1261.64 64.7382 1262.03 65.3231 1263.04 65.5693Z" fill="#343838"/>
<path d="M384.953 65.5693C385.471 64.5381 383.382 64.8305 382.691 64.4149C382.173 65.4462 384.246 65.1537 384.953 65.5693Z" fill="#343838"/>
<path d="M537.813 65.1691C542.352 65.5693 543.53 64.2456 544.598 62.8758C542.226 62.0908 538.457 61.8291 536.321 62.8758C535.96 64.0917 538.63 63.7377 537.829 65.1691H537.813Z" fill="#343838"/>
<path d="M133.416 63.6453C133.73 63.1681 134.389 62.8603 135.677 62.8757C135.426 61.9829 135.19 61.0748 132.662 61.3365C134.107 62.2908 131.515 62.9065 133.416 63.6299V63.6453Z" fill="#343838"/>
<path d="M1383.53 62.8758C1383.53 62.8758 1380.99 62.6449 1381.27 62.491C1379.46 63.4145 1383.74 63.4914 1383.53 62.8758Z" fill="#343838"/>
<path d="M1323.3 60.9672C1323.27 59.3203 1320.52 59.0586 1317.27 59.0432C1315.73 59.6589 1315.53 60.9672 1315.76 62.491C1319.26 63.0759 1322.06 62.491 1323.3 60.9518V60.9672Z" fill="#343838"/>
<path d="M1375.25 61.7213C1373.84 61.8137 1373.59 61.2903 1372.25 61.3365C1372.05 62.4601 1375.18 62.8141 1375.25 61.7213Z" fill="#343838"/>
<path d="M173.323 62.491C174.627 62.5064 175.255 62.1985 175.585 61.7214C174.297 61.706 173.653 62.0138 173.323 62.491Z" fill="#343838"/>
<path d="M533.306 60.9672C531.421 61.2904 526.819 60.2284 527.29 61.7368C528.892 62.7834 532.285 61.4905 533.306 60.9672Z" fill="#343838"/>
<path d="M426.368 62.1061C428.221 60.5053 422.661 58.8122 419.583 59.8127L419.96 60.3822L420.337 60.9517C421.782 61.6289 424.263 61.7675 426.368 62.1061Z" fill="#343838"/>
<path d="M416.568 60.5823V59.8127H418.075C417.965 58.3043 414.699 58.6891 412.814 59.0432C412.704 60.2437 414.746 60.3669 416.583 60.5823H416.568Z" fill="#343838"/>
<path d="M1159.87 57.1192C1168.45 58.1197 1171.12 62.1215 1183.21 61.3365C1183.21 59.7358 1181.62 59.1817 1179.44 58.2736C1176.58 57.0884 1173.8 56.9653 1171.16 55.9802C1170.61 55.7801 1169.31 55.0567 1168.9 54.8258C1167.96 54.3025 1167.85 53.5021 1166.64 52.9172C1163.36 53.0557 1161.98 52.2246 1160.61 51.378C1158.49 51.0702 1158.66 51.9167 1156.84 51.7628L1155.87 52.2554L1154.58 52.5324C1156.38 54.0408 1158.77 55.2568 1159.86 57.1192H1159.87Z" fill="#343838"/>
<path d="M155.246 60.5823V59.8127H153.739V60.5823H155.246Z" fill="#343838"/>
<path d="M979.888 60.1975C979.935 59.9666 979.997 59.7357 980.641 59.8127V59.0431C978.788 58.4428 978.427 60.3514 979.888 60.1975Z" fill="#343838"/>
<path d="M1342.12 59.0431C1342.54 58.2427 1343.29 58.2273 1344.38 58.6583C1345.21 57.1653 1339.89 57.1191 1339.85 58.2735C1341.33 58.1504 1341.35 58.7815 1342.12 59.0431Z" fill="#343838"/>
<path d="M541.598 58.6583C541.535 57.9965 541.771 57.4578 542.336 57.1191C540.42 57.1653 539.415 57.6732 539.321 58.6583H541.582H541.598Z" fill="#343838"/>
<path d="M1494.24 56.365C1496.48 55.1952 1495.92 52.948 1493.48 52.1476C1492.18 52.1168 1491.14 52.2246 1490.47 52.5324V53.302H1488.96C1490.83 54.8104 1494.87 54.4256 1494.24 56.365Z" fill="#343838"/>
<path d="M1045.39 54.8258C1044.88 55.8571 1046.95 55.5646 1047.66 55.9802C1048.11 54.9797 1047.36 54.5949 1045.39 54.8258Z" fill="#343838"/>
<path d="M387.199 53.6714C387.057 54.1178 386.005 54.087 384.937 54.0562V55.9648C388.455 56.288 389.711 54.3332 387.199 53.656V53.6714Z" fill="#343838"/>
<path d="M396.245 55.5954C396.842 54.1178 392.648 54.1178 393.229 55.5954H396.245Z" fill="#343838"/>
<path d="M249.384 54.441C248.646 54.1024 242.866 53.379 243.353 54.8258C245.238 55.58 248.787 55.9187 249.384 54.441Z" fill="#343838"/>
<path d="M540.844 53.6714C540.609 54.1947 539.761 54.4102 540.09 55.2106H542.352C542.556 54.3332 542.179 53.7637 540.86 53.6714H540.844Z" fill="#343838"/>
<path d="M121.37 52.9172C119.171 52.948 117.129 53.0558 117.616 54.441C120.428 54.7335 121.276 54.0101 121.37 52.9172Z" fill="#343838"/>
<path d="M1385.79 53.6714C1385.71 52.6864 1385.37 51.8398 1384.28 51.3781C1383.85 52.8095 1379.13 52.0707 1379.76 54.0716C1381.93 54.0254 1384.69 54.2717 1385.79 53.6868V53.6714Z" fill="#343838"/>
<path d="M1118.46 50.9933C1115.31 51.0549 1115.63 52.8711 1114.69 54.0563C1117.56 53.8562 1118.52 52.6864 1118.46 50.9933Z" fill="#343838"/>
<path d="M362.353 45.2521C363.782 46.8221 367.363 47.2839 368.368 49.0847C365.164 49.9159 366.939 51.3781 366.122 52.9173C372.31 53.379 374.854 51.9938 378.168 50.9933C378.624 48.0842 375.687 46.8991 373.645 45.2521C373.284 42.1738 368.446 39.5264 363.107 40.2652C363.342 41.2964 365.572 43.9592 362.368 45.2521H362.353Z" fill="#343838"/>
<path d="M342.015 51.7628C341.905 52.2092 340.68 52.6248 342.015 52.9172C342.124 52.4708 343.349 52.0399 342.015 51.7628Z" fill="#343838"/>
<path d="M1110.92 51.378C1110.89 50.8547 1111.28 50.5315 1111.67 50.2236H1109.43C1109.49 50.8239 1109.33 51.5627 1110.93 51.378H1110.92Z" fill="#343838"/>
<path d="M342.768 49.454C340.365 49.7927 340.428 48.8384 338.999 48.6844C338.104 49.8234 342.171 50.3314 342.768 49.454Z" fill="#343838"/>
<path d="M1124.47 49.0692C1123.04 49.1616 1122.81 48.6382 1121.46 48.6844C1120.25 49.7464 1124.71 49.7464 1124.47 49.0692Z" fill="#343838"/>
<path d="M1051.43 49.0692C1051.63 48.2073 1051.25 47.6224 1049.92 47.5454C1050.09 48.2227 1049.16 49.454 1051.43 49.0692Z" fill="#343838"/>
<path d="M479.845 46.3911H476.829C475.463 47.3916 477.159 47.5455 476.075 48.6845C478.651 48.5921 479.986 47.8687 479.845 46.3911Z" fill="#343838"/>
<path d="M1331.58 47.9303H1333.84C1333.71 47.4839 1333.96 46.8528 1333.09 46.7759C1332.91 47.3146 1331.84 47.4223 1331.58 47.9303Z" fill="#343838"/>
<path d="M934.703 46.7759C936.478 45.5445 937.75 48.1303 934.703 46.7759V46.7759Z" fill="#343838"/>
<path d="M543.844 46.0063C543.954 44.6056 541.551 42.0814 537.059 43.3127C537.373 45.2521 540.169 46.899 543.844 46.0063Z" fill="#343838"/>
<path d="M715.551 44.8518C715.629 45.3136 715.771 45.76 717.058 45.6214C716.933 45.1751 717.184 44.5286 716.305 44.467C716.258 44.6979 716.195 44.9288 715.551 44.8518Z" fill="#343838"/>
<path d="M1209.58 44.8519C1211.35 43.6206 1212.63 46.2064 1209.58 44.8519V44.8519Z" fill="#343838"/>
<path d="M803.658 45.252C803.548 44.8057 803.783 44.1592 802.904 44.0977C802.841 44.6979 800.988 44.4055 801.396 45.252H803.658Z" fill="#343838"/>
<path d="M690.705 45.2521C692.103 45.1906 693.218 44.9905 693.705 44.4825C692.385 44.5749 689.935 44.0977 690.705 45.2521Z" fill="#343838"/>
<path d="M1203.55 43.3281C1203.74 42.2969 1206.26 45.1905 1207.32 43.7129C1207.63 42.6817 1201.21 41.9582 1203.55 43.3281Z" fill="#343838"/>
<path d="M439.168 43.3281C439.058 42.6201 438.665 42.0506 437.66 41.7889C437.33 42.5277 436.042 42.7586 436.152 43.7129C437.582 43.8053 437.817 43.2819 439.168 43.3281Z" fill="#343838"/>
<path d="M812.704 42.9433C812.076 41.8658 813.756 41.9582 813.458 41.0347H811.196C811.087 41.989 811.589 42.62 812.704 42.9433Z" fill="#343838"/>
<path d="M151.477 41.7889C151.398 40.9424 148.289 41.635 146.954 41.4041C145.776 42.7124 152.011 43.2204 151.477 41.7889Z" fill="#343838"/>
<path d="M156.77 39.8804L157.146 39.3109L158.277 39.511C156.55 37.0637 155.843 34.1084 150.754 33.385C147.064 36.1709 134.735 32.4769 133.431 36.0632C138.818 37.156 144.048 38.3258 148.493 39.8958C151.257 39.6341 154.225 39.2339 156.785 39.8958L156.77 39.8804Z" fill="#343838"/>
<path d="M599.582 40.6499H598.075V41.4195H599.582V40.6499Z" fill="#343838"/>
<path d="M924.919 40.2652C929.426 42.4508 933.525 38.8953 930.18 36.8174C927.667 36.8174 927.07 37.7871 925.657 38.3412C928.672 38.7721 926.159 39.865 924.919 40.2498V40.2652Z" fill="#343838"/>
<path d="M689.951 40.6499C692.071 40.3267 691.898 41.1886 693.704 41.0347C694.443 39.6186 690.014 39.5109 689.951 40.6499Z" fill="#343838"/>
<path d="M479.075 40.6499C479.153 39.4185 482.499 39.8341 481.336 37.9717H478.321C479.342 39.1261 475.526 40.5883 479.075 40.6499Z" fill="#343838"/>
<path d="M684.674 35.2781V34.5085H680.167C680.575 35.0627 679.287 36.4941 680.92 36.4171C680.92 37.5561 680.842 38.7567 683.182 38.7259C685.742 38.572 684.046 36.6788 683.182 36.0477C683.182 34.9703 685.239 36.9558 684.674 35.2781Z" fill="#343838"/>
<path d="M607.859 37.9563V36.8019C605.676 36.2324 605.676 38.5104 607.859 37.9563Z" fill="#343838"/>
<path d="M687.689 33.3541C683.889 34.8933 690.312 35.1396 687.689 33.3541V33.3541Z" fill="#343838"/>
<path d="M1326.3 33.7389C1330.59 34.3392 1332.54 34.4623 1336.1 33.3541C1333.09 32.4614 1332.3 30.4297 1326.3 31.0608C1326.66 31.9381 1327.79 33.0155 1326.3 33.7389Z" fill="#343838"/>
<path d="M1314.25 34.1238C1314.49 33.6158 1315.32 33.4004 1315.01 32.5846H1312.75C1312.92 33.2618 1311.99 34.5086 1314.25 34.1238Z" fill="#343838"/>
<path d="M853.365 33.7389C853.554 33.5081 853.051 32.9386 852.611 32.9693C851.936 33.0309 852.234 35.0934 853.365 33.7389Z" fill="#343838"/>
<path d="M633.459 31.8304C633.946 30.8145 635.61 30.3835 636.474 29.537L635.343 29.0906L635.72 28.3826C632.956 28.2133 627.381 29.0137 626.69 31.0608L628.025 30.9222L628.936 31.4456C631.229 31.1685 631.684 31.8458 633.459 31.8304Z" fill="#343838"/>
<path d="M546.859 32.5845C545.571 32.5691 544.927 32.877 544.598 33.3541C545.885 33.3695 546.529 33.0617 546.859 32.5845Z" fill="#343838"/>
<path d="M854.873 32.5846C854.999 32.1383 856.067 32.169 857.135 32.2152C856.726 31.6611 858.014 30.2297 856.381 30.2912C855.47 30.6299 853.13 32.169 854.873 32.5846Z" fill="#343838"/>
<path d="M922.641 15.7305C922.107 18.5164 925.437 21.1022 923.395 23.3956C926.332 24.8425 926.552 27.6746 927.918 29.9064C930.29 29.7217 929.913 30.9376 931.688 31.0608C934.138 29.4138 932.473 27.9362 930.934 26.4586C931.562 25.3658 933.902 25.1503 935.457 24.5346C933.447 24.1498 932.976 22.9954 931.688 22.2412C933.133 21.0561 935.426 20.3173 935.457 18.4087C930.902 17.1773 925.892 11.2361 920.396 14.1913C922.83 13.8527 921.448 15.438 922.657 15.7151L922.641 15.7305Z" fill="#343838"/>
<path d="M728.351 28.7675C728.146 29.5524 725.021 28.8598 725.335 29.9218C727.534 29.8295 727.942 30.6453 729.104 31.0762C729.277 30.7838 729.733 30.6299 730.612 30.6914C730.518 29.7218 729.214 29.3523 728.351 28.7828V28.7675Z" fill="#343838"/>
<path d="M482.844 30.676C482.53 29.9526 482.577 29.0291 480.583 29.1522C480.897 29.8757 480.85 30.7992 482.844 30.676Z" fill="#343838"/>
<path d="M746.427 27.9978V27.2282C745.673 27.2282 745.532 26.9203 744.935 26.8434C744.998 27.4437 744.825 28.1671 746.427 27.9978Z" fill="#343838"/>
<path d="M1016.04 27.613V26.4586C1013.84 25.8891 1013.84 28.1671 1016.04 27.613Z" fill="#343838"/>
<path d="M561.167 25.689C561.167 25.689 558.623 25.4427 558.905 25.3042C557.099 26.2277 561.371 26.2893 561.167 25.689Z" fill="#343838"/>
<path d="M656.813 25.3043C657.488 24.4885 659.106 24.1653 659.074 23.0109C656.734 22.7338 655.54 24.9964 656.813 25.3043Z" fill="#343838"/>
<path d="M829.273 24.9349C832.194 25.0272 834 24.5347 834.55 23.3957C832.87 23.1032 831.613 22.5953 829.273 22.6261L828.896 23.211L827.765 23.0263C827.64 23.9806 828.943 24.2115 829.273 24.9503V24.9349Z" fill="#343838"/>
<path d="M555.136 22.2412C556.22 22.3336 556.408 22.8723 557.398 23.0108C558.057 22.2258 555.45 21.2869 555.136 22.2412Z" fill="#343838"/>
<path d="M488.106 20.3327C485.813 20.6097 485.891 19.6708 483.583 19.9479V23.0108H486.614C487.446 22.2874 487.572 21.1946 488.106 20.3327Z" fill="#343838"/>
<path d="M657.566 21.4716C655.855 21.3639 654.739 21.564 654.551 22.2412C655.949 22.1797 657.064 21.995 657.566 21.4716Z" fill="#343838"/>
<path d="M654.551 21.4717C651.284 21.3178 655.336 19.2553 654.551 21.4717V21.4717Z" fill="#343838"/>
<path d="M543.09 19.9479C539.824 19.7786 543.876 17.716 543.09 19.9479V19.9479Z" fill="#343838"/>
<path d="M687.689 18.0239C686.276 18.1932 683.15 17.5006 683.92 18.7935C685.789 18.855 687.579 18.8704 687.689 18.0239Z" fill="#343838"/>
<path d="M731.366 18.0238C731.837 16.9772 734.523 17.0695 734.381 15.7151C732.245 15.4072 732.434 16.2538 730.628 16.0999C731.036 16.654 729.748 18.0854 731.382 18.0084L731.366 18.0238Z" fill="#343838"/>
<path d="M739.658 16.4847C741.213 16.8233 743.035 15.4996 741.166 15.3303C740.993 15.8844 739.925 15.9768 739.658 16.4847Z" fill="#343838"/>
<path d="M688.443 11.5132C688.537 11.0514 689.778 10.6358 688.443 10.3588C688.333 10.8051 687.108 11.2207 688.443 11.5132Z" fill="#343838"/>
<path d="M717.058 11.1283C718.77 11.2361 719.885 11.036 720.074 10.3587C718.362 10.251 717.247 10.4511 717.058 11.1283Z" fill="#343838"/>
<path d="M768.258 9.97395C769.326 8.75799 763.75 9.00426 763.735 9.58915C765.321 10.0971 765.965 9.38906 768.258 9.97395Z" fill="#343838"/>
<path d="M717.812 8.81962C720.388 9.11206 719.053 7.40357 720.828 7.29583C722.963 6.9726 722.775 7.83454 724.597 7.68062C725.037 6.89564 726.042 6.37232 727.612 6.14144C730.204 6.09526 733.015 5.94134 733.643 6.91103C736.454 5.32567 744.26 7.75758 746.443 5.37185C744.763 4.43294 742.925 3.58639 741.92 2.30887C733.549 2.17034 730 1.97025 721.581 1.92407C719.163 2.35504 720.372 4.63304 717.812 4.98705C717.058 3.83266 715.755 2.97072 713.305 2.69366C713.305 4.35598 710.98 4.83313 711.797 6.91103C716.776 6.03369 715.236 8.481 717.828 8.81962H717.812Z" fill="#343838"/>
<path d="M776.55 8.45018C775.875 7.38815 773.676 7.0957 771.273 6.92639C770.457 8.75802 773.723 8.48097 776.55 8.45018Z" fill="#343838"/>
<path d="M702.751 4.28474e-05C699.217 4.28474e-05 695.322 -0.200051 695.228 1.53923C696.736 2.04716 697.851 2.75518 699.751 3.07841C699.94 1.64697 701.494 0.908162 702.767 0.0154347L702.751 4.28474e-05Z" fill="#343838"/>
<path d="M1676.48 72.4649C1676.18 71.5414 1677.87 71.6337 1677.24 70.5409C1676.2 70.5409 1675.59 70.7256 1674.98 70.9257L1675.35 71.5106C1674.74 71.3259 1674.21 71.2335 1673.72 71.1566L1672.71 70.9411H1673.45C1673.01 70.0176 1670.61 70.0945 1668.93 69.7867C1666.56 70.6794 1667.78 71.4028 1666.67 72.4803L1665.79 73.0498C1665.24 72.6188 1664.22 72.511 1663.27 72.2802L1662.9 71.6953C1662.99 71.3567 1664.39 70.2792 1664.41 70.1561C1664.58 69.0325 1663.53 69.4942 1662.9 69.0171C1664.69 70.387 1660.61 68.6169 1660.64 68.6323C1657.04 67.6472 1652.67 68.0782 1651.61 66.7237L1651.23 67.2932C1650.91 67.0162 1650.68 66.7237 1650.35 66.5852C1648.76 66.2773 1647.52 66.9084 1647.46 67.678L1647.08 67.1085C1641.51 66.6467 1639.81 68.0166 1637.3 67.1085L1637.68 67.678L1636.54 67.8627C1633.76 69.7559 1639.51 70.033 1640.31 71.3259L1641.07 71.1258L1641.82 71.3259H1642.58L1642.2 70.4639C1643.44 70.4639 1644.73 70.3254 1645.36 70.0637L1646.33 70.5563C1651.35 69.6328 1654.59 71.7107 1655.36 73.2345L1656.49 73.0498C1656.1 73.5577 1656.22 74.0656 1656.49 74.5735L1655.36 74.3889C1653.98 74.9737 1653.13 76.9747 1654.61 77.8366C1652.39 77.7443 1652.3 78.6986 1650.08 78.6062C1648.42 78.0521 1651.02 77.6673 1649.33 77.4518C1643.61 78.4369 1635.81 81.5307 1633.51 77.067C1625.39 76.7746 1626.7 81.269 1616.94 80.13C1614.89 79.3912 1615.22 77.4364 1611.67 77.4518C1611.32 78.8063 1610.32 79.8376 1608.65 80.5302C1601.11 80.838 1594.96 78.0213 1595.1 73.2498C1591 71.8954 1590.29 68.7862 1584.56 68.2629V67.1085C1573.46 68.2475 1570.25 63.1836 1561.22 65.5847C1560.03 65.2923 1560.09 64.3688 1558.21 64.4303C1554.25 64.4303 1553.24 65.3077 1547.65 65.1845C1547.43 65.6771 1546.74 65.9079 1546.88 66.5852L1543.51 66.7237L1543.88 66.3389C1542.89 65.9541 1541.1 65.9695 1540.11 65.5847C1538.54 67.7088 1533.52 68.109 1529.58 69.0325V68.6477L1528.44 68.8478L1528.82 68.2783C1524.58 67.8935 1523.8 66.893 1526.56 65.6001C1525.71 65.1383 1524.41 64.9075 1525.05 63.6761C1522.79 63.7839 1519.59 62.414 1519.02 62.9065C1519.73 64.7074 1514 61.9061 1515.25 64.0455C1510.93 63.4299 1508.61 61.8137 1503.21 61.7521C1501.43 59.4588 1496.64 58.7046 1493.41 57.15C1494.47 58.8431 1493.06 59.5511 1493.41 61.7521C1491.46 62.1677 1489.71 62.691 1486.64 62.5217C1486.59 62.2909 1486.53 62.06 1485.88 62.1369L1485.51 62.7218L1484.38 62.5217C1484.12 63.9224 1484.3 65.5539 1481.36 65.6001C1479.65 65.323 1479.11 64.4457 1478.34 63.6761C1478.58 63.1528 1479.41 62.9373 1479.1 62.1369C1473.81 59.5049 1464.32 58.5814 1462.53 55.2414H1459.51C1455.57 51.5627 1448.28 51.6397 1441.44 49.8696C1441.7 51.5935 1442.69 53.1789 1439.93 54.087C1432.86 53.3944 1428.48 52.2708 1424.87 50.6392C1422.13 51.3011 1419.21 51.0394 1418.1 49.4848C1414.56 49.608 1413.67 51.0548 1409.05 50.6392C1408.82 50.1159 1407.98 49.9004 1408.3 49.1C1402.46 49.0539 1398.42 47.4839 1395.5 49.8696C1394.29 49.4387 1393.11 48.3612 1391.73 49.1C1391.71 50.393 1392.77 51.1318 1393.99 51.7936C1394.74 51.2549 1395.23 51.9475 1396.25 51.024C1397.29 52.671 1402.57 52.163 1403.79 53.7022C1404.89 56.4727 1412.08 57.7349 1415.84 57.9196C1416.47 58.997 1414.77 58.9046 1415.08 59.8282C1417.6 60.0898 1419.68 60.5516 1420.36 61.7368C1419.04 67.7857 1405.38 63.5838 1398.53 63.6607L1398.91 63.0912C1398.28 63.3375 1398.04 63.7993 1398.15 64.2456L1397.78 63.6761C1393.28 64.8151 1387.87 66.4928 1381.96 64.8305C1380.83 65.4 1380.61 66.4467 1378.95 66.7545C1379.92 65.2923 1375.63 65.4154 1372.91 65.9849C1373.7 63.4914 1368.2 60.0898 1360.87 61.7675V64.0609C1355.8 64.6458 1355.32 62.8911 1351.84 62.1523C1350.99 61.983 1350.13 63.0912 1348.82 62.9219C1347.05 62.7064 1348.16 61.1365 1345.81 61.7675C1344.93 64.3841 1342.63 66.2773 1341.3 68.6631C1344.02 69.1864 1346.76 69.7251 1347.33 71.3567C1344.97 71.8184 1344.05 73.0036 1341.3 73.2652C1340.4 72.3109 1336.68 72.8035 1337.53 70.9565C1333.78 70.8795 1330.56 69.8021 1326.24 70.9565C1324.75 68.894 1323 66.0465 1325.48 64.0609C1322.06 63.6607 1317.19 64.9844 1313.42 65.6001C1311.3 64.7536 1310.83 63.0912 1305.9 63.6761C1301.82 67.0777 1309.32 69.7097 1311.93 72.1109C1310.3 72.4341 1309.35 73.0959 1306.65 72.8804L1307.03 73.2652L1306.65 73.65C1302 76.005 1297.65 74.3427 1290.84 74.789C1287.27 77.0516 1285.69 80.3455 1279.55 81.2998L1279.92 82.0078L1278.79 82.4542V82.839C1278.23 83.4547 1275.1 82.7466 1275.78 83.9934C1275.4 85.3171 1277.66 85.3325 1278.79 85.9019C1278.57 86.6869 1276.78 86.6715 1275.78 87.0409C1272.68 85.9943 1268.25 82.3772 1264.47 85.1324C1262.73 83.9626 1264.22 81.8847 1265.22 80.915C1257.98 79.068 1262.95 74.8814 1258.45 72.4803C1260.43 72.6034 1260.4 71.6799 1260.72 70.9411C1259.69 70.8333 1259.29 70.4024 1257.7 70.5563L1257.32 71.1258C1256.82 70.8333 1256.41 70.5409 1255.82 70.5563L1256.19 70.1715C1256.84 68.9555 1255.01 68.9863 1254.68 68.2629C1251.73 68.2937 1249.03 68.4476 1247.16 69.0325L1248.29 69.4789L1247.92 70.1715C1248.67 70.1715 1248.81 70.4793 1249.42 70.5563C1249.34 71.1566 1247.51 70.8641 1247.92 71.7107H1246.41L1246.78 72.0955L1246.41 72.4803C1248.4 73.3884 1245.31 74.9584 1244.15 75.5432C1245.26 75.8665 1245.23 76.7746 1245.65 77.4518C1242.21 76.3898 1242.58 78.7447 1239.64 78.991C1237.6 77.9905 1235.15 77.1902 1232.1 76.6976C1232.73 76.2513 1233.09 75.6664 1232.85 74.7737C1229.9 74.4812 1228.8 73.2652 1227.59 72.0955C1225.27 72.1878 1223.34 72.4956 1221.56 72.8651C1226.71 77.7289 1219 82.6697 1211.02 78.991C1212.8 76.9285 1209.12 77.067 1209.52 74.7737C1210.55 74.789 1211.16 74.5889 1211.78 74.3889L1211.4 74.0041C1212.15 73.9579 1212.91 73.9579 1213.66 73.8194L1214.04 74.3889C1216.1 73.7732 1218.77 73.4807 1218.56 71.7107C1213.4 70.9719 1209.59 70.4024 1208.78 68.2629C1204.79 67.601 1202.59 66.0465 1200.5 64.4303C1194.25 66.6621 1189.57 63.3221 1186.19 61.7368C1187.12 63.3991 1186.84 63.6607 1183.93 64.0301C1185.16 66.1542 1185.72 68.3245 1182.42 69.7713C1178.8 68.7247 1178.1 71.0334 1174.15 70.9257C1176.13 74.3119 1166.01 73.9579 1162.84 75.9126C1162.51 74.6813 1161.79 74.0348 1160.58 75.1431C1161.11 73.727 1157.94 74.1734 1156.81 73.6039C1150.21 75.928 1142.86 72.0801 1135.72 73.2191C1133.61 71.8646 1132.12 70.1869 1128.18 69.7713C1123.95 71.2027 1125.29 75.4663 1119.9 76.2974C1116.23 76.6361 1116.4 75.0199 1113.87 74.7583C1111.17 77.0978 1102.91 76.5899 1099.56 78.5908C1098.73 77.6057 1095.51 77.8366 1092.79 77.8212C1090.55 76.1589 1089.51 73.8655 1085.26 73.2191C1083.65 72.0647 1083.76 69.9714 1084.5 69.3865C1085.15 69.956 1086.92 69.9406 1088.27 70.1561C1087.91 68.9555 1090.3 69.1402 1090.53 68.2475C1096.45 68.3552 1104.2 66.3543 1107.1 70.1561C1114.12 70.5717 1118.14 70.3716 1122.16 68.6169C1119.26 68.6939 1120.37 66.7237 1119.15 65.9387C1112.13 66.5698 1106.6 64.8459 1106.35 60.9518C1107.1 60.9518 1107.24 60.6439 1107.85 60.567C1109.99 60.2437 1109.82 61.1057 1111.62 60.9518L1111.36 60.2745L1112.38 59.8128C1112.19 59.2587 1111.14 59.1663 1110.87 58.6584C1111.55 57.9811 1112.97 57.6887 1112.38 56.365C1111.5 56.1803 1110.67 55.9648 1110.12 55.5954C1106.39 55.1029 1106.43 56.5343 1103.35 56.365C1101.68 56.0572 1100.33 55.5954 1100.33 54.441C1100.58 53.1635 1103.17 53.0865 1104.09 52.1476C1102.81 51.1318 1098.32 51.7628 1096.56 50.9932C1097.66 49.3771 1100.61 48.7152 1100.33 46.3911L1099.2 46.5912L1098.82 46.0217H1095.81C1092.42 44.6826 1090.16 42.774 1088.29 40.6499C1089.26 39.9881 1089.84 39.1415 1092.06 39.1107C1089.04 36.7404 1097.22 35.586 1095.07 33.739C1094.93 34.3085 1093.25 34.093 1092.06 34.1238C1090.89 32.0305 1088.41 30.6144 1087.55 28.3672C1084.01 28.2441 1083.83 26.4279 1080.01 26.4586C1079.02 30.1373 1075.45 34.2315 1067.96 33.3542C1071.53 34.0622 1066.61 33.9237 1067.21 35.2628C1070.15 37.7255 1072.67 40.4037 1071.73 44.8365C1068.72 46.7451 1062.95 47.2684 1056.67 47.5301C1056.97 50.1005 1053.8 50.9163 1054.41 53.656C1056.33 53.7022 1057.05 54.3641 1058.18 54.8104C1055.84 57.6733 1059.11 62.5679 1061.93 65.1537C1059.09 64.9844 1058.4 65.9079 1056.67 66.3081C1056.44 67.4625 1057.5 69.2942 1055.16 69.3865C1049.71 68.8016 1046.59 65.7232 1049.9 62.8757C1048.5 62.8296 1047.39 62.6295 1046.89 62.1062C1048.99 61.4443 1047.59 61.1057 1047.64 59.8128C1044.92 59.4434 1042.25 58.643 1043.87 57.1192C1040.79 57.0115 1037.2 57.9042 1037.09 59.0432C1031.61 57.0115 1021.22 58.1812 1024.29 62.4909C1018.81 67.4933 1019.72 75.7587 1008.47 77.8212C1010.04 80.3147 1010.34 81.1613 1012.99 83.193C1010.75 83.7163 1011.14 85.5787 1007.72 85.4864C1003.82 84.6552 1003.43 82.0386 1000.93 80.5148C1004.4 79.2527 1003.6 76.5899 1002.44 74.7583L1001.31 74.9429L1001.69 74.3735C998.451 74.1888 998.451 69.956 1001.69 69.7713C1004.26 70.4639 1005.3 69.7251 1008.47 69.7713C1008.94 67.3394 1011.53 65.9695 1012.99 64.0301C1011.09 63.1682 1009.95 61.3366 1010.73 60.1976C1013.54 60.0898 1015.57 59.5973 1016.75 58.6584C1013.69 57.6579 1013.58 55.1644 1011.47 53.6714C1014.96 52.5324 1013.42 50.6546 1016.75 49.0693C1010.76 49.5618 1012.21 46.2679 1006.95 46.3911L1006.59 46.976L1005.46 47.1761C1004.87 49.608 1004.45 52.2554 1003.19 53.6868C1001.56 53.9331 1000.81 52.6094 1000.93 54.0716C1001.01 55.303 1004.34 54.8874 1003.19 56.7498C996.912 57.2577 995.232 60.1052 991.148 61.7368C990.677 65.8156 993.379 68.2629 993.41 72.0801C991.839 72.8035 989.547 73.1883 987.379 73.6193C983.61 72.9728 981.49 71.5106 979.102 70.1715L978.191 70.6948L977.815 70.0483C977.5 69.2326 977.548 68.4014 976.464 67.6934L977.595 67.8781C980.579 62.9373 972.035 60.8748 968.564 57.15L967.433 56.7036L967.81 55.9956C963.633 54.5642 967.418 53.5329 966.302 51.3934C964.983 48.8846 960.57 47.5609 958.026 44.8827C955.183 45.1751 954.414 44.4209 951.995 44.4979C951.398 46.0986 949.058 45.6831 950.487 47.5609C949.074 47.253 947.723 46.9144 945.964 46.7913C941.881 48.2689 939.76 54.0562 933.148 51.7782C934.264 48.392 925.484 47.7302 930.133 44.8827L929.002 44.698L929.379 44.1131C924.542 45.483 922.909 48.4844 922.595 52.163L923.977 51.9629L921.464 53.6252L921.841 52.9326C916.736 52.6402 913.705 53.5175 912.056 51.7782C913.171 51.3165 915.417 51.455 915.072 50.239C914.019 49.7465 914.601 48.4228 913.564 47.9303C911.24 47.9303 908.224 49.0539 908.287 47.1607C907.926 45.9601 911.742 46.8682 912.056 46.0063C911.13 45.5445 908.334 44.1131 910.548 43.3127C912.056 43.3127 911.507 44.3594 913.564 44.0823L913.297 43.4051L914.318 42.9279C914.145 42.3738 913.077 42.2815 912.81 41.7735C913.878 41.6812 914.066 41.1425 915.072 41.0039L914.695 40.419L915.072 39.8495C915.229 39.1261 914.224 39.003 914.318 38.3104L912.936 38.5105L912.056 37.941C906.622 41.4657 905.397 34.2931 900.01 34.1084C900.764 32.5846 897.764 32.954 898.503 31.4302C895.754 30.8607 892.424 32.0151 889.472 31.0454C888.451 32.4461 885.059 33.3542 887.21 35.2628C885.875 36.6019 883.645 36.8943 884.949 38.7105C882.122 38.8029 881.305 39.9265 878.918 40.2497C873.264 39.0338 870.437 37.8794 869.133 35.2628C868.914 34.8318 870.625 34.9395 870.641 34.878C870.72 33.9545 867.799 31.7688 869.133 30.2758C867.814 30.3066 866.793 30.1835 866.118 29.891C864.359 32.3691 864.972 33.6774 860.087 34.4932C859.805 36.5249 859.333 38.4489 855.564 38.7105C856.506 39.9881 860.197 40.3575 857.072 41.7735C853.287 42.2968 856.616 39.1877 852.549 39.8649C851.591 42.0198 851.057 42.8663 845.78 42.1583C844.759 42.9125 845.057 44.3594 844.272 45.2367L844.649 45.6215L844.272 46.0063H846.534C847.162 47.0837 845.481 46.9914 845.78 47.9149C850.366 49.3925 848.481 53.9793 843.518 54.8104C841.429 53.9947 844.916 52.7325 842.01 52.517C841.335 53.1943 840.33 53.7022 838.995 54.0562C835.069 52.7325 832.964 50.4853 830.703 48.2997C827.42 47.6686 824.043 48.6845 821.672 47.1453C819.316 44.7903 825.41 43.7591 823.18 41.3887C826.682 40.6653 832.195 38.0025 835.226 39.4647C835.037 40.7731 833.325 41.3118 833.718 42.9125C836.466 43.0357 838.618 42.851 840.487 42.5277C841.79 40.5422 842.34 39.08 840.487 37.156C844.256 33.4927 834.817 31.1685 834.472 27.1821C830.671 27.4283 832.524 30.5375 827.687 30.245C824.452 29.8448 825.818 27.1051 823.918 26.0277C817.4 26.9512 815.594 29.7833 817.887 33.3234C821.169 32.3845 823.619 33.5697 823.918 35.232C819.85 38.0179 819.049 42.4662 813.364 44.4363C807.521 42.8048 807.663 46.6681 804.333 47.4993L804.71 47.8841C803.705 47.8533 802.7 47.9149 801.695 48.0842L802.072 47.5147C798.632 46.0679 796.732 43.836 796.056 40.9885C796.528 40.9731 796.952 40.927 796.81 40.6037L795.68 40.1574L796.056 39.4494C793.072 39.3108 791.706 38.3411 790.779 37.156C795.224 33.8005 788.047 32.6308 789.288 28.7212C787.544 28.3211 786.853 27.3975 784.01 27.5669L784.387 28.1364C783.869 27.8593 783.052 27.6284 782.126 27.3668L783.257 27.1667C774.744 25.8122 782.534 21.5486 780.995 18.7319C776.927 18.9628 777.76 21.6872 774.21 22.1797C772.436 22.0566 772.813 20.856 770.441 21.0253C769.75 21.7026 769.043 22.3644 766.688 22.1797C769.2 23.7805 767.112 25.8891 768.195 27.9209C769.028 29.4908 773.19 30.8761 770.457 32.523C776.111 33.662 769.232 36.802 774.98 37.8948C771.933 37.3561 772.608 38.7259 770.457 38.649C767.3 37.9564 763.892 36.6788 762.18 37.8948C764.143 37.6639 764.897 38.0487 764.442 39.0338C761.034 41.1117 756.542 40.2036 750.888 39.8034C753.165 41.6504 748.014 41.1886 749.38 43.6359C750.589 44.1593 753.259 43.9592 753.888 44.7749C753.683 45.5599 750.558 44.8673 750.872 45.9293C756.683 47.6224 752.349 51.6859 747.857 53.2097C747.982 51.2241 743.444 51.6243 743.334 49.7619C746.789 48.3305 745.768 48.2073 746.349 45.9293C745.454 45.7446 744.637 45.5291 744.088 45.1597C744.794 42.6201 741.103 39.6802 748.611 39.0184C749.883 37.3253 747.904 35.0781 748.611 32.5076C748.029 32.4307 747.119 32.5076 747.103 32.1382C743.491 32.5076 742.58 35.2936 741.826 35.9708C738.779 36.4941 739.439 35.1396 737.303 35.2012L736.423 35.7707L735.041 35.586C733.549 36.9559 735.387 37.6331 735.041 39.4186C733.706 39.7572 733.125 40.4806 730.518 40.1882C728.806 39.9111 728.869 38.7259 726.749 38.649C724.456 40.2959 723.152 42.4508 719.226 43.2511C719.226 44.5287 721.676 44.5595 721.487 45.9447C720.262 46.8528 718.488 47.4839 716.964 48.2381C715.629 47.8841 714.766 47.3146 713.195 47.0837C711.546 48.2843 709.3 49.1924 706.41 49.7619C706.19 48.9923 704.369 49.0077 704.149 48.2381L703.018 48.038L702.641 47.4685C701.573 47.5609 701.369 48.0996 700.379 48.2381C697.772 47.6532 696.642 46.2987 692.857 46.3141C691.129 46.4526 692.134 47.9918 689.841 47.8533C690.014 44.8211 682.899 45.5137 681.549 43.2511C683.936 41.5273 683.559 40.4498 680.795 39.0338C680.072 39.8188 677.905 39.8649 675.518 39.8034C673.822 38.2026 675.659 36.725 675.518 34.8164L674.387 35.0165L678.156 32.3383L677.779 32.9078C683.402 32.877 691.098 29.3523 685.318 27.1513C685.287 28.5519 683.104 28.8444 680.041 28.6905C680.072 28.1671 679.695 27.8439 679.287 27.5361C679.476 26.3509 680.921 25.8122 681.549 24.8579L680.418 24.6578L680.795 24.0883C679.02 24.2114 677.968 24.6886 675.518 24.4731C676.209 26.8588 671.811 26.6741 668.733 27.1513L669.11 27.7208L667.979 27.9209C668.529 28.9675 666.487 28.6905 666.472 29.46L667.602 29.6448C666.189 29.7371 666.142 30.322 666 30.8761L664.603 31.9535L664.98 31.384C662.278 31.2917 662.215 32.5384 659.703 32.5384C660.048 30.322 659.671 28.4596 655.949 28.3211C650.436 29.183 652.792 31.3379 652.18 33.308C652.07 33.6466 650.279 35.3397 649.918 35.6014C647.295 37.5254 641.092 39.003 638.626 40.9732C636.914 40.4498 635.705 39.6495 634.119 39.0492V37.51L633.145 37.0174L632.611 36.3556C631.857 36.7866 628.512 37.8024 627.35 36.7404V36.3556L625.967 36.5557L625.088 35.9862C623.015 36.4633 622.968 37.9717 619.811 37.9102V36.371L618.429 36.5711L617.549 36.0016C612.241 36.5095 615.523 39.5725 613.026 40.9885L613.403 41.558L613.026 42.1275C616.309 43.0049 615.005 46.2064 613.78 48.2689L614.911 48.4536C613.654 48.6999 612.979 48.7614 611.895 49.2232L612.272 48.6537C611.314 48.6383 611.236 48.1611 610.011 48.2689L609.634 48.8384L608.503 48.6383C608.534 49.177 608.142 49.4848 607.734 49.7927C605.912 50.5315 603.195 49.2694 600.965 49.0231C600.886 47.4531 600.823 45.8832 601.718 44.8057L600.588 44.9904L600.965 44.4209C600.085 44.0977 598.954 43.913 597.195 44.0361C598.185 45.8216 594.698 45.329 595.688 47.1145C592.609 48.2381 590.945 50.7778 588.903 51.3319C588.243 52.5632 590.85 52.1322 591.164 52.871C589.421 52.7479 590.316 53.9793 588.903 54.0254C588.008 53.8407 587.191 53.6252 586.641 53.2558V52.871L585.259 53.0558L584.38 52.4862C583.296 54.9489 575.004 52.24 574.595 54.3948C576.747 55.0875 579.244 55.6108 581.38 56.3188C581.773 58.2582 579.809 61.983 585.903 62.4448C583.94 64.5227 582.636 66.9238 576.103 66.6621C575.223 67.8781 576.574 68.3398 575.349 69.7251C578.16 69.8944 579.244 69.7867 581.38 70.8795L581.757 70.31L582.134 70.8795C583.202 70.7872 582.998 70.0483 583.642 69.7251L582.511 69.2787L582.872 68.5707H582.118C582.338 67.678 584.16 67.678 584.38 68.5707L585.51 69.0171L585.134 69.7251H586.641C587.05 72.234 587.835 73.3422 584.38 74.3273C586.751 74.4042 586.924 75.5894 586.641 77.0209C583.72 77.4518 582.778 78.8833 579.857 79.3296C575.349 78.8679 577.878 76.8823 574.58 76.2513C570.355 78.283 569.585 81.3306 572.318 84.686C567.905 84.9938 560.869 86.964 560.256 83.9164C562.769 82.762 561.12 79.4989 563.272 78.1599C560.884 76.5129 559.675 76.2513 556.487 74.7121C557.398 73.6347 558.764 72.8035 562.502 73.1729V75.8511C565.219 75.1892 568.062 74.5889 568.533 72.7881L567.402 72.588L567.025 72.0185C565.533 72.0185 566.067 73.0652 564.01 72.7881C562.502 70.4331 563.586 69.1248 561.748 67.0315C563.083 66.3081 563.79 65.2615 565.518 64.7382C567.826 64.4611 567.732 65.4 570.025 65.123C571.753 64.261 569.727 61.9368 572.287 60.1514C570.795 59.2433 566.805 59.6127 564.748 58.997C564.528 60.1514 562.424 60.3669 563.256 62.06C560.884 61.8753 560.303 62.5987 558.733 62.8296C558.796 65.4154 555.199 66.1388 555.717 68.9709C549.985 70.5101 545.462 72.6804 539.148 73.9425C539.18 74.4658 538.803 74.789 538.41 75.0969C542.556 76.9439 539.4 80.7457 542.933 82.3772C545.477 82.5311 544.111 80.6841 547.456 81.2228C548.964 81.9462 548.634 82.6235 551.226 81.9924C553.346 81.4229 549.31 80.3763 551.226 80.0684C552.152 80.7457 552.686 81.623 554.241 81.9924C552.655 82.2079 552.089 82.9467 549.718 82.762C552.828 85.3017 547.441 86.6561 550.472 88.5186C547.613 88.8418 546.844 90.2424 542.949 90.0577L543.326 90.7504L542.195 91.1967C542.886 92.582 544.425 91.4276 546.718 91.5815C543.2 92.4281 542.446 96.4608 537.672 95.4141C536.368 99.4468 527.558 97.138 524.118 96.9533C519.721 93.9827 524.684 91.4738 522.61 87.749C524.15 87.6412 524.087 86.7177 525.626 86.61C529.631 87.0563 530.84 86.5946 533.149 85.4556C532.693 84.7937 529.584 85.4864 529.395 84.686L528.264 84.2396L528.641 83.5316C527.463 83.5008 528.06 82.5619 526.38 82.7774C525.202 82.9313 525.736 83.978 523.364 83.5316V82.7774L521.982 82.9621L521.103 82.3926C519.784 83.1468 517.789 85.5479 515.841 84.686C516.061 83.7779 518.449 83.978 518.103 82.7774C516.564 81.6384 515.417 80.3147 515.841 78.1752C512.245 77.5904 513.957 78.4831 510.565 78.56C510.203 79.7606 512.873 79.422 512.072 80.8534C509.795 81.3767 509.387 80.6687 506.041 80.8534C506.246 79.6067 505.146 79.0064 503.026 78.9294C502.853 79.2373 502.398 79.3758 501.518 79.3142C499.429 79.8837 502.822 80.8842 500.764 81.2228C497.749 81.3614 495.252 81.2228 494.733 80.0684C495.723 78.7755 498.864 78.5908 500.01 77.3903C499.932 76.4052 497.074 76.8515 496.995 75.8665C498.079 75.7741 498.267 75.2354 499.257 75.0969C500.969 76.9131 505.649 77.2056 508.287 78.5446C510.046 77.3749 508.287 75.4355 507.533 74.3273C500.592 75.1738 499.319 72.0647 492.472 73.5577V72.0185C489.394 71.4952 485.734 72.8958 480.426 72.4033C478.824 66.8468 470.532 65.6001 472.903 59.7512C471.772 59.3048 469.542 59.4126 469.888 58.212C471.38 58.212 470.846 57.1654 472.903 57.4424C475.102 57.3347 475.212 58.3044 477.426 58.212C477.819 56.5035 478.164 54.7489 478.918 53.2251C473.233 53.5175 472.181 56.1803 466.118 56.288C466.37 58.212 463.244 58.3967 463.872 60.5054C464.344 61.1519 466.134 61.1365 466.872 61.6598C467.705 63.2759 467.736 65.3077 467.626 67.4163C463.621 68.5246 461.485 71.9723 465.364 73.9271C464.045 75.6818 461.642 76.8823 461.611 79.2988C455.297 81.6384 455.549 85.7634 456.334 91.1814C453.994 91.8586 454.732 93.1515 454.072 94.2443C454.041 94.3059 452.612 94.1674 452.58 94.2443C451.088 96.784 453.444 99.5391 453.334 101.14C453.334 101.078 451.073 100.54 451.826 101.525C452.957 102.11 455.203 102.11 454.842 103.449C453.366 103.326 453.35 103.972 452.58 104.203C451.088 104.326 451.088 103.695 450.319 103.449C445.701 104.157 448.136 108.482 442.78 108.805C440.095 104.326 444.586 102.633 442.78 97.6921C441.806 96.9071 439.137 96.9995 439.765 95.3987C442.089 95.1371 441.21 95.1371 443.534 95.3987C443.079 94.0135 444.414 93.5363 445.026 92.7051C442.906 93.0284 443.079 92.1664 441.257 92.3357C439.168 93.1977 437.645 94.3213 432.98 93.8595C432.21 92.9822 431.425 92.1049 429.965 91.5508C427.248 91.4584 427.923 93.0745 425.441 93.0899C425.441 92.1818 424.138 91.9509 424.688 90.7966C428.268 90.6119 425.834 89.596 429.195 89.6422L428.834 89.0727L429.195 88.5032C427.844 86.256 417.416 88.6263 417.149 85.825C419.96 85.8558 419.426 84.1781 423.18 84.6706C423.18 83.6547 422.756 82.4234 424.688 82.3772C425.536 83.8856 422.426 85.04 425.441 85.4402C427.232 83.0545 430.342 83.7625 432.226 82.3772C431.802 82.7004 430.012 82.1309 429.965 81.9924C429.902 81.8077 433.938 80.8534 432.98 80.0684C433.106 78.8063 429.603 78.3753 431.472 77.3903C428.708 77.3903 428.582 78.7293 426.949 79.3142C425.913 77.2363 422.63 79.9299 423.18 80.0684C419.521 78.5139 420.447 75.651 423.934 74.3273C422.803 73.5423 421.531 71.6799 423.934 71.2643C421.641 70.5101 420.149 69.3557 420.164 67.4317C412.846 66.2773 410.207 71.2951 402.088 70.4947C400.486 73.7578 409.563 72.4956 410.38 72.4187C412.406 74.7582 407.977 74.8814 408.118 76.2513C404.852 76.1743 406.752 75.5894 406.611 74.3427C404.192 73.9117 403.124 72.8035 400.596 72.4341C400.423 72.7265 399.952 72.8804 399.088 72.8189C400.14 74.512 399.245 75.8049 396.826 76.6514C393.45 75.6202 391.643 76.8669 390.042 77.8058C389.209 77.0824 389.084 75.9896 388.534 75.1277C389.963 74.4042 389.9 75.3585 392.303 75.1277C391.738 73.373 389.633 72.4033 387.78 71.2951L387.026 71.4798L386.272 71.2951C385.157 74.0194 381.247 73.019 378.734 75.1277C379.299 73.8193 375.954 74.4966 375.718 73.5885C375.09 72.4957 376.771 72.588 376.456 71.6645C368.462 70.1099 368.384 63.3067 371.195 60.1668H368.164V60.9364H366.672C361.866 60.8748 366.154 63.3067 362.149 63.2298C360.987 60.6285 358.599 58.643 354.61 57.4886C353.919 58.1504 353.212 58.8123 350.841 58.643C350.841 58.2582 351.453 58.1812 351.595 57.8734L350.464 57.6733L350.841 57.0884C347.103 56.4266 351.736 51.532 347.072 51.3473C344.072 52.517 340.601 53.2097 342.549 55.9494C336.926 57.3039 332.654 59.351 329.749 62.0754C328.351 62.0292 327.236 61.8291 326.749 61.3058C327.519 59.1201 325.807 58.212 322.98 57.858C323.953 57.1962 327.487 57.858 327.503 56.7036C324.095 55.7493 320.341 55.6724 317.718 54.0254C315.315 52.517 315.771 50.1775 313.949 48.6537C309.583 44.9904 301.086 44.344 290.611 42.5277C290.391 43.3127 288.585 43.2665 288.349 44.0515C292.26 44.7442 296.218 45.4214 297.396 47.4993C298.432 47.5147 299.045 47.3146 299.657 47.1145C300.647 49.2386 307.133 50.3622 304.18 53.2405C305.798 53.7022 308.279 53.7022 308.703 54.7642C308.515 56.8268 307.369 58.2582 308.703 60.136L309.834 60.3207L307.573 60.5054L307.95 60.1206C303.191 59.705 304.856 58.3198 305.688 56.288C299.924 54.1024 295.071 57.3501 292.888 59.351C290.548 59.3972 290.737 58.1505 287.611 58.5814L286.857 58.7661L286.103 58.5814C285.805 59.5819 283.858 59.7358 283.842 60.8748L284.973 60.6901C284.737 61.0133 284.533 61.3673 284.47 61.5828L286.48 62.5987L285.35 62.3986V64.692C287.046 65.0922 288.663 65.5693 289.873 66.2158C287.815 68.0782 292.087 71.3566 288.365 72.7419H296.658L297.411 72.942C297.411 73.2806 297.977 73.5731 298.542 74.0964L297.411 73.8963C291.082 75.6971 297.584 77.852 292.888 80.0223C288.648 80.2839 281.785 79.2219 280.842 81.1767L281.203 81.7615L280.073 81.9462C279.711 83.1622 283.528 82.2387 283.842 83.1006C283.732 87.0102 277.78 87.9491 274.057 90.0116C274.874 90.4887 276.115 92.4127 274.057 93.8441C272.675 93.2747 269.833 93.444 268.78 92.6898C268.419 90.3348 270.115 89.0419 269.534 86.5638C265.31 87.0563 266.754 84.6552 266.519 83.116C265.388 83.0545 263.739 83.2546 263.503 82.7312L262.121 82.9159L261.242 82.3464C260.127 82.408 260.551 83.2699 260.488 83.8856L261.619 83.6855C260.614 83.978 259.609 84.0857 258.603 84.4551L258.98 83.8702C258.87 82.9159 258.839 82.0078 260.488 81.9462L260.111 81.3767L259.734 80.8073C261.854 75.8973 262.388 65.8618 246.934 68.5399C246.887 67.4163 244.06 67.6934 244.673 66.2312C242.254 65.8925 243.636 67.4933 241.657 67.3856C240.228 66.7083 238.626 66.1234 235.642 66.2312C233.805 67.0008 236.914 67.8781 234.134 68.1552C232.595 68.0474 232.658 67.1239 231.135 67.0008V67.3856H230.381C228.308 68.2167 231.135 69.1402 229.627 70.0637C231.716 70.9103 233.443 70.7872 236.412 70.4485C239.302 73.2498 236.93 76.8669 230.381 75.0507C228.559 75.9742 232.218 76.0666 231.135 77.7289C226.109 77.3441 225.559 79.2373 223.596 80.4225C224.586 82.1002 227.13 81.2382 230.365 81.1767L230.742 80.6071L231.873 80.8073V79.2834C233.663 78.6524 236.223 78.4369 238.658 78.1291C240.338 79.3142 240.841 81.1151 241.673 82.7312C243.416 82.8544 244.563 82.6697 245.442 82.3464L245.065 81.7769L246.196 81.5922C246.055 80.7457 246.809 80.3609 248.442 80.4378V81.9616H246.95L247.327 82.5311L246.196 82.7312C246.557 83.9318 244.17 83.7471 243.935 84.6398C243.134 86.0713 246.762 85.2401 246.196 86.5638C242.6 87.4719 241.359 85.4864 237.15 86.5638L236.773 87.1333L235.642 86.9332C236.506 88.457 237.7 88.9649 236.38 90.7658C239.6 90.8581 242.82 90.9813 243.165 89.6114C243.385 90.3964 245.207 90.3656 245.427 91.1506C244.076 93.29 241.312 94.152 240.165 95.3679C239.521 96.0452 240.291 96.43 239.396 96.9071C239.035 97.0918 238.186 96.4454 237.904 96.5223C237.009 96.7378 235.626 98.2616 234.888 98.4309C235.485 98.3078 230.271 98.6156 231.135 98.8157C225.826 97.569 230.255 93.6441 230.381 92.6744C225.591 92.5051 220.973 95.1217 218.335 92.6744C218.633 88.6263 219.654 84.6552 219.089 80.7919C216.764 80.2531 217.11 81.5153 214.566 80.4071L214.189 80.9766L213.058 80.7765C213.451 83.7317 206.383 85.748 204.765 88.0568C203.76 89.4883 205.582 88.9341 203.258 89.9808C202.881 90.1501 203.556 90.9197 203.258 91.1352C201.562 92.3511 198.986 92.0587 197.243 92.2896C197.996 92.2896 198.185 92.9514 197.243 93.0592C195.358 93.1207 195.405 92.1972 194.227 91.9048C196.489 92.2896 195.562 91.0582 195.735 90.381C194.714 89.7499 193.819 89.0573 191.966 88.8418C191.117 90.1963 190.489 91.6585 186.704 91.52C187.757 90.5349 189.249 89.7499 190.474 88.8418C186.296 88.4108 185.04 86.5022 179.935 86.5484C179.15 87.6258 179.15 88.1492 179.935 89.2266C176.229 90.0578 171.894 89.0111 171.643 86.9332C168.313 86.7331 167.999 90.1039 165.628 88.0876C164.67 89.0419 166.005 89.2881 164.874 89.6268C163.696 88.9495 161.419 88.8264 161.12 87.7028C161.874 87.1949 161.827 86.2714 163.382 86.179C163.492 87.0102 165.282 87.0102 167.135 86.9486C169.35 85.2555 169.24 82.3926 174.674 82.3464C173.904 80.0531 170.606 79.0526 167.889 77.7443C170.339 73.0805 166.978 69.6943 161.858 66.2466L160.728 66.0619L160.351 65.4924C154.006 67.0315 159.377 71.5106 161.12 73.5423C156.519 75.0815 154.822 72.2648 151.32 72.0031L150.409 72.5264L149.059 72.3879C149.844 73.4653 149.844 73.9887 149.059 75.0661H146.043C145.431 73.727 147.174 73.5885 146.797 72.3879L146.42 71.8184L146.043 71.2489C144.614 71.4028 144.158 72.0647 142.274 72.0031C143.703 73.1421 142.337 74.5274 140.012 73.5423V73.9271H139.258V74.6967C136.07 75.2508 131.029 74.8506 127.966 75.4663C127.903 74.0348 127.401 72.3725 130.982 72.7881V70.8641L129.851 71.0642L129.474 70.4947C126.867 70.8025 126.568 69.9252 124.197 70.1099C122.736 66.893 112.088 68.3552 111.397 64.7382C107.816 64.1379 104.879 63.199 101.613 62.4448C102.539 61.6136 106.497 60.3515 105.382 59.7666C104.612 60.6131 101.911 59.2587 99.3668 59.7666C97.5293 61.4905 94.8122 62.768 95.5975 64.3688C92.5192 64.5842 91.7497 65.9849 88.0746 65.8926C86.08 64.0763 90.666 62.7218 93.3359 62.06C93.7757 60.5516 92.692 59.8282 91.8282 58.997C86.8653 59.0124 80.9915 61.983 79.0283 59.7666C78.353 58.997 73.7984 60.4746 74.5052 58.997C73.8927 56.6421 76.06 55.7031 76.7668 54.01C75.6831 53.7946 74.9292 53.4098 74.5052 52.8557C69.2439 53.1173 63.9512 53.3636 58.6899 53.6252C57.0879 52.0091 58.3287 48.9615 57.936 46.7297C55.91 46.9914 56.4754 45.9447 55.6745 45.5753C55.6745 44.5595 55.3918 43.3897 56.4283 42.8971C52.4077 41.8813 54.7007 37.6485 48.9054 37.5254C48.8897 39.1415 50.366 40.0035 48.9054 41.3579C51.2613 41.2964 51.4811 42.343 51.9209 43.2665C49.9106 48.0534 51.8738 51.6397 51.9209 57.8426C49.5808 59.5973 48.3715 61.9061 46.6439 63.9686C47.9474 64.3226 50.3975 64.1071 51.1513 64.7382C50.5074 67.5549 44.5551 65.6309 39.1053 66.262C40.4717 68.3245 32.1635 66.8315 29.3209 67.8011C29.3523 67.2778 28.9596 66.9546 28.567 66.6467C25.8343 67.2932 22.4105 67.601 18.0287 67.4163C17.3377 69.4942 14.1966 70.3254 9.752 70.4793C11.1027 70.4331 11.511 70.8641 11.2597 71.6337C8.2914 70.9719 1.94643 72.0339 2.96728 69.3403C1.53809 69.248 1.30251 69.7713 -0.048151 69.7251C-1.28887 70.3254 0.203135 71.2181 0.705708 72.0339C-4.35142 72.7881 -8.3877 74.0502 -9.83259 76.6361C-10.7906 76.713 -11.5131 76.9285 -12.157 77.2056V130.954H1692V79.5913C1691.36 79.2065 1690.78 78.8987 1690.05 78.9756C1690.67 75.7279 1681.57 74.0964 1676.5 72.4649H1676.48Z" fill="#343838"/>
<path d="M129.646 69.7712L131.028 69.5865L131.908 70.156C134.955 70.0175 135.52 66.2311 130.4 67.0931C131.013 68.4321 129.285 68.5707 129.646 69.7712Z" fill="#343838"/>
<path d="M148.477 72.08L149.608 71.8953L150.739 71.6952C149.325 71.018 151.634 70.5716 149.985 69.7712C148.132 69.7251 146.357 69.7097 145.462 70.156L145.839 70.5408L146.216 70.9256L148.1 71.1257L147.739 72.08H148.493H148.477Z" fill="#343838"/>
<path d="M192.154 79.7452C193.834 80.0531 195.216 80.1146 198.923 80.13V80.5148L200.054 80.6995C199.787 80.7765 199.52 80.8688 199.268 80.9458C198.075 81.4537 197.494 82.2541 197.258 82.9929C198.279 83.8241 199.787 84.763 201.954 84.5321C202.818 83.6855 202.99 82.762 203.336 81.8385L204.216 82.408C205.645 80.3455 208.032 79.8684 213.246 80.4994L213.623 79.9299L214.754 80.1146V78.9603C216.607 79.0064 218.382 79.0218 219.277 78.5755C222.339 75.8819 212.461 77.4519 214.754 73.9733C211 73.4654 211.55 75.1585 208.739 75.1277C202.331 73.8963 199.818 77.2056 201.2 78.5755C197.949 77.5134 192.719 76.8977 192.17 79.7298L192.154 79.7452Z" fill="#343838"/>
<path d="M235.077 86.6408L234.7 86.0559L235.83 85.8712C235.375 85.0708 236.757 83.3469 235.061 83.1776L234.684 83.7625L233.553 83.5624C232.077 84.3474 230.742 86.8409 235.061 86.6408H235.077Z" fill="#343838"/>
<path d="M238.846 62.491C236.993 60.49 234.26 58.9508 229.815 58.2736C230.177 60.5054 228.606 61.7368 224.554 61.7214C220.596 60.3361 220 57.227 223.8 55.5954H223.046V55.2106C221.963 53.7946 222.999 53.0096 222.293 50.9933C224.962 50.7008 227.727 50.4392 229.077 49.4695C228.245 48.2381 223.109 49.1924 221.539 48.3151C223.769 47.1453 227.051 48.115 229.831 46.7759C225.355 45.6061 220.031 44.8673 219.293 41.7889C218.005 42.0506 214.613 43.205 216.277 43.7129C216.34 43.0819 217.22 44.8673 217.785 46.0063C213.984 46.2372 214.079 48.469 212.508 49.8389C208.707 49.5772 208.755 51.2549 205.723 51.3781C204.153 51.0394 202.378 50.7778 201.2 50.2237L200.839 50.7932L199.708 50.9933C199.944 51.9014 200.886 52.4401 200.462 53.6714C195.656 53.4252 189.798 57.8734 197.447 58.2736C198.97 57.1346 201.137 56.3188 205.723 56.7344C206.509 57.7349 206.634 59.0894 206.493 60.567C204.137 60.7825 202.755 61.4751 201.97 62.4756C203.964 62.9373 204.31 62.8142 203.462 63.9994C204.043 63.907 204.954 63.9994 204.969 63.6146L205.346 63.0451L207.608 64.1995L206.477 64.3996C205.346 64.7228 206.681 64.9691 205.708 65.9234C209.713 66.0619 209.98 63.3221 213.246 65.1538C211.11 66.9854 214.11 67.8781 214 69.7559L215.382 69.5712L216.262 70.1407C219.748 68.2013 222.245 65.5078 223.785 63.63C224.664 65.046 226.125 64.7074 229.062 64.3996C229.171 65.1076 229.548 65.6771 230.569 65.9234L230.946 65.3385L231.323 65.9234C233.977 64.8459 231.731 61.275 238.846 62.4756V62.491Z" fill="#343838"/>
<path d="M216.262 70.5409L214.88 70.741L214 70.1561C212.602 70.2023 211.487 70.4178 210.985 70.9257C212.948 71.0796 213.262 72.0801 215.508 72.0801C215.743 71.5568 216.576 71.3413 216.262 70.5409Z" fill="#343838"/>
<path d="M287.8 53.6715C284.91 53.2251 283.072 52.24 278.769 52.5325C278.518 53.0558 277.685 53.2559 278.015 54.0716L278.392 54.6411L277.261 54.8258C279.617 55.5339 279.162 57.6887 281.031 58.6584C283.339 58.9355 283.245 57.9966 285.554 58.2736L285.931 57.6887L287.061 57.8888C287.972 56.8114 287.894 55.2414 287.815 53.6715H287.8Z" fill="#343838"/>
<path d="M575.475 72.8496C573.527 72.0493 572.993 70.5409 571.705 69.4019C570.732 70.1868 568.062 70.0945 568.69 71.6952L569.821 71.8953L569.444 72.4648C571.266 72.6957 572.883 73.0189 575.475 72.8496Z" fill="#343838"/>
<path d="M580.752 73.219C583.155 73.5576 583.076 72.6187 584.521 72.4494C584.662 71.6182 583.908 71.2335 582.259 71.3104L581.882 71.8799L581.505 71.3104C580.422 71.5259 579.668 71.9107 579.244 72.4494L580.375 72.6341L580.752 73.2036V73.219Z" fill="#343838"/>
<path d="M584.521 51.7628L585.652 51.9475L586.783 52.1476C587.411 51.7012 587.772 51.1163 587.521 50.2236C585.777 50.0543 585.51 48.5305 583.767 49.454C582.888 49.8542 583.484 51.2241 584.521 51.7474V51.7628Z" fill="#343838"/>
<path d="M611.628 42.1737L611.251 41.6042L611.628 41.0347C610.874 41.0347 610.733 40.7269 610.121 40.6499C609.964 39.9727 610.874 38.726 608.629 39.1108C606.32 39.4956 609.492 40.142 609.382 40.6499C605.66 40.927 604.954 42.7432 603.352 44.0977L603.728 44.4825L603.352 44.8673C608.801 45.3445 610.733 44.0208 611.644 42.1891L611.628 42.1737Z" fill="#343838"/>
<path d="M638.736 32.2152C637.401 32.677 634.354 32.2768 633.474 32.9848C634.055 33.0618 634.354 33.308 634.228 33.7544L635.61 33.5543L636.49 34.1238C637.809 33.7698 639.113 33.4158 638.751 32.2152H638.736Z" fill="#343838"/>
<path d="M686.935 27.2283C689.213 23.4727 699.782 28.0286 701.997 23.7805C699.798 23.3649 699.547 21.9489 699.735 20.3327C701.023 20.3481 701.667 20.0403 701.997 19.5631C700.646 19.6093 700.222 19.1783 700.489 18.4087L699.107 18.5934L698.228 18.0085C694.898 20.6559 692.275 24.8271 683.92 23.7651L685.051 23.9498L684.658 24.5193C684.925 25.6583 685.098 26.8589 686.92 27.1975L686.935 27.2283Z" fill="#343838"/>
<path d="M698.982 9.97401C698.086 10.8052 697.427 11.7287 696.72 12.6676C701.259 13.745 695.872 15.6382 698.212 17.6545L699.594 17.4545L700.474 18.0393C703.3 18.0701 702.751 16.3924 706.504 16.885C707.29 18.0855 706.52 18.9167 708.012 20.3327H711.028C713.745 18.6088 715.048 18.1317 717.043 16.5002H720.812C720.498 15.5766 722.194 15.669 721.566 14.5762C716.666 12.9446 711.263 16.1615 708.012 14.1914L707.133 14.7609L705.751 14.5608C703.834 15.6536 702.939 14.2683 705.751 14.176L706.614 13.6065L707.996 13.8066C705.798 10.6974 704.902 9.0659 704.981 4.60226C701.966 3.94041 696.453 4.00198 695.197 5.37185C697.223 5.81822 695.197 7.37279 695.197 8.06542C695.809 9.01972 697.835 9.26599 698.966 9.97401H698.982Z" fill="#343838"/>
<path d="M703.882 46.191L704.258 46.7605C706.457 45.3599 708.703 48.1766 709.52 46.3757C706.3 46.0833 710.211 44.5287 708.012 43.6975C705.703 43.4205 705.264 44.0823 703.489 44.0823C704.023 45.2521 702.719 45.483 702.735 46.3757L703.866 46.1756L703.882 46.191Z" fill="#343838"/>
<path d="M723.843 31.4456C723.702 32.523 720.262 31.9227 720.828 33.3695C721.424 34.8472 724.503 35.078 726.105 36.0477C726.34 34.3854 730.235 34.5701 733.643 34.5239L733.266 33.8159L734.397 33.3695C732.795 32.3691 725.524 33.3695 723.859 31.4456H723.843Z" fill="#343838"/>
<path d="M1006.99 45.6214C1009.13 45.3136 1008.96 46.1601 1010.76 46.0062C1012.21 42.0813 1019.39 43.1587 1024.3 41.4041L1030.73 42.5585C1028.65 41.8812 1026.47 39.988 1023.2 41.2194L1023.58 40.6345C1021.99 38.7567 1017.06 38.5874 1014.53 37.1867C1013.64 33.1386 1019.23 32.4152 1021.32 29.9064L1020.03 29.6293L1019.06 29.1368C1016.61 30.0603 1012.15 29.9679 1007.76 29.9064C1006.19 28.9059 1006.13 27.1512 1001.73 27.5976C1001.29 28.398 999.865 28.6904 1000.23 29.9064C1001.48 30.5374 1003.27 30.9068 1003.24 32.1997C1002.35 34.6778 998.404 35.6167 994.965 36.8019L995.342 37.4945L994.211 37.9409C994.839 38.7721 996.158 39.2492 995.718 40.6191C1000.32 41.2963 998.922 38.926 1003.24 39.4647C1003.18 42.1121 996.629 41.4656 997.226 44.4517L997.98 44.267L998.734 44.4517C999.708 43.9283 1002.02 44.0669 1004.01 44.0669C1003.79 44.9442 1004.2 45.5137 1005.52 45.606L1006.27 45.8061L1007.03 46.0062V45.6214H1006.99Z" fill="#343838"/>
<path d="M987.41 49.0693C988.777 50.3776 987.803 51.1626 986.656 52.1477C988.949 51.8706 989.405 52.5325 991.18 52.5325C992.122 49.8081 995.923 48.5614 996.441 45.6215L996.064 45.2367L996.441 44.8519C990.818 44.9289 992.609 48.7768 987.41 49.0693Z" fill="#343838"/>
<path d="M987.41 34.5086C983.5 34.7856 985.369 37.51 988.918 37.1868L988.651 36.4941L989.672 36.0324C989.358 35.3089 989.405 34.3854 987.41 34.5086Z" fill="#343838"/>
<path d="M1026.58 22.626C1022.23 22.5798 1020.14 23.7034 1019.06 25.3196C1019.73 25.9968 1022.12 25.8121 1021.32 27.2282L1022.7 27.0435L1023.58 27.613C1025.59 26.4586 1025.62 24.3037 1026.6 22.626H1026.58Z" fill="#343838"/>
<path d="M1033.35 50.2237C1037.27 48.1304 1044.66 47.8072 1048.41 45.6215C1046.24 43.6975 1040.51 45.8678 1037.87 44.0823C1037.51 42.8818 1038.94 42.5893 1039.38 41.7889L1038.09 41.5273L1037.12 41.0347C1033.36 40.6653 1032.64 41.8197 1030.33 42.1891L1030.71 42.5739L1030.33 42.9587C1032.94 44.5749 1032.01 47.9919 1033.35 50.2391V50.2237Z" fill="#343838"/>
<path d="M1043.15 41.0193C1043.68 38.5874 1046.1 36.2479 1045.41 34.1238C1042.65 34.2469 1042.38 35.6476 1038.64 35.2782C1037.45 36.7096 1040.64 37.2945 1037.89 38.7259C1039.87 38.6028 1040.35 39.2493 1040.15 40.2651H1041.64V41.0347C1041.77 41.0193 1043.15 41.0655 1043.15 41.0347V41.0193Z" fill="#343838"/>
<path d="M1101.51 45.4368L1101.89 46.0063C1103.61 45.3444 1106.74 45.406 1108.67 44.8519C1106.8 44.0207 1105.72 42.774 1101.89 42.9279C1101.26 43.7591 1099.94 44.2362 1100.38 45.6061L1101.51 45.4214V45.4368Z" fill="#343838"/>
<path d="M1247.22 70.1563L1246.09 69.71L1246.47 69.0173C1244.6 68.6787 1240.63 68.2631 1238.93 69.0173C1237.75 71.5262 1242.95 70.8028 1242.7 72.8499C1244.18 72.973 1244.19 72.3266 1244.96 72.0803L1244.59 71.5108L1245.72 71.6955C1244.85 70.4949 1246.89 70.772 1247.22 70.1563Z" fill="#343838"/>
<path d="M1277.36 78.9756C1277.24 79.4219 1276.17 79.3912 1275.1 79.3604C1273.72 79.8991 1276.29 81.2228 1274.35 82.0386C1275.23 82.3618 1276.37 82.5465 1278.12 82.4234L1277.74 81.7153L1278.87 81.269C1278.79 80.2839 1278.45 79.4373 1277.36 78.9756Z" fill="#343838"/>
<path d="M1308.22 70.9256C1307.33 70.4947 1305.57 70.4947 1303.7 70.5408L1303.32 71.1103L1302.19 70.9102C1302.07 72.2647 1304.85 72.1108 1305.96 72.8342V72.4494H1306.72C1308.04 72.1108 1309.62 71.5875 1308.22 70.9102V70.9256Z" fill="#343838"/>
<path d="M203.446 72.8496C201.64 73.0035 203.87 71.0949 201.184 71.6952C200.211 72.8496 205.315 73.6346 203.446 72.8496Z" fill="#343838"/>
<path d="M395.491 61.7214C395.522 61.4905 395.601 61.275 396.245 61.3366C397.25 61.4597 397.674 61.8753 399.26 61.7214L400.014 61.5367L400.784 61.7214V61.3366C402.527 60.8132 405.056 60.7055 406.799 60.1822C404.977 58.9047 402.637 58.1043 405.307 56.3496C402.056 56.6267 401.223 57.5194 397.768 56.7344C400.501 59.0586 394.58 60.5208 395.507 61.7214H395.491Z" fill="#343838"/>
<path d="M1606.45 64.4149C1606.45 64.4149 1604.41 64.4149 1604.19 64.4149C1600.41 64.3687 1607.46 65.3692 1606.45 64.4149Z" fill="#343838"/>
<path d="M1372.24 57.1192C1374.61 56.8575 1375.32 57.1654 1376.01 56.7344C1374.37 56.796 1375.66 55.3799 1375.25 54.8104C1373.21 55.2876 1371.72 55.4415 1370.73 55.58C1372.13 55.6416 1371.2 56.8729 1372.24 57.1192Z" fill="#343838"/>
<path d="M798.396 38.7259C798.946 37.6793 796.889 37.9563 796.889 37.2021C796.135 35.0319 795.632 39.2646 798.396 38.7259Z" fill="#343838"/>
<path d="M1174.18 34.1237C1176.82 34.4316 1177.43 31.7226 1176.44 31.4456C1177.18 33.308 1172.23 31.307 1172.67 32.2151C1173.8 32.5384 1173.77 33.4465 1174.18 34.1237Z" fill="#343838"/>
<path d="M765.996 21.4717C765.227 21.5178 764.488 19.8247 763.735 21.0869C764.818 20.8868 765.572 22.5799 765.996 21.4717Z" fill="#343838"/>
<path d="M525.767 88.9342C526.301 90.0732 526.631 91.3045 528.029 91.9972H531.028C533.651 90.2579 528.201 88.0876 525.767 88.9342Z" fill="#343838"/>
<path d="M177.469 79.7452L181.239 80.3147C180.061 80.0068 178.898 79.6066 177.469 79.7452Z" fill="#343838"/>
<path d="M397.376 67.4779L395.868 67.6626C396.449 67.6164 397.015 67.5395 397.376 67.4779Z" fill="#343838"/>
<path d="M1218.22 62.1062C1217.09 61.5521 1215.97 60.8595 1214.48 60.5824L1218.25 64.2303C1218.25 63.5222 1218.28 62.8142 1218.23 62.1062H1218.22Z" fill="#343838"/>
<path d="M126.254 66.893L129.27 66.5082C128.233 66.5082 127.118 66.6005 126.254 66.893Z" fill="#343838"/>
<path d="M502.429 63.8301C502.68 64.0148 503.01 64.2764 503.56 64.415L502.429 63.8301Z" fill="#343838"/>
<path d="M416.568 59.8127C417.416 60.1206 418.735 60.2899 419.96 60.3822L416.568 59.8127Z" fill="#343838"/>
<path d="M1154.23 51.5627L1155.9 52.2554C1155.43 52.0245 1154.99 51.8706 1154.23 51.5627Z" fill="#343838"/>
<path d="M1490.48 53.302C1490.03 53.1481 1489.48 52.9788 1488.98 52.9172L1490.48 53.302Z" fill="#343838"/>
<path d="M1379.4 55.2106L1375.25 53.6714C1376.54 54.3332 1377.2 55.3799 1379.4 55.2106Z" fill="#343838"/>
<path d="M1387.43 50.9316C1388.75 51.3318 1389.34 51.7012 1390.69 51.7628L1387.43 50.9316Z" fill="#343838"/>
<path d="M539.713 50.4237C539.996 50.0389 540.372 49.7618 540.466 49.2693L539.713 50.4237Z" fill="#343838"/>
<path d="M383.052 50.2236H384.56C384.215 50.1929 383.634 50.2236 383.052 50.2236Z" fill="#343838"/>
<path d="M172.177 48.469L174.454 48.115C173.637 48.115 172.915 48.2997 172.177 48.469Z" fill="#343838"/>
<path d="M179.731 48.1149C181.757 47.9764 183.909 47.7917 185.746 47.3453L179.731 48.1149Z" fill="#343838"/>
<path d="M490.744 41.2195C492.142 40.9424 493.273 40.4653 494.513 40.0651L490.744 41.2195Z" fill="#343838"/>
<path d="M157.131 39.2954C157.507 39.988 157.429 40.4806 157.884 40.8346L157.131 39.2954Z" fill="#343838"/>
<path d="M543.467 38.926L539.713 39.1107C540.954 39.3724 542.336 39.2954 543.467 38.926Z" fill="#343838"/>
<path d="M642.631 25.3812L635.343 29.0907C638.594 28.4134 641.186 26.982 642.631 25.3812Z" fill="#343838"/>
<path d="M628.025 30.9222L626.156 32.3229C626.69 31.9689 627.302 31.5687 628.025 30.9222Z" fill="#343838"/>
<path d="M984.034 28.5673L985.651 26.6587C984.929 27.259 983.908 27.7977 984.034 28.5673Z" fill="#343838"/>
<path d="M822.111 21.0869L828.221 22.9955C826.305 22.2413 825.142 20.3481 822.111 21.0869Z" fill="#343838"/>
<path d="M634.213 20.1326L631.951 22.0412C632.878 21.4717 634.228 20.9483 634.213 20.1326Z" fill="#343838"/>
<path d="M656.812 17.639L657.943 18.9781C657.928 18.424 657.645 17.9931 656.812 17.639Z" fill="#343838"/>
<path d="M673.869 16.0384L682.051 16.1153C679.46 15.1918 676.664 15.3457 673.869 16.0384Z" fill="#343838"/>
<path d="M755.081 8.25012C755.804 8.43482 756.589 8.45022 757.358 8.481L755.081 8.25012Z" fill="#343838"/>
<path d="M140.185 73.9887L139.305 72.7727C139.023 73.1421 139.714 73.65 140.185 73.9887Z" fill="#343838"/>
<path d="M160.146 64.2148L160.9 66.1388C161.591 65.477 161.183 64.7074 160.146 64.2148Z" fill="#343838"/>
<path d="M204.404 85.117C203.948 84.8861 203.116 84.7014 201.938 84.5321L201.561 87.5951C203.87 87.826 205.393 86.0713 204.404 85.117Z" fill="#343838"/>
<path d="M234.7 83.7624L230.93 80.6995C231.669 81.9 232.972 82.8389 234.7 83.7624Z" fill="#343838"/>
<path d="M200.823 50.7931C200.383 50.4853 199.724 50.3621 199.064 50.2698L200.823 50.7931Z" fill="#343838"/>
<path d="M199.064 50.2699L197.054 49.6542C197.525 50.039 198.295 50.1467 199.064 50.2699Z" fill="#343838"/>
<path d="M223.031 55.5954C224.837 55.6107 226.549 55.3029 228.323 55.0566L223.031 55.5954Z" fill="#343838"/>
<path d="M231.322 67.4779L230.946 65.3693C231.087 66.0619 230.585 66.8469 231.322 67.4779Z" fill="#343838"/>
<path d="M281.392 81.8539L279.13 81.4691C279.727 81.6538 280.339 81.7154 281.392 81.8539Z" fill="#343838"/>
<path d="M279.9 61.9214L284.658 61.6752C283.104 61.552 281.345 61.4443 279.9 61.9214Z" fill="#343838"/>
<path d="M278.392 54.6411C277.842 54.4564 277.214 54.4564 276.57 54.4564L278.392 54.6411Z" fill="#343838"/>
<path d="M276.57 54.4564L274.623 54.2563C275.188 54.4718 275.879 54.4564 276.57 54.4564Z" fill="#343838"/>
<path d="M285.915 57.7041L287.046 58.8585C286.889 58.4275 286.653 58.1812 285.915 57.7041Z" fill="#343838"/>
<path d="M387.199 69.5865V71.5105C387.261 70.8333 388.062 70.233 387.199 69.5865Z" fill="#343838"/>
<path d="M530.667 82.6234L528.406 84.2857C529.584 83.9317 530.369 83.1467 530.667 82.6234Z" fill="#343838"/>
<path d="M567.575 72.6496L569.836 71.88C568.91 72.1263 568.109 72.3725 567.575 72.6496Z" fill="#343838"/>
<path d="M618.523 36.6172L619.528 35.6783C619.041 35.9554 618.633 36.2325 618.523 36.6172Z" fill="#343838"/>
<path d="M621.413 33.9391L619.528 35.6784C620.455 35.155 621.648 34.7241 621.413 33.9391Z" fill="#343838"/>
<path d="M635.595 33.5543L633.239 37.0791C635.218 36.1402 635.312 34.8165 635.595 33.5543Z" fill="#343838"/>
<path d="M665.906 27.7977H663.974C664.602 27.9363 665.246 27.8901 665.906 27.7977Z" fill="#343838"/>
<path d="M665.906 27.7977H669.236C668.136 27.3975 667.005 27.6437 665.906 27.7977Z" fill="#343838"/>
<path d="M680.528 24.7347L685.051 23.9651C683.449 24.119 681.957 24.2883 680.528 24.7347Z" fill="#343838"/>
<path d="M703.128 48.1149C703.426 47.6993 703.504 47.2837 703.614 46.8682L703.128 48.1149Z" fill="#343838"/>
<path d="M733.25 33.8005L736.517 35.8477C735.889 35.0319 734.79 34.2161 733.25 33.8005Z" fill="#343838"/>
<path d="M795.758 40.2036L797.642 40.2652C797.156 40.1882 796.417 40.1728 795.758 40.2036Z" fill="#343838"/>
<path d="M844.712 45.6215C843.204 45.8523 842.073 46.4218 840.942 46.9606L844.712 45.6215Z" fill="#343838"/>
<path d="M914.742 40.4499L917.741 40.8347C916.862 40.5268 915.951 40.219 914.742 40.4499Z" fill="#343838"/>
<path d="M920.773 41.2194L917.741 40.8346C918.699 41.1732 919.61 41.5272 920.773 41.2194Z" fill="#343838"/>
<path d="M916.626 43.7129L913.344 43.405C914.443 43.6667 915.762 43.836 916.626 43.7129Z" fill="#343838"/>
<path d="M929.049 44.6672L932.819 43.8976C931.594 44.19 930.117 44.2054 929.049 44.6672Z" fill="#343838"/>
<path d="M969.585 56.565C970.401 56.565 971.202 56.565 971.988 56.4265L969.585 56.565Z" fill="#343838"/>
<path d="M967.465 56.6728L969.585 56.5497C968.862 56.5497 968.156 56.5497 967.465 56.6728Z" fill="#343838"/>
<path d="M997.964 44.2823L996.08 45.2366C996.724 44.9596 997.556 44.6825 997.964 44.2823Z" fill="#343838"/>
<path d="M995.326 37.51L988.651 36.5095C990.677 37.2022 992.923 37.4638 995.326 37.51Z" fill="#343838"/>
<path d="M1022.68 27.0435L1020.01 29.6447C1021.19 28.8751 1022.42 28.0439 1022.68 27.0435Z" fill="#343838"/>
<path d="M1038.09 41.5273C1039.24 41.0809 1040.65 40.8192 1041.63 40.2651L1038.09 41.5273Z" fill="#343838"/>
<path d="M1006.62 46.9759L1006.24 45.8215C1006.21 46.2063 1006.41 46.5911 1006.62 46.9759Z" fill="#343838"/>
<path d="M1001.34 74.9429L1002.85 74.5581C1002.33 74.6043 1001.84 74.7736 1001.34 74.9429Z" fill="#343838"/>
<path d="M1099.25 46.5911L1100.71 45.8523C1100.22 46.037 1099.74 46.1601 1099.25 46.5911Z" fill="#343838"/>
<path d="M1111.4 60.2745L1113.18 60.7671C1112.77 60.5978 1112 60.4131 1111.4 60.2745Z" fill="#343838"/>
<path d="M1246.86 72.08L1244.6 71.5105C1245.51 71.8491 1246.41 72.0338 1246.86 72.08Z" fill="#343838"/>
<path d="M1307.11 73.2191L1305.98 72.4495C1306.39 72.7265 1306.61 73.1267 1307.11 73.2191Z" fill="#343838"/>
<path d="M1300.43 69.094L1303.34 71.1257C1302.85 70.2638 1301.63 69.6943 1300.43 69.094Z" fill="#343838"/>
<path d="M1529.26 68.0474L1528.51 68.817C1528.85 68.5553 1529.17 68.309 1529.26 68.0474Z" fill="#343838"/>
<path d="M1641.1 71.1104L1640.97 72.0031C1641.04 71.7568 1641.1 71.5105 1641.1 71.1104Z" fill="#343838"/>
<path d="M1637.71 67.6626C1636.95 67.5548 1636.2 67.4625 1635.44 67.4779L1637.71 67.6626Z" fill="#343838"/>
<path d="M262.451 81.7154C261.917 81.5461 261.038 81.5153 260.315 81.4691L262.828 82.2387C262.702 82.0694 262.577 81.9001 262.451 81.7154Z" fill="#343838"/>
<path d="M609.743 48.8845L608.99 47.3453C608.958 47.607 609.319 48.2842 609.743 48.8845Z" fill="#343838"/>
<path d="M600.713 45.0519L603.729 44.4824C603.163 44.6056 601.922 44.6209 600.713 45.0519Z" fill="#343838"/>
<path d="M533.683 91.8124L529.913 93.3516C530.651 93.3208 531.405 93.3208 532.112 93.2284C532.897 92.859 533.369 92.3357 533.683 91.8124Z" fill="#343838"/>
<path d="M401.334 63.0604C402.229 62.2908 399.669 62.2139 399.999 61.5366L398.507 64.7843C398.915 63.9531 399.936 63.476 401.334 63.0604Z" fill="#343838"/>
<path d="M938.833 25.8891L938.08 25.5043C938.237 25.6736 938.425 25.8429 938.833 25.8891Z" fill="#343838"/>
</svg>
