<svg width="53" height="54" viewBox="0 0 53 54" fill="none" xmlns="http://www.w3.org/2000/svg">
<path fill-rule="evenodd" clip-rule="evenodd" d="M11.0873 18.5272C7.01678 18.5272 3.68759 21.8564 3.68759 25.9269V42.4719C3.68759 46.5424 7.01678 49.8716 11.0873 49.8716H39.3097C43.3802 49.8716 46.7094 46.5424 46.7094 42.4719V41.3902H43.8823C40.4171 41.3902 37.0537 38.8563 36.7357 35.1132C36.5372 32.9935 37.3442 31.0134 38.7426 29.639C40.0003 28.3562 41.7247 27.6232 43.5873 27.6232H46.7094V25.9269C46.7094 21.8564 43.3802 18.5272 39.3097 18.5272H11.0873ZM0 25.9269C0 19.8198 4.98017 14.8396 11.0873 14.8396H39.3097C45.4169 14.8396 50.397 19.8198 50.397 25.9269V29.467C50.397 30.4853 49.5715 31.3108 48.5532 31.3108H43.5873C42.7046 31.3108 41.9283 31.6531 41.3682 32.2283L41.3352 32.2614C40.6811 32.8999 40.3157 33.809 40.4077 34.7744L40.4097 34.7961L40.4096 34.7961C40.5397 36.3571 42.0407 37.7026 43.8823 37.7026H48.5532C49.5715 37.7026 50.397 38.5281 50.397 39.5464V42.4719C50.397 48.579 45.4169 53.5592 39.3097 53.5592H11.0873C4.98017 53.5592 0 48.579 0 42.4719V25.9269Z" fill="#E74C3C"/>
<path fill-rule="evenodd" clip-rule="evenodd" d="M30.3611 7.3412C30.3611 5.356 28.3771 3.99311 26.5404 4.6893L7.01974 12.0648C5.0118 12.825 3.68759 14.7421 3.68759 16.9044V28.1391C3.68759 29.1574 2.86209 29.9829 1.84379 29.9829C0.825495 29.9829 0 29.1574 0 28.1391V16.9044C0 13.216 2.2655 9.92101 5.71473 8.61589L25.2334 1.24109C25.233 1.24123 25.2337 1.24096 25.2334 1.24109C29.4931 -0.372673 34.0487 2.78747 34.0487 7.3412V16.6831C34.0487 17.7014 33.2232 18.5269 32.2049 18.5269C31.1866 18.5269 30.3611 17.7014 30.3611 16.6831V7.3412Z" fill="#E74C3C"/>
<path fill-rule="evenodd" clip-rule="evenodd" d="M43.5843 31.3112C42.7016 31.3112 41.9253 31.6534 41.3652 32.2286L41.3322 32.2617C40.6781 32.9002 40.3127 33.8093 40.4047 34.7747L40.4067 34.7964L40.4066 34.7964C40.5367 36.3574 42.0377 37.7029 43.8793 37.7029H48.6554C49.0528 37.6773 49.3124 37.3665 49.3124 37.0392V31.9748C49.3124 31.6475 49.0528 31.3368 48.6554 31.3112H43.5843ZM38.7396 29.6393C39.9973 28.3565 41.7217 27.6236 43.5843 27.6236H48.6978C48.7197 27.6236 48.7416 27.624 48.7636 27.6247C51.1064 27.7084 52.9999 29.6043 52.9999 31.9748V37.0392C52.9999 39.4098 51.1064 41.3057 48.7636 41.3893C48.7416 41.3901 48.7197 41.3905 48.6978 41.3905H43.8793C40.4141 41.3905 37.0507 38.8566 36.7327 35.1135C36.5342 32.9939 37.3412 31.0137 38.7396 29.6393Z" fill="#E74C3C"/>
<path fill-rule="evenodd" clip-rule="evenodd" d="M11.0627 27.1313C11.0627 26.113 11.8882 25.2875 12.9065 25.2875H30.1153C31.1336 25.2875 31.9591 26.113 31.9591 27.1313C31.9591 28.1496 31.1336 28.9751 30.1153 28.9751H12.9065C11.8882 28.9751 11.0627 28.1496 11.0627 27.1313Z" fill="#E74C3C"/>
</svg>
