<svg width="22" height="22" viewBox="0 0 22 22" fill="none" xmlns="http://www.w3.org/2000/svg">
<path fill-rule="evenodd" clip-rule="evenodd" d="M4.51 7.75C2.85422 7.75 1.5 9.10422 1.5 10.76V17.49C1.5 19.1458 2.85422 20.5 4.51 20.5H15.99C17.6458 20.5 19 19.1458 19 17.49V17.05H17.85C16.4405 17.05 15.0723 16.0193 14.943 14.4967C14.8622 13.6345 15.1905 12.829 15.7593 12.27C16.2709 11.7481 16.9724 11.45 17.73 11.45H19V10.76C19 9.10422 17.6458 7.75 15.99 7.75H4.51ZM0 10.76C0 8.2758 2.02578 6.25 4.51 6.25H15.99C18.4742 6.25 20.5 8.2758 20.5 10.76V12.2C20.5 12.6142 20.1642 12.95 19.75 12.95H17.73C17.3709 12.95 17.0552 13.0892 16.8274 13.3232L16.8139 13.3367C16.5478 13.5964 16.3992 13.9662 16.4366 14.3589L16.4375 14.3677L16.4374 14.3677C16.4903 15.0027 17.1009 15.55 17.85 15.55H19.75C20.1642 15.55 20.5 15.8858 20.5 16.3V17.49C20.5 19.9742 18.4742 22 15.99 22H4.51C2.02578 22 0 19.9742 0 17.49V10.76Z" fill="#E74C3C"/>
<path fill-rule="evenodd" clip-rule="evenodd" d="M12.35 3.20001C12.35 2.39248 11.543 1.8381 10.7958 2.12129L2.85542 5.12144C2.03865 5.43065 1.5 6.21046 1.5 7.09002V11.66C1.5 12.0742 1.16421 12.41 0.75 12.41C0.335786 12.41 0 12.0742 0 11.66V7.09002C0 5.5897 0.921537 4.24939 2.32458 3.71851L10.2642 0.718665C10.264 0.718719 10.2643 0.71861 10.2642 0.718665C11.9969 0.0622333 13.85 1.34768 13.85 3.20001V6.99999C13.85 7.41421 13.5142 7.74999 13.1 7.74999C12.6858 7.74999 12.35 7.41421 12.35 6.99999V3.20001Z" fill="#E74C3C"/>
<path fill-rule="evenodd" clip-rule="evenodd" d="M17.7288 12.9502C17.3698 12.9502 17.054 13.0894 16.8262 13.3234L16.8127 13.3369C16.5467 13.5966 16.3981 13.9664 16.4355 14.3591L16.4363 14.3679L16.4363 14.3679C16.4892 15.0029 17.0997 15.5502 17.8488 15.5502H19.7916C19.9533 15.5397 20.0588 15.4133 20.0588 15.2802V13.2202C20.0588 13.087 19.9533 12.9606 19.7916 12.9502H17.7288ZM15.7582 12.2701C16.2698 11.7483 16.9712 11.4502 17.7288 11.4502H19.8088C19.8178 11.4502 19.8267 11.4504 19.8356 11.4507C20.7886 11.4847 21.5588 12.2559 21.5588 13.2202V15.2802C21.5588 16.2445 20.7886 17.0157 19.8356 17.0497C19.8267 17.05 19.8178 17.0502 19.8088 17.0502H17.8488C16.4393 17.0502 15.0712 16.0195 14.9418 14.4969C14.8611 13.6347 15.1894 12.8292 15.7582 12.2701Z" fill="#E74C3C"/>
<path fill-rule="evenodd" clip-rule="evenodd" d="M4.5 11.25C4.5 10.8358 4.83579 10.5 5.25 10.5H12.25C12.6642 10.5 13 10.8358 13 11.25C13 11.6642 12.6642 12 12.25 12H5.25C4.83579 12 4.5 11.6642 4.5 11.25Z" fill="#E74C3C"/>
</svg>
