<svg width="69" height="70" viewBox="0 0 69 70" fill="none" xmlns="http://www.w3.org/2000/svg">
<path d="M54.5186 26.5523C54.5186 30.6991 53.2889 34.5026 51.1726 37.677C48.084 42.2527 43.1937 45.4843 37.5027 46.3136C36.5304 46.4852 35.5294 46.571 34.4999 46.571C33.4704 46.571 32.4694 46.4852 31.4971 46.3136C25.8061 45.4843 20.9158 42.2527 17.8272 37.677C15.7109 34.5026 14.4812 30.6991 14.4812 26.5523C14.4812 15.4848 23.4324 6.53363 34.4999 6.53363C45.5674 6.53363 54.5186 15.4848 54.5186 26.5523Z" stroke="#E74C3C" stroke-width="3" stroke-linecap="round" stroke-linejoin="round"/>
<path d="M60.9531 53.6345L56.2344 54.7498C55.1762 55.0071 54.3469 55.8079 54.1181 56.8661L53.1172 61.07C52.5738 63.3579 49.6568 64.0442 48.1411 62.2425L34.4998 46.5707L20.8585 62.2711C19.3428 64.0728 16.4258 63.3864 15.8824 61.0985L14.8815 56.8946C14.6241 55.8365 13.7947 55.0072 12.7652 54.7784L8.04651 53.6631C5.87305 53.1483 5.1009 50.4314 6.6738 48.8585L17.8271 37.7053C20.9157 42.281 25.8059 45.5126 31.497 46.342C32.4693 46.5136 33.4702 46.5994 34.4998 46.5994C35.5293 46.5994 36.5303 46.5136 37.5026 46.342C43.1936 45.5126 48.0839 42.281 51.1725 37.7053L62.3258 48.8585C63.8987 50.4028 63.1265 53.1197 60.9531 53.6345Z" stroke="#E74C3C" stroke-width="3" stroke-linecap="round" stroke-linejoin="round"/>
<path d="M36.1586 17.9157L37.8459 21.2902C38.0746 21.7478 38.6752 22.2054 39.2186 22.2912L42.2786 22.8059C44.2232 23.1205 44.6808 24.5504 43.2795 25.9517L40.9059 28.3254C40.5055 28.7257 40.2767 29.4979 40.4197 30.0699L41.1061 33.0155C41.6494 35.3319 40.4197 36.247 38.3606 35.0173L35.5008 33.33C34.986 33.0154 34.1281 33.0154 33.6133 33.33L30.7535 35.0173C28.6945 36.2184 27.4647 35.3319 28.0081 33.0155L28.6945 30.0699C28.8089 29.5265 28.6087 28.7257 28.2083 28.3254L25.8346 25.9517C24.4333 24.5504 24.8909 23.1491 26.8356 22.8059L29.8956 22.2912C30.4103 22.2054 31.0109 21.7478 31.2397 21.2902L32.927 17.9157C33.7563 16.0854 35.2434 16.0854 36.1586 17.9157Z" stroke="#E74C3C" stroke-width="3" stroke-linecap="round" stroke-linejoin="round"/>
</svg>
