<svg width="50" height="50" viewBox="0 0 50 50" fill="none" xmlns="http://www.w3.org/2000/svg">
<path d="M45.8334 13.0209V23.6458C45.8334 26.2916 44.9584 28.5208 43.3959 30.0625C41.8543 31.625 39.6251 32.5 36.9793 32.5V36.2708C36.9793 37.6875 35.3959 38.5417 34.2292 37.75L32.2084 36.4166C32.3959 35.7708 32.4792 35.0625 32.4792 34.3125V25.8334C32.4792 21.5834 29.6459 18.75 25.3959 18.75H11.2501C10.9584 18.75 10.6876 18.7709 10.4167 18.7917V13.0209C10.4167 7.70835 13.9584 4.16669 19.2709 4.16669H36.9793C42.2918 4.16669 45.8334 7.70835 45.8334 13.0209Z" stroke="#F1F1F1" stroke-width="2" stroke-miterlimit="10" stroke-linecap="round" stroke-linejoin="round"/>
<path d="M32.4792 25.8334V34.3124C32.4792 35.0624 32.3959 35.7708 32.2084 36.4166C31.4376 39.4791 28.8959 41.3958 25.3959 41.3958H19.7293L13.4376 45.5833C12.5001 46.2292 11.2501 45.5417 11.2501 44.4167V41.3958C9.12507 41.3958 7.35425 40.6875 6.12509 39.4583C4.87509 38.2083 4.16675 36.4374 4.16675 34.3124V25.8334C4.16675 21.8751 6.62508 19.1459 10.4167 18.7917C10.6876 18.7709 10.9584 18.75 11.2501 18.75H25.3959C29.6459 18.75 32.4792 21.5834 32.4792 25.8334Z" stroke="#F1F1F1" stroke-width="2" stroke-miterlimit="10" stroke-linecap="round" stroke-linejoin="round"/>
</svg>
