<svg width="50" height="50" viewBox="0 0 50 50" fill="none" xmlns="http://www.w3.org/2000/svg">
<rect width="50" height="50" rx="1" fill="#343838"/>
<path fill-rule="evenodd" clip-rule="evenodd" d="M7.40607 25.5307C16.8013 21.5322 23.0662 18.8962 26.2009 17.6225C35.1511 13.9861 37.0109 13.3545 38.223 13.3336C38.4896 13.329 39.0857 13.3936 39.4719 13.6996C39.7979 13.958 39.8876 14.3071 39.9306 14.5522C39.9735 14.7972 40.0269 15.3554 39.9844 15.7915C39.4994 20.7695 37.4008 32.8497 36.3331 38.4251C35.8813 40.7842 34.9918 41.5753 34.1306 41.6527C32.2591 41.8209 30.8379 40.4445 29.0252 39.2838C26.1887 37.4675 24.5862 36.3368 21.8329 34.5645C18.6509 32.5162 20.7137 31.3905 22.527 29.5507C23.0016 29.0692 31.2477 21.7425 31.4074 21.0778C31.4273 20.9947 31.4458 20.6849 31.2574 20.5213C31.069 20.3576 30.7908 20.4136 30.5901 20.4581C30.3056 20.5212 25.7743 23.4468 16.996 29.2351C15.7098 30.0978 14.5448 30.5182 13.501 30.4961C12.3503 30.4719 10.1367 29.8606 8.49121 29.3381C6.4729 28.6972 4.8688 28.3584 5.00848 27.27C5.08123 26.7031 5.88043 26.1233 7.40607 25.5307Z" fill="#F1F1F1"/>
</svg>
