<svg width="70" height="70" viewBox="0 0 70 70" fill="none" xmlns="http://www.w3.org/2000/svg">
<path d="M60.967 25.3513V44.9123C60.967 48.1153 59.2511 51.0896 56.4771 52.7197L39.4898 62.5289C36.7157 64.1304 33.284 64.1304 30.4814 62.5289L13.4941 52.7197C10.72 51.1182 9.00415 48.1439 9.00415 44.9123V25.3513C9.00415 22.1483 10.72 19.174 13.4941 17.5439L30.4814 7.73475C33.2554 6.13326 36.6871 6.13326 39.4898 7.73475L56.4771 17.5439C59.2511 19.174 60.967 22.1197 60.967 25.3513Z" stroke="#E74C3C" stroke-width="4" stroke-linecap="round" stroke-linejoin="round"/>
<path d="M34.9998 32.272C38.6799 32.272 41.6632 29.2887 41.6632 25.6086C41.6632 21.9285 38.6799 18.9454 34.9998 18.9454C31.3197 18.9454 28.3364 21.9285 28.3364 25.6086C28.3364 29.2887 31.3197 32.272 34.9998 32.272Z" stroke="#E74C3C" stroke-width="4" stroke-linecap="round" stroke-linejoin="round"/>
<path d="M46.4391 48.4586C46.4391 43.311 41.32 39.1358 34.9998 39.1358C28.6796 39.1358 23.5605 43.311 23.5605 48.4586" stroke="#E74C3C" stroke-width="4" stroke-linecap="round" stroke-linejoin="round"/>
</svg>
