<svg width="50" height="50" viewBox="0 0 50 50" fill="none" xmlns="http://www.w3.org/2000/svg">
<rect width="50" height="50" rx="1" fill="#343838"/>
<g clip-path="url(#clip0_114_12793)">
<path d="M40.2174 30.3942C39.4916 29.523 38.6669 28.7422 37.8693 27.9871C37.5857 27.7185 37.2924 27.4409 37.0098 27.1648C36.1982 26.3713 36.1687 26.0732 36.8112 25.172C37.2557 24.5507 37.7271 23.9287 38.1829 23.327C38.5963 22.7812 39.0239 22.2168 39.4336 21.6505L39.5178 21.534C40.301 20.4504 41.1109 19.3298 41.542 17.978C41.6539 17.6214 41.7715 17.0966 41.5027 16.6577C41.2342 16.2193 40.7132 16.0855 40.3446 16.023C40.1623 15.9921 39.9813 15.9879 39.8133 15.9879L34.6843 15.9842L34.6419 15.9838C33.8664 15.9838 33.3438 16.3493 33.0444 17.1012C32.7585 17.8196 32.4444 18.5846 32.086 19.312C31.3728 20.7605 30.4671 22.4288 29.1564 23.8202L29.101 23.8794C28.9462 24.0457 28.7709 24.2341 28.6427 24.2341C28.623 24.2341 28.6017 24.2303 28.5774 24.2227C28.306 24.1169 28.1237 23.4597 28.132 23.154C28.1321 23.1498 28.1322 23.1456 28.1322 23.1413L28.1286 17.2133C28.1286 17.1927 28.1271 17.1724 28.1245 17.152C27.994 16.1883 27.705 15.5885 26.613 15.3746C26.584 15.3688 26.5543 15.366 26.5248 15.366H21.1916C20.3228 15.366 19.844 15.7191 19.394 16.2477C19.2725 16.389 19.0196 16.6831 19.145 17.04C19.2721 17.4021 19.6849 17.4795 19.8193 17.5047C20.4865 17.6317 20.8626 18.0398 20.9691 18.7529C21.1551 19.9911 21.178 21.3128 21.0411 22.9123C21.0029 23.3569 20.9274 23.7002 20.803 23.9935C20.7741 24.062 20.6716 24.2854 20.5671 24.2855C20.5339 24.2855 20.4378 24.2724 20.2628 24.1519C19.8491 23.8685 19.5465 23.464 19.1936 22.9644C17.9931 21.2679 16.9856 19.3989 16.113 17.2494C15.7894 16.4582 15.1851 16.0152 14.4105 16.0022C13.5594 15.9892 12.7878 15.983 12.0518 15.983C11.2477 15.983 10.5023 15.9904 9.7743 16.0056C9.15113 16.0166 8.72008 16.2034 8.49327 16.5612C8.26609 16.9193 8.28087 17.3897 8.53722 17.9591C10.5893 22.5213 12.45 25.8384 14.5703 28.715C16.0561 30.7278 17.5463 32.121 19.2596 33.0992C21.0648 34.1319 23.0877 34.6339 25.4439 34.6339C25.7109 34.6339 25.9871 34.6274 26.2656 34.6144C27.6347 34.5477 28.1426 34.0521 28.2069 32.7191C28.2374 32.0378 28.3119 31.3233 28.6468 30.714C28.8582 30.3301 29.0553 30.3301 29.1201 30.3301C29.2448 30.3301 29.3995 30.3876 29.5657 30.4952C29.8637 30.6897 30.1192 30.9503 30.3287 31.1779C30.5259 31.3942 30.7208 31.6126 30.916 31.8312C31.3371 32.3029 31.7726 32.7905 32.2275 33.2531C33.2232 34.2661 34.3201 34.7116 35.5799 34.6149H40.2823C40.2923 34.6149 40.3024 34.6146 40.3124 34.6139C40.781 34.583 41.1868 34.3231 41.4258 33.9008C41.7219 33.3778 41.716 32.7104 41.4099 32.1153C41.0626 31.4424 40.6121 30.8675 40.2174 30.3942Z" fill="#F1F1F1"/>
</g>
<defs>
<clipPath id="clip0_114_12793">
<rect width="33.3333" height="33.3333" fill="white" transform="translate(8.33325 8.33337)"/>
</clipPath>
</defs>
</svg>
