<svg width="50" height="50" viewBox="0 0 50 50" fill="none" xmlns="http://www.w3.org/2000/svg">
<rect width="50" height="50" rx="1" fill="#343838"/>
<path d="M8.33325 41.6666L10.807 32.6837C9.27762 30.0471 8.47532 27.0611 8.48368 24.0086C8.48368 14.4435 16.306 6.66663 25.9085 6.66663C30.5718 6.66663 34.9509 8.47152 38.2353 11.7486C41.5281 15.0257 43.3416 19.3841 43.3332 24.0169C43.3332 33.582 35.5109 41.3589 25.9001 41.3589H25.8917C22.9751 41.3589 20.1086 40.6269 17.5596 39.2462L8.33325 41.6666ZM18.0025 36.1105L18.529 36.4266C20.7521 37.7408 23.301 38.4311 25.9001 38.4394H25.9085C33.8896 38.4394 40.3915 31.9767 40.3915 24.0252C40.3915 20.1742 38.8872 16.5561 36.1544 13.828C33.4216 11.0998 29.7778 9.6027 25.9085 9.6027C17.9273 9.59438 11.4254 16.0571 11.4254 24.0086C11.4254 26.7284 12.1859 29.3817 13.6401 31.6773L13.9827 32.2263L12.5202 37.5412L18.0025 36.1105Z" fill="#F1F1F1"/>
<path d="M8.33325 41.6666L10.807 32.6837C9.27762 30.0471 8.47532 27.0611 8.48368 24.0086C8.48368 14.4435 16.306 6.66663 25.9085 6.66663C30.5718 6.66663 34.9509 8.47152 38.2353 11.7486C41.5281 15.0257 43.3416 19.3841 43.3332 24.0169C43.3332 33.582 35.5109 41.3589 25.9001 41.3589H25.8917C22.9751 41.3589 20.1086 40.6269 17.5596 39.2462L8.33325 41.6666ZM18.0025 36.1105L18.529 36.4266C20.7521 37.7408 23.301 38.4311 25.9001 38.4394H25.9085C33.8896 38.4394 40.3915 31.9767 40.3915 24.0252C40.3915 20.1742 38.8872 16.5561 36.1544 13.828C33.4216 11.0998 29.7778 9.6027 25.9085 9.6027C17.9273 9.59438 11.4254 16.0571 11.4254 24.0086C11.4254 26.7284 12.1859 29.3817 13.6401 31.6773L13.9827 32.2263L12.5202 37.5412L18.0025 36.1105Z" stroke="#F1F1F1"/>
<path d="M8.33325 41.6666L10.807 32.6837C9.27762 30.0471 8.47532 27.0611 8.48368 24.0086C8.48368 14.4435 16.306 6.66663 25.9085 6.66663C30.5718 6.66663 34.9509 8.47152 38.2353 11.7486C41.5281 15.0257 43.3416 19.3841 43.3332 24.0169C43.3332 33.582 35.5109 41.3589 25.9001 41.3589H25.8917C22.9751 41.3589 20.1086 40.6269 17.5596 39.2462L8.33325 41.6666ZM18.0025 36.1105L18.529 36.4266C20.7521 37.7408 23.301 38.4311 25.9001 38.4394H25.9085C33.8896 38.4394 40.3915 31.9767 40.3915 24.0252C40.3915 20.1742 38.8872 16.5561 36.1544 13.828C33.4216 11.0998 29.7778 9.6027 25.9085 9.6027C17.9273 9.59438 11.4254 16.0571 11.4254 24.0086C11.4254 26.7284 12.1859 29.3817 13.6401 31.6773L13.9827 32.2263L12.5202 37.5412L18.0025 36.1105Z" fill="#F1F1F1"/>
<path d="M8.33325 41.6666L10.807 32.6837C9.27762 30.0471 8.47532 27.0611 8.48368 24.0086C8.48368 14.4435 16.306 6.66663 25.9085 6.66663C30.5718 6.66663 34.9509 8.47152 38.2353 11.7486C41.5281 15.0257 43.3416 19.3841 43.3332 24.0169C43.3332 33.582 35.5109 41.3589 25.9001 41.3589H25.8917C22.9751 41.3589 20.1086 40.6269 17.5596 39.2462L8.33325 41.6666ZM18.0025 36.1105L18.529 36.4266C20.7521 37.7408 23.301 38.4311 25.9001 38.4394H25.9085C33.8896 38.4394 40.3915 31.9767 40.3915 24.0252C40.3915 20.1742 38.8872 16.5561 36.1544 13.828C33.4216 11.0998 29.7778 9.6027 25.9085 9.6027C17.9273 9.59438 11.4254 16.0571 11.4254 24.0086C11.4254 26.7284 12.1859 29.3817 13.6401 31.6773L13.9827 32.2263L12.5202 37.5412L18.0025 36.1105Z" stroke="#F1F1F1"/>
<path d="M21.3775 15.9717C21.0516 15.2481 20.7089 15.2315 20.3997 15.2232C20.149 15.2148 19.8565 15.2148 19.564 15.2148C19.2715 15.2148 18.8035 15.323 18.4024 15.7555C18.3785 15.7813 18.352 15.8092 18.3234 15.8395C17.8717 16.3168 16.8813 17.3634 16.8813 19.3736C16.8813 21.4749 18.4034 23.5114 18.6522 23.8443C18.6555 23.8488 18.6586 23.8529 18.6614 23.8567C18.6774 23.8781 18.7071 23.9221 18.7504 23.986C19.2978 24.7949 22.0024 28.7916 26.0993 30.4026C29.4248 31.7114 30.358 31.5985 31.0933 31.5096C31.1711 31.5002 31.2466 31.491 31.3226 31.4839C32.1165 31.409 33.8966 30.4359 34.2643 29.4211C34.6237 28.4064 34.6237 27.5414 34.515 27.3584C34.4278 27.2115 34.222 27.1128 33.9194 26.9677C33.8451 26.932 33.765 26.8936 33.6793 26.851C33.2448 26.6348 31.1053 25.5868 30.7042 25.437C30.303 25.2956 30.0105 25.2208 29.7264 25.6533C29.4339 26.0858 28.5981 27.059 28.3474 27.3501C28.0967 27.6412 27.8376 27.6744 27.4031 27.4582C27.3324 27.423 27.2361 27.3815 27.1172 27.3302C26.505 27.0661 25.294 26.5437 23.9014 25.304C22.606 24.1561 21.7285 22.7339 21.4778 22.3013C21.2271 21.8688 21.4527 21.6359 21.67 21.4197C21.7929 21.2974 21.9362 21.1242 22.0803 20.95C22.1618 20.8516 22.2435 20.7529 22.3219 20.6628C22.5135 20.4428 22.5946 20.2745 22.7086 20.0381C22.7238 20.0064 22.7397 19.9736 22.7565 19.9392C22.8985 19.6481 22.8317 19.3985 22.723 19.1823C22.6734 19.0873 22.4686 18.588 22.2241 17.9919C21.9333 17.283 21.5864 16.4371 21.3775 15.9717Z" fill="#F1F1F1"/>
<path d="M21.3775 15.9717C21.0516 15.2481 20.7089 15.2315 20.3997 15.2232C20.149 15.2148 19.8565 15.2148 19.564 15.2148C19.2715 15.2148 18.8035 15.323 18.4024 15.7555C18.3785 15.7813 18.352 15.8092 18.3234 15.8395C17.8717 16.3168 16.8813 17.3634 16.8813 19.3736C16.8813 21.4749 18.4034 23.5114 18.6522 23.8443C18.6555 23.8488 18.6586 23.8529 18.6614 23.8567C18.6774 23.8781 18.7071 23.9221 18.7504 23.986C19.2978 24.7949 22.0024 28.7916 26.0993 30.4026C29.4248 31.7114 30.358 31.5985 31.0933 31.5096C31.1711 31.5002 31.2466 31.491 31.3226 31.4839C32.1165 31.409 33.8966 30.4359 34.2643 29.4211C34.6237 28.4064 34.6237 27.5414 34.515 27.3584C34.4278 27.2115 34.222 27.1128 33.9194 26.9677C33.8451 26.932 33.765 26.8936 33.6793 26.851C33.2448 26.6348 31.1053 25.5868 30.7042 25.437C30.303 25.2956 30.0105 25.2208 29.7264 25.6533C29.4339 26.0858 28.5981 27.059 28.3474 27.3501C28.0967 27.6412 27.8376 27.6744 27.4031 27.4582C27.3324 27.423 27.2361 27.3815 27.1172 27.3302C26.505 27.0661 25.294 26.5437 23.9014 25.304C22.606 24.1561 21.7285 22.7339 21.4778 22.3013C21.2271 21.8688 21.4527 21.6359 21.67 21.4197C21.7929 21.2974 21.9362 21.1242 22.0803 20.95C22.1618 20.8516 22.2435 20.7529 22.3219 20.6628C22.5135 20.4428 22.5946 20.2745 22.7086 20.0381C22.7238 20.0064 22.7397 19.9736 22.7565 19.9392C22.8985 19.6481 22.8317 19.3985 22.723 19.1823C22.6734 19.0873 22.4686 18.588 22.2241 17.9919C21.9333 17.283 21.5864 16.4371 21.3775 15.9717Z" stroke="#F1F1F1"/>
</svg>
